<?xml version="1.0" standalone="no"?>
<!DOCTYPE svg PUBLIC "-//W3C//DTD SVG 1.1//EN" "http://www.w3.org/Graphics/SVG/1.1/DTD/svg11.dtd" >
<svg xmlns="http://www.w3.org/2000/svg" xmlns:xlink="http://www.w3.org/1999/xlink" version="1.1">
<metadata>
Created by FontForge 20200427 at Sun Oct  9 16:47:08 2016
 By www
Copyright (c) 2016 by Pablo Moreno. All rights reserved.
</metadata>
<defs>
<font id="OceanshoreW00-Regular" horiz-adv-x="0" >
  <font-face 
    font-family="OceanshoreW00-Regular"
    font-weight="400"
    font-stretch="normal"
    units-per-em="1000"
    panose-1="1 0 0 0 0 0 0 0 0 0"
    ascent="800"
    descent="-200"
    x-height="501"
    cap-height="700"
    bbox="-757 -227 2561 954"
    underline-thickness="50"
    underline-position="-125"
    unicode-range="U+0020-FB02"
  />
<missing-glyph horiz-adv-x="200" 
 />
    <glyph glyph-name="uniFB01" unicode="fi" horiz-adv-x="480" 
d="M171 481v-1h105v-69h-105v-411h-79v411h-50v69h50v1q0 60 18.5 110.5t53 86t83.5 54.5t107 19v-75q-84 0 -133.5 -50.5t-49.5 -144.5zM320 501h82v-501h-82v501z" />
    <glyph glyph-name="uniFB02" unicode="fl" horiz-adv-x="513" 
d="M353 750h83v-750h-83v674q-84 -5 -132.5 -55.5t-48.5 -140.5v-1h117v-69h-117v-408h-80v408h-50v69h50v1q0 58 18.5 107.5t52.5 85t83 56t107 23.5z" />
    <glyph glyph-name="f_f.liga" unicode="ff" horiz-adv-x="625" 
d="M92 0v408h-50v69h52l2 31q7 110 81.5 176.5t191.5 66.5v-75q-40 0 -70 -9.5t-54.5 -26t-44.5 -50t-23 -83.5l-2 -30h200l2 30q7 111 82 177.5t192 66.5v-75q-40 0 -70 -9.5t-55 -26t-45 -50t-23 -84.5l-2 -29h151v-69h-153v-408h-80v408h-202v-408h-80z" />
    <glyph glyph-name="f_f_i.liga" unicode="ffi" horiz-adv-x="752" 
d="M92 0v405h-50v72h52v25q3 51 24 96t57.5 78.5t86.5 53t107 21.5v-77q-78 0 -134.5 -49.5t-59.5 -123.5v-24h174l1 24q6 105 85 175.5t201 74.5v-77q-83 0 -142 -48.5t-63 -123.5l-1 -25h245v-477h-81v405h-166v-405h-80v405h-176v-405h-80z" />
    <glyph glyph-name="f_f_l.liga" unicode="ffl" horiz-adv-x="781" 
d="M92 0v405h-50v72h52l1 29q7 103 82.5 172t191.5 73v-77q-27 0 -58 -8.5t-63.5 -32t-50.5 -58.5t-20 -70l-2 -28h174l1 28q4 49 25 93.5t57 77.5t84.5 52.5t104.5 21.5h82v-750h-82v673q-27 0 -58 -8.5t-59.5 -28.5t-49.5 -53.5t-23 -78.5l-1 -27h118v-72h-121v-405h-80
v405h-175v-405h-80z" />
    <glyph glyph-name=".notdef" horiz-adv-x="200" 
 />
    <glyph glyph-name=".null" 
 />
    <glyph glyph-name="nonmarkingreturn" horiz-adv-x="333" 
 />
    <glyph glyph-name="space" unicode=" " horiz-adv-x="256" 
 />
    <glyph glyph-name="exclam" unicode="!" horiz-adv-x="257" 
d="M90 151l-3 549h82l-3 -549h-76zM89 -1v84h79v-84h-79z" />
    <glyph glyph-name="quotedbl" unicode="&#x22;" horiz-adv-x="267" 
d="M61 598l-2 164h65l-20 -164h-43zM148 598l11 164h66l-33 -164h-44z" />
    <glyph glyph-name="numbersign" unicode="#" horiz-adv-x="493" 
d="M73 0l41 149h-70v65h88l20 73h-80v65h97l42 149h65l-42 -149h78l41 149h65l-42 -149h74v-65h-91l-21 -73h84v-65h-101l-41 -149h-65l41 149h-78l-41 -149h-64zM197 214h77l20 73h-78z" />
    <glyph glyph-name="dollar" unicode="$" horiz-adv-x="583" 
d="M257 -61v58q-104 11 -163.5 81.5t-59.5 181.5h79q0 -88 49.5 -139.5t136.5 -51.5q28 0 58 7t55 25.5t41.5 48.5t16.5 74q0 70 -42.5 107t-116.5 42q-92 6 -139.5 50t-48.5 119q0 62 36.5 104t97.5 53v56h74v-55q56 -7 98 -44l-49 -59q-18 14 -37 22.5t-46 8.5
q-31 0 -54 -12.5t-31.5 -33t-8.5 -40.5q0 -39 28.5 -64.5t87.5 -29.5q73 -4 123.5 -31t77.5 -73t27 -113q0 -60 -23.5 -109t-72 -83.5t-120.5 -41.5v-58h-74z" />
    <glyph glyph-name="percent" unicode="%" horiz-adv-x="856" 
d="M216 320q-78 0 -130 53t-52 130t52 130.5t130 53.5q28 0 59 -9.5t61.5 -35.5t46 -64t15.5 -75q0 -28 -9 -58.5t-34 -61.5t-63 -47t-76 -16zM272 0l246 685h68l-246 -685h-68zM216 385q36 0 65 20t40 48t11 51t-11 50.5t-40 47t-65 19.5q-24 0 -51.5 -11.5t-46.5 -41
t-19 -64.5q0 -50 33 -84.5t84 -34.5zM641 -5q-28 0 -59 9.5t-58 32t-46 58.5t-19 83q0 37 13.5 71t38.5 59.5t58.5 39.5t71.5 14q28 0 59 -9.5t61.5 -35.5t46 -64t15.5 -75q0 -28 -9 -58.5t-34 -61.5t-63 -47t-76 -16zM641 60q36 0 65 20t40 48t11 51q0 36 -19 65.5
t-46.5 41t-50.5 11.5q-51 0 -83.5 -34t-32.5 -84t32.5 -84.5t83.5 -34.5z" />
    <glyph glyph-name="ampersand" unicode="&#x26;" horiz-adv-x="692" 
d="M314 -5q-56 0 -105.5 19t-85.5 54.5t-56.5 86t-20.5 109.5q0 63 26 117t70 86q-14 31 -14 72q0 72 52 120t134 48q83 0 136 -53.5t53 -135.5h-84q0 22 -10 47t-36 42.5t-58 17.5q-21 0 -46 -10t-42.5 -36t-17.5 -57q0 -50 32 -80q-25 -10 -52 -33t-44 -62t-17 -83
q0 -49 23 -95t68 -70.5t95 -24.5q75 0 125 45.5t58 116.5h-189v64h365v-64h-92q-10 -107 -85 -174t-182 -67z" />
    <glyph glyph-name="quotesingle" unicode="'" horiz-adv-x="176" 
d="M60 598l1 164h68l-23 -164h-46z" />
    <glyph glyph-name="parenleft" unicode="(" horiz-adv-x="282" 
d="M172 -218q-62 120 -92 234t-30 244q0 123 25.5 232.5t96.5 245.5h82q-127 -230 -127 -478q0 -58 12.5 -140.5t44 -175t70.5 -162.5h-82z" />
    <glyph glyph-name="parenright" unicode=")" horiz-adv-x="282" 
d="M110 738q62 -120 92 -234t30 -244q0 -123 -25.5 -232.5t-96.5 -245.5h-82q127 230 127 478q0 58 -12.5 140.5t-44 175t-70.5 162.5h82z" />
    <glyph glyph-name="asterisk" unicode="*" horiz-adv-x="393" 
d="M170 434l5 99l-58 -79l-40 40l79 59l-101 -6v52l101 -5l-79 59l41 39l57 -78l-5 100h53l-6 -100l59 78l39 -39l-79 -59l102 5v-52l-102 6l79 -58l-39 -41l-59 79l6 -99h-53z" />
    <glyph glyph-name="plus" unicode="+" horiz-adv-x="593" 
d="M257 0v224h-222v70h222v224h79v-224h222v-70h-222v-224h-79z" />
    <glyph glyph-name="comma" unicode="," horiz-adv-x="219" 
d="M31 -137l43 210h80l-72 -210h-51z" />
    <glyph glyph-name="hyphen" unicode="-" horiz-adv-x="429" 
d="M67 210v72h295v-72h-295z" />
    <glyph glyph-name="period" unicode="." horiz-adv-x="221" 
d="M67 0v86h87v-86h-87z" />
    <glyph glyph-name="slash" unicode="/" horiz-adv-x="347" 
d="M47 -63l193 775h59l-193 -775h-59z" />
    <glyph glyph-name="zero" unicode="0" horiz-adv-x="805" 
d="M404 692q33 0 77 -8.5t89.5 -32t88 -64.5t70.5 -104.5t28 -133.5q0 -67 -25 -131.5t-71.5 -115t-113 -79.5t-143.5 -29q-75 0 -141 27t-114.5 75.5t-75 113t-26.5 135.5q0 66 25.5 129.5t72.5 112t114 77t145 28.5zM126 345q0 -49 16.5 -94.5t45.5 -80.5l387 388
q-76 57 -171 57q-61 0 -113 -22t-88.5 -60.5t-56.5 -87.5t-20 -100zM404 71q60 0 111.5 23t88 62.5t56 89.5t19.5 102q0 47 -15.5 89.5t-44.5 76.5l-387 -387q75 -56 172 -56z" />
    <glyph glyph-name="one" unicode="1" horiz-adv-x="363" 
d="M44 0v69h103v546h-100v70h183v-616h103v-69h-289z" />
    <glyph glyph-name="two" unicode="2" horiz-adv-x="553" 
d="M58 0v67l266 256q47 45 66.5 81t19.5 72q0 63 -38.5 101t-101.5 38q-64 0 -104 -39.5t-40 -105.5h-83q0 50 16.5 91.5t47 70.5t72.5 44.5t91 15.5q61 0 105.5 -20.5t72 -51.5t38.5 -69t11 -74q0 -43 -22.5 -92.5t-92.5 -113.5l-207 -198h325v-73h-442z" />
    <glyph glyph-name="three" unicode="3" horiz-adv-x="613" 
d="M398 493q77 -21 123 -82t46 -147q0 -58 -20 -108t-56.5 -86t-86 -55.5t-105.5 -19.5q-55 0 -104.5 19.5t-86.5 55.5t-57.5 86t-20.5 108h82q0 -29 9 -61t31 -60.5t59 -48.5t88 -20q30 0 62.5 9.5t60 32.5t46 60.5t18.5 87.5q0 27 -8.5 57t-30 56t-57 44t-85.5 18h-27v13
l107 158h-273v75h371v-64z" />
    <glyph glyph-name="four" unicode="4" horiz-adv-x="614" 
d="M437 687h82v-687h-82v145h-413v51l191 491h84l-181 -469h319v469z" />
    <glyph glyph-name="five" unicode="5" horiz-adv-x="596" 
d="M296 -5q-56 0 -105 18.5t-84 53t-54.5 82t-19.5 102.5h82q0 -37 13 -70.5t37 -58t57.5 -38.5t73.5 -14q29 0 60.5 9t58 31t44.5 57.5t18 83.5q0 28 -8.5 59t-29 58t-56.5 46t-87 19q-39 0 -73 -14t-57 -37l-56 29v274h324v-75h-246v-138q22 15 54.5 23.5t64.5 8.5
q56 0 103 -18.5t80 -52.5t51 -81t18 -101t-19 -101.5t-54 -82t-84 -53.5t-106 -19z" />
    <glyph glyph-name="six" unicode="6" horiz-adv-x="651" 
d="M326 -6q-60 0 -112 20.5t-89.5 58t-58 88.5t-20.5 109q0 101 67 192l169 223h100l-123 -159q34 19 75 19q28 0 63 -7t69.5 -25.5t62 -46t45.5 -63t24.5 -70.5t6.5 -63q0 -58 -20.5 -109.5t-58.5 -88.5t-89.5 -57.5t-110.5 -20.5zM326 72q52 0 98.5 25t71 73t24.5 101
t-24.5 101t-71 73t-98.5 25q-84 0 -139.5 -56.5t-55.5 -142.5q0 -31 9.5 -65t33 -63.5t62 -50t90.5 -20.5z" />
    <glyph glyph-name="seven" unicode="7" horiz-adv-x="518" 
d="M51 0l368 610h-387v75h478v-67l-371 -618h-88z" />
    <glyph glyph-name="eight" unicode="8" horiz-adv-x="627" 
d="M313 -5q-56 0 -105.5 19.5t-86 55t-56.5 83t-20 100.5q0 31 10.5 70t38.5 74.5t65 53.5q-14 12 -24 33t-10 48q0 24 9.5 51.5t35 54.5t65 41t78.5 14q81 0 135 -46.5t54 -114.5q0 -51 -34 -81q37 -19 65 -54.5t38.5 -74t10.5 -69.5q0 -53 -20.5 -100.5t-57 -83t-86 -55
t-105.5 -19.5zM313 614q-49 0 -76.5 -26t-27.5 -66q0 -33 17.5 -55.5t46.5 -26.5v-22q-25 -3 -51 -14t-49.5 -35.5t-35 -58.5t-11.5 -62q0 -25 9 -54t31.5 -55.5t59.5 -45.5t87 -19q30 0 62.5 9.5t63.5 34t46.5 60.5t15.5 70q0 28 -13 66t-48.5 68.5t-86.5 35.5v22
q30 4 47.5 26t17.5 56q0 40 -28 66t-77 26z" />
    <glyph glyph-name="nine" unicode="9" horiz-adv-x="648" 
d="M270 -4l122 160q-34 -19 -76 -19q-56 0 -106 20.5t-87 57.5t-57 88t-20 108q0 58 20.5 109.5t58 89t89 58t110.5 20.5q44 0 92 -14t94 -52t69 -95.5t23 -115.5q0 -105 -65 -190l-169 -225h-98zM324 212q40 0 76 14.5t62 41.5t40.5 63.5t14.5 78.5q0 87 -54.5 143.5
t-138.5 56.5t-139 -56.5t-55 -143.5q0 -42 12.5 -74t33 -57.5t59 -46t89.5 -20.5z" />
    <glyph glyph-name="colon" unicode=":" horiz-adv-x="221" 
d="M67 308v86h87v-86h-87zM67 0v86h87v-86h-87z" />
    <glyph glyph-name="semicolon" unicode=";" horiz-adv-x="282" 
d="M107 297v85h87v-85h-87zM64 -137l43 210h80l-72 -210h-51z" />
    <glyph glyph-name="less" unicode="&#x3c;" horiz-adv-x="398" 
d="M291 -7l-255 255l261 260l49 -49l-210 -211l205 -205z" />
    <glyph glyph-name="equal" unicode="=" horiz-adv-x="509" 
d="M70 328v69h369v-69h-369zM70 132v69h369v-69h-369z" />
    <glyph glyph-name="greater" unicode="&#x3e;" horiz-adv-x="398" 
d="M107 -7l-50 50l205 205l-210 211l49 49l261 -260z" />
    <glyph glyph-name="question" unicode="?" horiz-adv-x="521" 
d="M200 132v191l13 16l27 -1q27 0 54.5 7.5t50 25.5t36.5 46.5t14 66.5q0 65 -38.5 103.5t-101.5 38.5q-62 0 -101.5 -40t-39.5 -105h-81q0 37 11 76t41.5 75.5t77 54.5t93.5 18t87.5 -15.5t70.5 -44.5t46 -70t16 -90q0 -42 -14.5 -81t-41 -68t-63.5 -46.5t-80 -20.5v-137
h-77zM195 0v72h87v-72h-87z" />
    <glyph glyph-name="at" unicode="@" horiz-adv-x="843" 
d="M423 -77q-76 2 -145.5 32t-121.5 82.5t-81 121.5t-29 144t29 144.5t81 122t122 82.5t147 30q78 0 148 -30t122 -83t80.5 -122.5t28.5 -143.5q0 -106 -63 -205h-178v62q-20 -30 -59.5 -48.5t-86.5 -18.5q-34 0 -71 11t-68 36.5t-52 67t-21 95.5q0 91 60 151.5t155 60.5
q28 0 55 -7t42 -17l-2 -81q-22 15 -47.5 23t-46.5 8q-29 0 -60 -13t-53 -47.5t-22 -76.5q0 -59 38 -98t97 -39q27 0 60 11.5t56 41t23 66.5v159h73v-288h70q17 31 26.5 70t9.5 75q0 64 -24.5 122.5t-67.5 102t-100.5 68t-120.5 24.5q-67 0 -125.5 -26t-101 -70.5t-65.5 -102
t-23 -118.5q0 -64 25 -122t68.5 -101t100.5 -67.5t118 -25.5v-63z" />
    <glyph glyph-name="A" unicode="A" horiz-adv-x="690" 
d="M546 704h49v-704h-87v537l-274 -328h198v-72h-258l-114 -137h-100z" />
    <glyph glyph-name="B" unicode="B" horiz-adv-x="755" 
d="M96 0v550h85v-477h252q29 0 61 9t65 35t50 66.5t17 82.5q0 76 -39.5 126t-125.5 66q6 46 6 54q0 59 -35.5 87t-94.5 28h-241v73h266q88 0 137.5 -42.5t49.5 -122.5q0 -16 -3 -31q82 -23 123.5 -86.5t41.5 -151.5q0 -54 -20.5 -103t-56.5 -85.5t-83 -57t-97 -20.5h-358z
" />
    <glyph glyph-name="C" unicode="C" horiz-adv-x="701" 
d="M407 -8q-77 0 -143.5 26.5t-115 74.5t-74.5 114t-26 140q0 77 26.5 144t74.5 115.5t115 75t143 26.5q85 0 148 -26.5t113 -77.5l-60 -56q-37 40 -89 62t-113 22q-58 0 -108.5 -20.5t-87 -58.5t-57 -90.5t-20.5 -113.5q0 -60 20.5 -112.5t57.5 -89.5t88 -57.5t109 -20.5
q59 0 111.5 21.5t90.5 60.5l53 -56q-47 -49 -113.5 -76t-142.5 -27z" />
    <glyph glyph-name="D" unicode="D" horiz-adv-x="758" 
d="M96 0v549h85v-475h177q56 1 105.5 22.5t86.5 59.5t57 88.5t20 105.5q0 58 -21 109t-58.5 88.5t-86.5 58t-102 20.5h-263v74h263q74 0 139 -27t113 -75t74 -112.5t26 -135.5q0 -72 -27.5 -136.5t-76.5 -112.5t-114 -74.5t-135 -26.5h-262z" />
    <glyph glyph-name="E" unicode="E" horiz-adv-x="616" 
d="M96 0v700h475v-73h-389v-553h399v-74h-485zM260 330v73h213v-73h-213z" />
    <glyph glyph-name="F" unicode="F" horiz-adv-x="576" 
d="M96 0v700h458v-75h-372v-625h-86zM260 303v74h217v-74h-217z" />
    <glyph glyph-name="G" unicode="G" horiz-adv-x="761" 
d="M407 -8q-77 0 -143.5 25.5t-114.5 73t-74.5 113.5t-26.5 143t26.5 144t74.5 115.5t115 75t143 26.5q72 0 135 -23l-28 -73q-51 19 -106 19q-58 0 -108.5 -20.5t-87.5 -58.5t-57.5 -90.5t-20.5 -112.5t20.5 -112.5t57.5 -89.5t88 -57.5t110 -20.5q60 0 116.5 24.5
t87.5 68.5t33 90h-179v73h267q1 -28 -2 -59q-5 -59 -31.5 -110t-69.5 -87.5t-101 -56.5t-124 -20z" />
    <glyph glyph-name="H" unicode="H" horiz-adv-x="794" 
d="M96 0v700h86v-473h352v-75h-352v-152h-86zM611 0v700h87v-700h-87z" />
    <glyph glyph-name="I" unicode="I" horiz-adv-x="278" 
d="M96 0v700h86v-700h-86z" />
    <glyph glyph-name="J" unicode="J" horiz-adv-x="535" 
d="M228 -5q-45 0 -84 14.5t-67 41.5t-43.5 66t-15.5 85h79q0 -29 12 -59t45.5 -51.5t75.5 -21.5q58 0 94.5 39t36.5 106v485h86v-479q0 -105 -61 -165.5t-158 -60.5z" />
    <glyph glyph-name="K" unicode="K" horiz-adv-x="671" 
d="M96 0v700h86v-345l346 331h110l-456 -446v-240h-86zM569 0l-271 260l60 63l325 -323h-114z" />
    <glyph glyph-name="L" unicode="L" horiz-adv-x="554" 
d="M96 0v700h86v-623h359v-77h-445z" />
    <glyph glyph-name="M" unicode="M" horiz-adv-x="832" 
d="M695 704h42v-704h-86v542l-236 -248l-233 244v-538h-86v704h43l278 -292z" />
    <glyph glyph-name="N" unicode="N" horiz-adv-x="751" 
d="M569 700h86v-700h-86v323l-387 251v-574h-86v704h39l434 -283v279z" />
    <glyph glyph-name="O" unicode="O" horiz-adv-x="805" 
d="M402 -6q-74 0 -139.5 26.5t-113.5 74.5t-74.5 114t-26.5 141q0 76 26.5 142t74.5 114t113.5 74.5t139.5 26.5t139.5 -26.5t114 -74.5t75 -114t26.5 -142q0 -75 -26.5 -141t-75 -114t-114 -74.5t-139.5 -26.5zM402 71q57 0 106.5 20.5t85.5 58t56 89t20 111.5t-20 112
t-56 89.5t-85.5 58t-106.5 20.5q-56 0 -105.5 -20.5t-85.5 -58t-56 -89.5t-20 -112t20 -111.5t56 -89t85.5 -58t105.5 -20.5z" />
    <glyph glyph-name="P" unicode="P" horiz-adv-x="706" 
d="M96 0v225h286q32 0 67 10.5t69.5 38.5t52 69.5t17.5 81.5q0 85 -57 142t-149 57h-286v76h295q60 0 112 -18.5t89.5 -54t58 -87t20.5 -113.5q0 -57 -22 -108.5t-61 -89t-90.5 -58.5t-106.5 -21h-209v-150h-86z" />
    <glyph glyph-name="Q" unicode="Q" horiz-adv-x="813" 
d="M691 -49l-127 155v14q110 82 110 230q0 59 -20 111.5t-56.5 90t-86.5 58.5t-108 21q-57 0 -107.5 -21t-86.5 -58.5t-56 -90t-20 -111.5t20 -111t51.5 -85t67 -51.5t71 -25.5t63.5 -7v-76q-79 0 -146 26.5t-114.5 74.5t-72.5 114t-25 141q0 76 26.5 142t75 114t114.5 74.5
t142 26.5q75 0 140.5 -26t113 -74t74 -114.5t26.5 -142.5q0 -73 -24.5 -136.5t-67.5 -107.5l126 -155h-103z" />
    <glyph glyph-name="R" unicode="R" horiz-adv-x="729" 
d="M96 0v700h292q63 0 117 -20.5t93 -57t60 -87.5t21 -109q0 -35 -10.5 -74t-34.5 -75t-63 -65t-89 -42l176 -170h-118l-156 153v71h4q42 0 80 16t66 44.5t43.5 65t15.5 74.5q0 87 -58 143.5t-147 56.5h-207v-624h-85z" />
    <glyph glyph-name="S" unicode="S" horiz-adv-x="591" 
d="M300 -5q-124 0 -197.5 72.5t-73.5 193.5h83q0 -87 51.5 -139t136.5 -52q82 0 129 41.5t47 115.5q0 27 -8 53.5t-27 47t-50 33.5t-78 16q-96 6 -145.5 49.5t-49.5 119.5q0 72 50 116.5t129 44.5q38 0 74.5 -11.5t62.5 -35.5l-53 -60q-16 15 -35.5 23.5t-48.5 8.5
q-42 0 -68.5 -22.5t-26.5 -63.5q0 -40 29.5 -65.5t90.5 -28.5q119 -7 177 -65t58 -155q0 -39 -10.5 -74t-30.5 -63.5t-48 -49t-70 -35.5t-98 -15z" />
    <glyph glyph-name="T" unicode="T" horiz-adv-x="643" 
d="M12 625v75h208v-75h-208zM280 0v700h351v-75h-265v-625h-86z" />
    <glyph glyph-name="U" unicode="U" horiz-adv-x="727" 
d="M364 -6q-60 0 -111.5 20.5t-88.5 59t-57.5 93t-20.5 119.5v414h87v-420q0 -35 10.5 -71.5t34.5 -67.5t62 -51t85 -20q27 0 58 9.5t64 37.5t50 72t17 91v420h87v-414q0 -65 -20 -119.5t-57.5 -93t-88.5 -59t-111 -20.5z" />
    <glyph glyph-name="V" unicode="V" horiz-adv-x="690" 
d="M629 700h101l-586 -711h-48v711h85v-454l-2 -101l83 105z" />
    <glyph glyph-name="W" unicode="W" horiz-adv-x="1068" 
d="M633 700h102l-590 -711h-49v711h86v-509l-2 -48l32 51zM1008 700h100l-601 -711h-49v281l82 99l-1 -233l75 97z" />
    <glyph glyph-name="X" unicode="X" horiz-adv-x="636" 
d="M280 476l-54 -72l-213 296h105zM625 0h-106l-203 281l-204 -281h-98l505 700h102l-252 -346z" />
    <glyph glyph-name="Y" unicode="Y" horiz-adv-x="625" 
d="M255 374l-263 326h109l205 -248zM92 0l453 700h97l-453 -700h-97z" />
    <glyph glyph-name="Z" unicode="Z" horiz-adv-x="651" 
d="M14 0l505 700h103l-506 -700h-102zM44 622v78h394l-54 -78h-340zM197 0l56 78h370v-78h-426z" />
    <glyph glyph-name="bracketleft" unicode="[" horiz-adv-x="273" 
d="M89 -167v919h136v-63h-58v-792h58v-64h-136z" />
    <glyph glyph-name="backslash" unicode="\" horiz-adv-x="347" 
d="M300 -63h-59l-193 775h59z" />
    <glyph glyph-name="bracketright" unicode="]" horiz-adv-x="273" 
d="M184 752v-919h-136v63h58v792h-58v64h136z" />
    <glyph glyph-name="asciicircum" unicode="^" horiz-adv-x="398" 
d="M344 592h-83l-62 73l-63 -73h-82l138 164h13z" />
    <glyph glyph-name="underscore" unicode="_" horiz-adv-x="656" 
d="M68 -50v75h519v-75h-519z" />
    <glyph glyph-name="grave" unicode="`" horiz-adv-x="252" 
d="M176 578l-149 144h102l110 -144h-63z" />
    <glyph glyph-name="a" unicode="a" horiz-adv-x="647" 
d="M302 -6q-56 0 -104 19.5t-82.5 54.5t-53 82t-18.5 99q0 54 19 101.5t54 83t83.5 55t103.5 19.5q81 0 140 -45l-24 -65q-24 19 -54 28t-59 9t-61 -9.5t-59 -32t-45.5 -59t-18.5 -84.5q0 -79 51.5 -131.5t130.5 -52.5t131.5 47.5t52.5 123.5v264h81v-501h-78v91
q-24 -44 -74.5 -70.5t-115.5 -26.5z" />
    <glyph glyph-name="b" unicode="b" horiz-adv-x="646" 
d="M343 -6q-75 0 -129 33l20 68q46 -29 106 -29q82 0 132.5 51t50.5 134q0 82 -51 133.5t-134 51.5q-26 0 -56 -8t-60.5 -31.5t-46.5 -60t-16 -74.5l-1 -262h-81v750h82l-1 -339q14 28 47.5 52.5t70 34.5t64.5 10q57 0 105.5 -18.5t84 -53t54.5 -82.5t19 -103t-19.5 -103
t-54.5 -82.5t-83 -53t-103 -18.5z" />
    <glyph glyph-name="c" unicode="c" horiz-adv-x="536" 
d="M305 -6q-55 0 -103.5 19t-84 54t-55 82t-19.5 100q0 55 20 103t55.5 83t84 54t102.5 19q59 0 109.5 -24t85.5 -67l-62 -43q-25 30 -60 46t-74 16q-47 0 -91 -23.5t-67.5 -68t-23.5 -93.5q0 -40 12.5 -70.5t32.5 -54t56 -42t81 -18.5q83 0 135 61l62 -42
q-34 -43 -85.5 -67t-110.5 -24z" />
    <glyph glyph-name="d" unicode="d" horiz-adv-x="647" 
d="M302 -6q-56 0 -104 19.5t-82.5 54.5t-53 82t-18.5 99q0 54 19 101.5t54 83t83.5 55t103.5 19.5q39 0 69 -8.5t59 -28.5l-23 -66q-15 13 -43 21.5t-60 8.5q-29 0 -60.5 -9.5t-58.5 -32t-45.5 -59t-18.5 -84.5q0 -79 51.5 -131.5t130.5 -52.5q80 0 132 50t52 134v500h81
v-750h-78v93q-18 -33 -51 -57t-70.5 -33t-68.5 -9z" />
    <glyph glyph-name="e" unicode="e" horiz-adv-x="532" 
d="M305 -6q-57 0 -105.5 19.5t-83 54t-53.5 82t-19 100.5t19 100.5t53.5 82.5t83 55t104.5 20q55 0 103 -19.5t83 -55.5l-211 -270l-54 41l168 209q-17 11 -41 17.5t-47 6.5q-38 0 -72 -14t-58.5 -39.5t-38 -60t-13.5 -73.5q0 -79 51.5 -132t130.5 -53q43 0 79.5 17t61.5 47
l56 -49q-35 -40 -85.5 -63t-111.5 -23z" />
    <glyph glyph-name="f" unicode="f" horiz-adv-x="350" 
d="M357 676q-83 0 -134 -49.5t-51 -139.5v-10h161v-69h-161v-408h-80v408h-50v69h50v10q0 58 19 107.5t54.5 84.5t84.5 53.5t107 18.5v-75z" />
    <glyph glyph-name="g" unicode="g" horiz-adv-x="647" 
d="M290 -222v73q41 0 78 14t64.5 40t42.5 60.5t15 73.5v53q-26 -45 -76 -71.5t-114 -26.5q-41 0 -85 13t-86.5 48.5t-63.5 88.5t-21 105q0 54 19 101.5t54 83t83 55t104 19.5q83 0 139 -46l-24 -65q-24 20 -54.5 29t-58.5 9q-80 0 -131.5 -53t-51.5 -131q0 -28 8.5 -59.5
t30 -59t57.5 -47t86 -19.5q48 0 92.5 20.5t68 58t23.5 76.5v280h81v-459q0 -52 -20 -100t-56.5 -84t-89 -57.5t-114.5 -22.5z" />
    <glyph glyph-name="h" unicode="h" horiz-adv-x="610" 
d="M77 0v750h80v-348q18 36 48 62.5t66 37t68 10.5q33 0 67.5 -9.5t67.5 -37.5t49 -73t16 -94v-298h-82v290q0 68 -38.5 108t-100.5 40q-67 0 -113 -47t-46 -113v-278h-82z" />
    <glyph glyph-name="i" unicode="i" horiz-adv-x="236" 
d="M70 608v87h96v-87h-96zM77 0v501h82v-501h-82z" />
    <glyph glyph-name="j" unicode="j" horiz-adv-x="236" 
d="M71 608v87h96v-87h-96zM54 -222l-45 59q68 55 68 143v521h82v-521q0 -60 -27 -113.5t-78 -88.5z" />
    <glyph glyph-name="k" unicode="k" horiz-adv-x="525" 
d="M484 501l-325 -328v-173h-82v750h82v-474l224 225h101zM314 250l224 -250h-107l-176 192z" />
    <glyph glyph-name="l" unicode="l" horiz-adv-x="237" 
d="M77 0v750h83v-750h-83z" />
    <glyph glyph-name="m" unicode="m" horiz-adv-x="972" 
d="M695 512q95 0 150.5 -56.5t55.5 -152.5v-303h-81v292q0 68 -38.5 108t-101.5 40q-30 0 -63 -14t-58.5 -52t-28.5 -83v-291h-81v292q0 69 -35 108.5t-98 39.5q-32 0 -57 -11t-45.5 -28.5t-37.5 -49t-17 -72.5v-279h-82v501h80v-99q18 37 49.5 64t65 36.5t60.5 9.5
q66 0 113 -30t69 -83q26 52 73 82.5t108 30.5z" />
    <glyph glyph-name="n" unicode="n" horiz-adv-x="610" 
d="M77 0v501h80v-91q17 32 47.5 57t66.5 35t67 10q92 0 146.5 -57t54.5 -158v-297h-81v290q0 68 -39 108.5t-101 40.5q-69 0 -114 -44t-45 -115v-280h-82z" />
    <glyph glyph-name="o" unicode="o" horiz-adv-x="604" 
d="M302 -6q-55 0 -103 19.5t-82.5 54t-53.5 81.5t-19 100q0 39 12.5 83t48 87.5t89 66t108.5 22.5t103 -19.5t83 -55t54 -83t19 -100.5t-19 -100t-54 -82t-83 -54.5t-103 -19.5zM302 66q79 0 130.5 52.5t51.5 132.5t-51.5 132.5t-130.5 52.5q-78 0 -130 -52.5t-52 -132.5
t52 -132.5t130 -52.5z" />
    <glyph glyph-name="p" unicode="p" horiz-adv-x="647" 
d="M77 -210v711h78v-95q26 45 77.5 73.5t116.5 28.5q55 0 102.5 -19.5t81.5 -54.5t52.5 -82.5t18.5 -99.5q0 -54 -19 -101.5t-54.5 -82.5t-83.5 -54.5t-104 -19.5q-77 0 -128 37l24 65q15 -14 44.5 -22t57.5 -8q29 0 60.5 9.5t58.5 32t45.5 59t18.5 84.5q0 29 -9 60.5
t-30.5 59t-57.5 46.5t-85 19q-79 0 -131 -50.5t-52 -134.5v-461h-82z" />
    <glyph glyph-name="q" unicode="q" horiz-adv-x="647" 
d="M489 -210v301q-14 -28 -47.5 -52.5t-70 -34.5t-64.5 -10q-57 0 -105.5 18.5t-84 53t-54.5 82t-19 102.5t20 103t55.5 82.5t84 53.5t102.5 19q74 0 128 -37l-22 -66q-17 11 -42 20.5t-61 9.5q-79 0 -132.5 -51.5t-53.5 -133.5q0 -29 9 -60.5t31 -59t59 -46t89 -18.5
q44 0 87 21t67 62t24 88v264h81v-711h-81z" />
    <glyph glyph-name="r" unicode="r" horiz-adv-x="339" 
d="M77 0v501h80v-95q12 23 35 48t60.5 41.5t77.5 16.5v-78q-28 0 -57.5 -9t-54.5 -30.5t-42 -54.5t-17 -76v-264h-82z" />
    <glyph glyph-name="s" unicode="s" horiz-adv-x="458" 
d="M228 -6q-41 0 -77 11.5t-64 34.5t-43.5 58.5t-15.5 79.5h72q0 -38 21.5 -66.5t51.5 -39.5t55 -11q57 0 91 28.5t34 78.5q0 48 -29.5 74t-86.5 34q-143 20 -143 120q0 50 35 81t83 31q43 0 71 -18l-36 -58q-12 9 -30 9q-20 0 -32.5 -12t-12.5 -31q0 -21 17.5 -34.5
t80.5 -23.5q74 -11 116 -52.5t42 -116.5q0 -30 -10 -61t-34.5 -57t-63.5 -42.5t-92 -16.5z" />
    <glyph glyph-name="t" unicode="t" horiz-adv-x="358" 
d="M329 69h20v-73h-20q-111 0 -170 59t-59 161v192h-77v69h81v217h76v-217h127v-69h-127v-192q0 -147 149 -147z" />
    <glyph glyph-name="u" unicode="u" horiz-adv-x="598" 
d="M277 -8q-95 0 -150.5 55.5t-55.5 153.5v300h81v-289q0 -51 24 -86.5t57.5 -48t59.5 -12.5q61 0 103.5 43t42.5 103v290h82v-505h-80v89q-60 -93 -164 -93z" />
    <glyph glyph-name="v" unicode="v" horiz-adv-x="520" 
d="M427 501h88l-228 -501h-53l-229 501h88l167 -388z" />
    <glyph glyph-name="w" unicode="w" horiz-adv-x="766" 
d="M428 501h85l-229 -501h-47l-233 501h89l170 -388l79 186l-92 202h88l47 -101zM673 501h88l-232 -501h-50l-72 154l41 95l55 -135z" />
    <glyph glyph-name="x" unicode="x" horiz-adv-x="522" 
d="M504 501l-192 -246l192 -255h-98l-144 191l-149 -191h-98l392 501h97zM226 362l-49 -65l-158 204h99z" />
    <glyph glyph-name="y" unicode="y" horiz-adv-x="537" 
d="M205 150l-203 351h97l151 -263zM86 -209l361 710h90l-361 -710h-90z" />
    <glyph glyph-name="z" unicode="z" horiz-adv-x="492" 
d="M22 0l346 501h94l-292 -425h291v-76h-439zM44 425v76h246l-52 -76h-194z" />
    <glyph glyph-name="braceleft" unicode="{" horiz-adv-x="273" 
d="M176 -181q-16 0 -36.5 8t-35 30t-14.5 51v312q0 16 -10.5 26t-25.5 10v58q15 0 25.5 10t10.5 26v313q0 38 25.5 63.5t60.5 25.5h48v-64h-22q-13 0 -23.5 -10.5t-10.5 -23.5v-316q0 -33 -23 -53q23 -20 23 -53v-315q0 -16 10.5 -25t23.5 -9h22v-64h-48z" />
    <glyph glyph-name="bar" unicode="|" horiz-adv-x="256" 
d="M89 -180v930h79v-930h-79z" />
    <glyph glyph-name="braceright" unicode="}" horiz-adv-x="273" 
d="M97 752q16 0 36.5 -8t35 -30t14.5 -51v-312q0 -16 10.5 -26t25.5 -10v-58q-15 0 -25.5 -10t-10.5 -26v-313q0 -38 -25.5 -63.5t-60.5 -25.5h-48v64h22q13 0 23.5 10.5t10.5 23.5v316q0 33 23 53q-23 20 -23 53v315q0 16 -10.5 25t-23.5 9h-22v64h48z" />
    <glyph glyph-name="asciitilde" unicode="~" horiz-adv-x="663" 
d="M221 163q-43 0 -86.5 23t-71.5 55l29 69q70 -70 133 -70q39 0 106 29.5t93 34.5t42 5q36 0 73 -18t55 -36l-24 -69q-56 45 -106 45q-42 0 -108.5 -29t-92.5 -34t-42 -5z" />
    <glyph glyph-name="uni007F" 
 />
    <glyph glyph-name="exclamdown" unicode="&#xa1;" horiz-adv-x="243" 
d="M80 415v85h82v-85h-82zM81 -201l2 549h77l3 -549h-82z" />
    <glyph glyph-name="cent" unicode="&#xa2;" horiz-adv-x="550" 
d="M267 -81v79q-35 4 -72.5 19.5t-74 50.5t-55 84t-18.5 97q0 62 25.5 114.5t75 91t119.5 48.5v79h74v-77q48 -5 90 -28t72 -60l-61 -43q-25 29 -60 45t-74 16q-27 0 -58 -9.5t-61.5 -36t-46.5 -64.5t-16 -74q0 -38 14.5 -72t40 -59t58.5 -39t69 -14q40 0 74.5 15.5
t59.5 44.5l63 -42q-31 -37 -73.5 -60.5t-90.5 -28.5v-77h-74z" />
    <glyph glyph-name="sterling" unicode="&#xa3;" horiz-adv-x="572" 
d="M214 281v-204h309v-77h-474v76h79v205h-79v65h79v105q0 57 17.5 105.5t52 83.5t84 54t110.5 19q83 0 146 -41l-53 -59q-45 24 -94 24q-82 0 -129.5 -48t-47.5 -137v-106h171v-65h-171z" />
    <glyph glyph-name="currency" unicode="&#xa4;" horiz-adv-x="566" 
d="M114 124l-51 44l69 76q-16 22 -25.5 51t-9.5 57q0 29 9.5 58t25.5 51l-69 77l51 44l67 -73q20 14 47.5 22t54.5 8q26 0 53.5 -8.5t48.5 -21.5l68 73l49 -44l-69 -77q16 -21 25.5 -51t9.5 -58q0 -29 -9.5 -58t-25.5 -50l69 -76l-49 -44l-67 73q-21 -14 -48.5 -22.5
t-54.5 -8.5t-55 8.5t-48 22.5zM283 234q23 0 50.5 11.5t46.5 41.5t19 66t-19 65.5t-46.5 41t-50.5 11.5q-24 0 -51.5 -11.5t-46.5 -41t-19 -65.5q0 -23 11 -51t40 -48t66 -20z" />
    <glyph glyph-name="yen" unicode="&#xa5;" horiz-adv-x="617" 
d="M267 0v140h-141v52h141v60h-141v52h138l-1 31l-235 365h106l177 -294l177 294h99l-232 -365v-31h138v-52h-140v-60h140v-52h-140v-140h-86z" />
    <glyph glyph-name="brokenbar" unicode="&#xa6;" horiz-adv-x="254" 
d="M88 349v401h79v-401h-79zM88 -180v402h79v-402h-79z" />
    <glyph glyph-name="section" unicode="&#xa7;" horiz-adv-x="605" 
d="M302 -216q-123 0 -195.5 72.5t-72.5 193.5h83q0 -87 50.5 -139t134.5 -52q81 0 127.5 41.5t46.5 114.5q0 36 -12 64t-34 46.5t-53 28.5t-64 12q-96 5 -145 47.5t-49 116.5q0 40 18.5 73t50.5 53q-71 43 -71 137q0 72 50.5 116t129.5 44q82 0 137 -47l-53 -59
q-18 14 -37.5 22.5t-46.5 8.5q-42 0 -68.5 -22t-26.5 -63q0 -40 29 -65.5t89 -29.5q119 -7 177 -65t58 -155q0 -74 -38 -127q39 -49 39 -131q0 -106 -70.5 -171t-183.5 -65zM457 197q17 34 17 76q0 73 -44 111t-119 39l-20 2q-40 -4 -64 -27t-24 -63t29 -65.5t89 -29.5
q36 -2 72.5 -12.5t63.5 -30.5z" />
    <glyph glyph-name="dieresis" unicode="&#xa8;" horiz-adv-x="327" 
d="M44 612v74h79v-74h-79zM207 612v74h80v-74h-80z" />
    <glyph glyph-name="copyright" unicode="&#xa9;" horiz-adv-x="490" 
d="M246 318q-86 0 -142 55.5t-56 140.5q0 42 14.5 78.5t41.5 63t63.5 41t78.5 14.5q31 0 64 -9.5t66 -36.5t49.5 -68t16.5 -83q0 -31 -10 -64.5t-36.5 -66t-67.5 -49t-82 -16.5zM246 358q66 0 110 44.5t44 111.5q0 68 -43.5 112t-110.5 44q-68 0 -112 -43.5t-44 -112.5
q0 -68 44 -112t112 -44zM247 399q-49 0 -83.5 32.5t-34.5 83.5q0 25 12 52t41.5 45.5t64.5 18.5q51 0 88 -34l-28 -34q-10 11 -27 18t-33 7q-29 0 -51.5 -22.5t-22.5 -51.5q0 -30 22.5 -51.5t51.5 -21.5q17 0 33 6.5t27 18.5l29 -33q-16 -14 -39 -24t-50 -10z" />
    <glyph glyph-name="ordfeminine" unicode="&#xaa;" horiz-adv-x="497" 
d="M228 321q-30 0 -61.5 9.5t-61.5 34.5t-45 62.5t-15 74.5q0 78 52.5 130.5t132.5 52.5q59 0 100 -29l-32 -55q-28 21 -67 21q-38 0 -67 -20t-40 -48.5t-11 -51.5q0 -38 19 -67.5t47 -41t52 -11.5t52.5 10t49 36.5t20.5 58.5v177h70v-338h-68v51q-17 -25 -51 -40.5
t-76 -15.5z" />
    <glyph glyph-name="guillemotleft" unicode="&#xab;" horiz-adv-x="503" 
d="M226 131l-186 188l191 194l49 -48l-146 -145l141 -141zM394 131l-186 188l191 194l49 -48l-146 -145l141 -141z" />
    <glyph glyph-name="registered" unicode="&#xae;" horiz-adv-x="490" 
d="M245 319q-85 0 -140.5 55.5t-55.5 140.5t55.5 141t140.5 56t141 -56t56 -141t-56 -140.5t-141 -55.5zM245 363q66 0 109 43t43 109t-43 109.5t-109 43.5q-24 0 -49.5 -7.5t-48 -26t-38 -48.5t-15.5 -71q0 -66 42.5 -109t108.5 -43zM172 404v226h83q38 0 66.5 -28
t28.5 -66q0 -30 -17.5 -54.5t-43.5 -34.5l42 -42h-53l-53 56q21 3 41 12t30.5 26.5t10.5 36.5q0 24 -17 40.5t-41 16.5h-35v-189h-42z" />
    <glyph glyph-name="macron" unicode="&#xaf;" horiz-adv-x="312" 
d="M41 632v55h230v-55h-230z" />
    <glyph glyph-name="degree" unicode="&#xb0;" horiz-adv-x="308" 
d="M154 488q-21 0 -46.5 10t-43 36t-17.5 58t17.5 58t43 36t46.5 10q22 0 47 -10t43 -36t18 -58q0 -21 -10.5 -45.5t-37 -41.5t-60.5 -17zM154 541q21 0 34.5 14.5t13.5 35.5q0 22 -13.5 36.5t-34.5 14.5q-20 0 -33.5 -14.5t-13.5 -36.5q0 -21 13.5 -35.5t33.5 -14.5z" />
    <glyph glyph-name="plusminus" unicode="&#xb1;" horiz-adv-x="565" 
d="M244 124v168h-187v70h187v168h78v-168h187v-70h-187v-168h-78zM69 0v70h428v-70h-428z" />
    <glyph glyph-name="uni00B2" unicode="&#xb2;" horiz-adv-x="400" 
d="M71 281v53l150 138q17 17 28.5 34t11.5 39q0 29 -18 47t-48 18q-29 0 -48 -19t-20 -50h-66q0 45 22.5 76t53.5 42.5t59 11.5q44 0 77 -20.5t45 -50t12 -55.5q0 -33 -16.5 -60.5t-41.5 -47.5l-104 -97h165v-59h-262z" />
    <glyph glyph-name="uni00B3" unicode="&#xb3;" horiz-adv-x="399" 
d="M256 559q44 -12 70 -45t26 -82q0 -67 -44 -110t-112 -43q-66 0 -110 42.5t-44 109.5h64q0 -19 8.5 -41t31 -37t49.5 -15q18 0 39.5 8.5t37 31.5t15.5 53q0 39 -26.5 65t-68.5 26h-15v17l63 76h-150v57h222v-40z" />
    <glyph glyph-name="acute" unicode="&#xb4;" horiz-adv-x="600" 
d="M25 578l111 144h104l-150 -144h-65z" />
    <glyph glyph-name="paragraph" unicode="&#xb6;" horiz-adv-x="561" 
d="M197 0v376q-33 1 -70.5 18.5t-65 58.5t-27.5 90q0 25 9 53.5t30.5 54t55.5 43.5t77 18h293v-64h-47v-648h-69v648h-116v-648h-70z" />
    <glyph glyph-name="periodcentered" unicode="&#xb7;" horiz-adv-x="221" 
d="M67 229v85h87v-85h-87z" />
    <glyph glyph-name="cedilla" unicode="&#xb8;" horiz-adv-x="600" 
d="M47 -208v45q81 0 81 44q0 19 -16 27.5t-52 8.5l-16 22l33 66h53l-22 -46q45 -1 68.5 -22t23.5 -53q0 -19 -8 -35t-22.5 -27.5t-44.5 -20.5t-78 -9z" />
    <glyph glyph-name="uni00B9" unicode="&#xb9;" horiz-adv-x="292" 
d="M66 279v56h53v274h-52v55h120v-329h54v-56h-175z" />
    <glyph glyph-name="ordmasculine" unicode="&#xba;" horiz-adv-x="460" 
d="M230 322q-81 0 -133 51.5t-52 128.5q0 78 52.5 131t132.5 53q50 0 94.5 -23.5t67.5 -67.5t23 -92q0 -78 -52 -129.5t-133 -51.5zM230 384q24 0 51.5 11.5t46.5 41t19 66.5q0 24 -11 52.5t-40 48.5t-66 20t-66 -20t-40 -48.5t-11 -52.5t11 -52t40 -47.5t66 -19.5z" />
    <glyph glyph-name="guillemotright" unicode="&#xbb;" horiz-adv-x="501" 
d="M108 131l-48 48l140 140l-145 145l49 49l191 -193zM276 131l-48 48l140 140l-145 145l49 49l191 -193z" />
    <glyph glyph-name="onequarter" unicode="&#xbc;" horiz-adv-x="697" 
d="M373 700h63l-175 -700h-62zM219 340v-54h-173v54h53v276h-51v55h117v-331h54zM583 395h62v-395h-62v90h-222v23l75 282h60l-62 -251h149v251z" />
    <glyph glyph-name="onehalf" unicode="&#xbd;" horiz-adv-x="698" 
d="M199 0l175 700h63l-175 -700h-63zM48 286v54h53v276h-52v55h117v-331h55v-54h-173zM402 0v52l150 140q18 16 28.5 32.5t10.5 40.5q0 29 -18 47.5t-48 18.5q-29 0 -48.5 -20t-20.5 -50h-64q0 26 12.5 56t45 51t74.5 21q61 0 97.5 -34.5t36.5 -90.5q0 -59 -56 -107
l-107 -99h166v-58h-259z" />
    <glyph glyph-name="threequarters" unicode="&#xbe;" horiz-adv-x="805" 
d="M478 700h63l-175 -700h-63zM248 568q44 -12 70 -45t26 -82q0 -67 -44 -110t-112 -43q-66 0 -110 42.5t-44 109.5h64q0 -19 8.5 -41t31 -37t49.5 -15q39 0 65.5 26t26.5 66t-26.5 66t-68.5 26h-15v17l63 76h-150v57h222v-40zM685 395h62v-395h-62v77h-225v23l78 295h60
l-65 -263h152v263z" />
    <glyph glyph-name="questiondown" unicode="&#xbf;" horiz-adv-x="511" 
d="M319 503v-72h-87v72h87zM314 371v-191l-13 -16l-27 1q-27 0 -54.5 -7.5t-50 -25.5t-36.5 -46.5t-14 -66.5q0 -65 38.5 -103.5t101.5 -38.5q62 0 101.5 40t39.5 105h81q0 -37 -11 -76t-41.5 -75.5t-77 -54.5t-93.5 -18t-87.5 15.5t-70.5 44.5t-46 70t-16 90q0 42 14.5 81
t41 68t63.5 46.5t80 20.5v137h77z" />
    <glyph glyph-name="Agrave" unicode="&#xc0;" horiz-adv-x="690" 
d="M646 734h-73l-167 119h103zM-40 0l586 704h49v-704h-87v537l-274 -328h198v-72h-258l-114 -137h-100z" />
    <glyph glyph-name="Aacute" unicode="&#xc1;" horiz-adv-x="690" 
d="M728 853l-167 -119h-73l131 119h109zM-40 0l586 704h49v-704h-87v537l-274 -328h198v-72h-258l-114 -137h-100z" />
    <glyph glyph-name="Acircumflex" unicode="&#xc2;" horiz-adv-x="690" 
d="M604 855l113 -124h-69l-84 79l-84 -79h-67l114 124h77zM-40 0l586 704h49v-704h-87v537l-274 -328h198v-72h-258l-114 -137h-100z" />
    <glyph glyph-name="Atilde" unicode="&#xc3;" horiz-adv-x="690" 
d="M672 834h53q0 -24 -9 -48t-31 -37.5t-47 -13.5q-33 0 -68 18t-46.5 20.5t-17.5 2.5q-22 0 -36 -12.5t-14 -28.5h-53q0 36 16.5 60t38 31.5t38.5 7.5q20 0 38 -5.5t48.5 -20.5t47.5 -15q19 0 30.5 11t11.5 30zM-40 0l586 704h49v-704h-87v537l-274 -328h198v-72h-258
l-114 -137h-100z" />
    <glyph glyph-name="Adieresis" unicode="&#xc4;" horiz-adv-x="690" 
d="M518 828v-73h-80v73h80zM611 828h80v-73h-80v73zM-40 0l586 704h49v-704h-87v537l-274 -328h198v-72h-258l-114 -137h-100z" />
    <glyph glyph-name="Aring" unicode="&#xc5;" horiz-adv-x="690" 
d="M564 907q19 0 43 -9.5t41.5 -34.5t17.5 -55t-17.5 -54.5t-41.5 -34t-43 -9.5q-30 0 -55.5 16.5t-35.5 39.5t-10 42t10 42.5t35.5 40t55.5 16.5zM564 761q20 0 34 13.5t14 33.5t-14 34t-34 14q-19 0 -33 -14t-14 -34t13.5 -33.5t33.5 -13.5zM-40 0l586 704h49v-704h-87
v537l-274 -328h198v-72h-258l-114 -137h-100z" />
    <glyph glyph-name="AE" unicode="&#xc6;" horiz-adv-x="1064" 
d="M-40 0l585 700h477v-73h-396v-553h399v-74l-485 -1v572h-2l-301 -362h194v-72h-254l-117 -137h-100zM704 330v73h213v-73h-213z" />
    <glyph glyph-name="Ccedilla" unicode="&#xc7;" horiz-adv-x="701" 
d="M408 69q59 0 111.5 21.5t90.5 60.5l53 -56q-42 -43 -98.5 -69.5t-122.5 -32.5l-16 -34q45 -1 68.5 -22t23.5 -53q0 -19 -8 -35t-22.5 -27.5t-44.5 -20.5t-78 -9v45q81 0 81 44q0 19 -16 27.5t-52 8.5l-16 22l27 53q-35 2 -79.5 12t-88.5 34.5t-83.5 66.5t-64.5 106
t-25 136q0 77 26.5 144t74.5 115.5t115 75t143 26.5q85 0 148 -26.5t113 -77.5l-60 -56q-37 40 -89 62t-113 22q-58 0 -108.5 -20.5t-87 -58.5t-57 -90.5t-20.5 -113.5q0 -60 20.5 -112.5t57.5 -89.5t88 -57.5t109 -20.5z" />
    <glyph glyph-name="Egrave" unicode="&#xc8;" horiz-adv-x="616" 
d="M359 734l-167 119h103l137 -119h-73zM96 0v700h475v-73h-389v-553h399v-74h-485zM260 330v73h213v-73h-213z" />
    <glyph glyph-name="Eacute" unicode="&#xc9;" horiz-adv-x="616" 
d="M274 734l131 119h109l-167 -119h-73zM96 0v700h475v-73h-389v-553h399v-74h-485zM260 330v73h213v-73h-213z" />
    <glyph glyph-name="Ecircumflex" unicode="&#xca;" horiz-adv-x="616" 
d="M199 731l114 124h77l113 -124h-69l-84 79l-84 -79h-67zM96 0v700h475v-73h-389v-553h399v-74h-485zM260 330v73h213v-73h-213z" />
    <glyph glyph-name="Edieresis" unicode="&#xcb;" horiz-adv-x="616" 
d="M224 755v73h80v-73h-80zM397 755v73h80v-73h-80zM96 0v700h475v-73h-389v-553h399v-74h-485zM260 330v73h213v-73h-213z" />
    <glyph glyph-name="Igrave" unicode="&#xcc;" horiz-adv-x="278" 
d="M147 734l-167 119h103l137 -119h-73zM96 0v700h86v-700h-86z" />
    <glyph glyph-name="Iacute" unicode="&#xcd;" horiz-adv-x="278" 
d="M62 734l131 119h109l-167 -119h-73zM96 0v700h86v-700h-86z" />
    <glyph glyph-name="Icircumflex" unicode="&#xce;" horiz-adv-x="278" 
d="M-13 731l114 124h77l113 -124h-69l-84 79l-84 -79h-67zM96 0v700h86v-700h-86z" />
    <glyph glyph-name="Idieresis" unicode="&#xcf;" horiz-adv-x="278" 
d="M12 755v73h80v-73h-80zM185 755v73h80v-73h-80zM96 0v700h86v-700h-86z" />
    <glyph glyph-name="Eth" unicode="&#xd0;" horiz-adv-x="758" 
d="M359 700q74 0 139 -27t113 -75t74 -112.5t26 -135.5q0 -72 -27.5 -136.5t-76.5 -112.5t-114 -74.5t-135 -26.5h-262v288h-84v68h84v193h85v-193h125v-68h-125v-214h177q56 1 105.5 22.5t86.5 59.5t57 88.5t20 105.5q0 58 -21 109t-58.5 88.5t-86.5 58t-102 20.5h-263v74
h263z" />
    <glyph glyph-name="Ntilde" unicode="&#xd1;" horiz-adv-x="751" 
d="M317 776q-22 0 -36 -12.5t-14 -28.5h-53q0 36 16.5 60t38 31.5t38.5 7.5q20 0 38 -5.5t48.5 -20.5t47.5 -15q19 0 30.5 11t11.5 30h53q0 -24 -9 -48t-31 -37.5t-47 -13.5q-33 0 -68 18t-46.5 20.5t-17.5 2.5zM569 700h86v-700h-86v323l-387 251v-574h-86v704h39l434 -283
v279z" />
    <glyph glyph-name="Ograve" unicode="&#xd2;" horiz-adv-x="805" 
d="M408 734l-167 119h103l137 -119h-73zM402 -6q-74 0 -139.5 26.5t-113.5 74.5t-74.5 114t-26.5 141q0 76 26.5 142t74.5 114t113.5 74.5t139.5 26.5t139.5 -26.5t114 -74.5t75 -114t26.5 -142q0 -75 -26.5 -141t-75 -114t-114 -74.5t-139.5 -26.5zM402 71q57 0 106.5 20.5
t85.5 58t56 89t20 111.5t-20 112t-56 89.5t-85.5 58t-106.5 20.5q-56 0 -105.5 -20.5t-85.5 -58t-56 -89.5t-20 -112t20 -111.5t56 -89t85.5 -58t105.5 -20.5z" />
    <glyph glyph-name="Oacute" unicode="&#xd3;" horiz-adv-x="805" 
d="M323 734l131 119h109l-167 -119h-73zM402 -6q-74 0 -139.5 26.5t-113.5 74.5t-74.5 114t-26.5 141q0 76 26.5 142t74.5 114t113.5 74.5t139.5 26.5t139.5 -26.5t114 -74.5t75 -114t26.5 -142q0 -75 -26.5 -141t-75 -114t-114 -74.5t-139.5 -26.5zM402 71q57 0 106.5 20.5
t85.5 58t56 89t20 111.5t-20 112t-56 89.5t-85.5 58t-106.5 20.5q-56 0 -105.5 -20.5t-85.5 -58t-56 -89.5t-20 -112t20 -111.5t56 -89t85.5 -58t105.5 -20.5z" />
    <glyph glyph-name="Ocircumflex" unicode="&#xd4;" horiz-adv-x="805" 
d="M248 731l114 124h77l113 -124h-69l-84 79l-84 -79h-67zM402 -6q-74 0 -139.5 26.5t-113.5 74.5t-74.5 114t-26.5 141q0 76 26.5 142t74.5 114t113.5 74.5t139.5 26.5t139.5 -26.5t114 -74.5t75 -114t26.5 -142q0 -75 -26.5 -141t-75 -114t-114 -74.5t-139.5 -26.5z
M402 71q57 0 106.5 20.5t85.5 58t56 89t20 111.5t-20 112t-56 89.5t-85.5 58t-106.5 20.5q-56 0 -105.5 -20.5t-85.5 -58t-56 -89.5t-20 -112t20 -111.5t56 -89t85.5 -58t105.5 -20.5z" />
    <glyph glyph-name="Otilde" unicode="&#xd5;" horiz-adv-x="805" 
d="M238 735q0 36 16.5 60t38 31.5t38.5 7.5q20 0 38 -5.5t48.5 -20.5t47.5 -15q19 0 30.5 11t11.5 30h53q0 -24 -9 -48t-31 -37.5t-47 -13.5q-33 0 -68 18t-46.5 20.5t-17.5 2.5q-22 0 -36 -12.5t-14 -28.5h-53zM402 -6q-74 0 -139.5 26.5t-113.5 74.5t-74.5 114t-26.5 141
q0 76 26.5 142t74.5 114t113.5 74.5t139.5 26.5t139.5 -26.5t114 -74.5t75 -114t26.5 -142q0 -75 -26.5 -141t-75 -114t-114 -74.5t-139.5 -26.5zM402 71q57 0 106.5 20.5t85.5 58t56 89t20 111.5t-20 112t-56 89.5t-85.5 58t-106.5 20.5q-56 0 -105.5 -20.5t-85.5 -58
t-56 -89.5t-20 -112t20 -111.5t56 -89t85.5 -58t105.5 -20.5z" />
    <glyph glyph-name="Odieresis" unicode="&#xd6;" horiz-adv-x="805" 
d="M273 755v73h80v-73h-80zM446 755v73h80v-73h-80zM402 -6q-74 0 -139.5 26.5t-113.5 74.5t-74.5 114t-26.5 141q0 76 26.5 142t74.5 114t113.5 74.5t139.5 26.5t139.5 -26.5t114 -74.5t75 -114t26.5 -142q0 -75 -26.5 -141t-75 -114t-114 -74.5t-139.5 -26.5zM402 71
q57 0 106.5 20.5t85.5 58t56 89t20 111.5t-20 112t-56 89.5t-85.5 58t-106.5 20.5q-56 0 -105.5 -20.5t-85.5 -58t-56 -89.5t-20 -112t20 -111.5t56 -89t85.5 -58t105.5 -20.5z" />
    <glyph glyph-name="multiply" unicode="&#xd7;" horiz-adv-x="529" 
d="M105 50l-50 49l159 158l-159 159l54 53l158 -159l158 159l49 -49l-158 -159l159 -159l-54 -52l-158 158z" />
    <glyph glyph-name="Oslash" unicode="&#xd8;" horiz-adv-x="807" 
d="M403 -7q-69 1 -129.5 22t-106.5 60l-32 -31l-45 47l32 31q-35 45 -54.5 103.5t-19.5 124.5q0 36 8.5 82t32.5 92t59.5 82t81 59.5t91.5 32.5t82 9q66 0 126 -21t106 -58l36 35l46 -47l-35 -34q37 -46 57 -105.5t20 -126.5q0 -76 -26 -142t-74.5 -114.5t-114.5 -74.5
t-141 -26zM185 183l391 388q-73 60 -173 60q-57 0 -107 -20.5t-86.5 -58.5t-56.5 -90t-20 -112q0 -96 52 -167zM403 70q58 0 108 20.5t86.5 58t56.5 89.5t20 112q0 99 -54 172l-394 -389q74 -63 177 -63z" />
    <glyph glyph-name="Ugrave" unicode="&#xd9;" horiz-adv-x="727" 
d="M372 734l-167 119h103l137 -119h-73zM364 -6q-60 0 -111.5 20.5t-88.5 59t-57.5 93t-20.5 119.5v414h87v-420q0 -35 10.5 -71.5t34.5 -67.5t62 -51t85 -20q27 0 58 9.5t64 37.5t50 72t17 91v420h87v-414q0 -65 -20 -119.5t-57.5 -93t-88.5 -59t-111 -20.5z" />
    <glyph glyph-name="Uacute" unicode="&#xda;" horiz-adv-x="727" 
d="M287 734l131 119h109l-167 -119h-73zM364 -6q-60 0 -111.5 20.5t-88.5 59t-57.5 93t-20.5 119.5v414h87v-420q0 -35 10.5 -71.5t34.5 -67.5t62 -51t85 -20q27 0 58 9.5t64 37.5t50 72t17 91v420h87v-414q0 -65 -20 -119.5t-57.5 -93t-88.5 -59t-111 -20.5z" />
    <glyph glyph-name="Ucircumflex" unicode="&#xdb;" horiz-adv-x="727" 
d="M212 731l114 124h77l113 -124h-69l-84 79l-84 -79h-67zM364 -6q-60 0 -111.5 20.5t-88.5 59t-57.5 93t-20.5 119.5v414h87v-420q0 -35 10.5 -71.5t34.5 -67.5t62 -51t85 -20q27 0 58 9.5t64 37.5t50 72t17 91v420h87v-414q0 -65 -20 -119.5t-57.5 -93t-88.5 -59
t-111 -20.5z" />
    <glyph glyph-name="Udieresis" unicode="&#xdc;" horiz-adv-x="727" 
d="M237 755v73h80v-73h-80zM410 755v73h80v-73h-80zM364 -6q-60 0 -111.5 20.5t-88.5 59t-57.5 93t-20.5 119.5v414h87v-420q0 -35 10.5 -71.5t34.5 -67.5t62 -51t85 -20q27 0 58 9.5t64 37.5t50 72t17 91v420h87v-414q0 -65 -20 -119.5t-57.5 -93t-88.5 -59t-111 -20.5z
" />
    <glyph glyph-name="Yacute" unicode="&#xdd;" horiz-adv-x="625" 
d="M241 734l131 119h109l-167 -119h-73zM255 374l-263 326h109l205 -248zM92 0l453 700h97l-453 -700h-97z" />
    <glyph glyph-name="Thorn" unicode="&#xde;" horiz-adv-x="672" 
d="M96 0v735h84v-81h168q62 0 115.5 -20.5t91 -57.5t58 -87t20.5 -108q0 -54 -21.5 -104.5t-60 -89t-90 -60.5t-108.5 -23h-95v75h86q30 0 65 10.5t70 38.5t53.5 69t18.5 82q0 40 -15 77t-42.5 64.5t-66.5 43t-83 15.5h-164v-579h-84z" />
    <glyph glyph-name="germandbls" unicode="&#xdf;" horiz-adv-x="654" 
d="M390 -4q-54 0 -97.5 18t-66.5 51l42 57q17 -25 48.5 -39t68.5 -14q66 0 103.5 39.5t37.5 104.5q0 68 -43.5 112.5t-123.5 56.5l-5 20q15 25 23.5 56t8.5 59q0 38 -17 64t-43.5 35t-50.5 9q-38 0 -65 -19.5t-36.5 -48t-9.5 -54.5v-503h-87v493q0 49 15 88.5t42 65.5
t64.5 39.5t80.5 13.5q86 0 138 -45t52 -126q0 -51 -27 -95q75 -17 122 -73.5t47 -145.5q0 -48 -15 -88.5t-43.5 -69.5t-70 -45t-92.5 -16z" />
    <glyph glyph-name="agrave" unicode="&#xe0;" horiz-adv-x="647" 
d="M323 577l-149 144h102l110 -144h-63zM302 -6q-56 0 -104 19.5t-82.5 54.5t-53 82t-18.5 99q0 54 19 101.5t54 83t83.5 55t103.5 19.5q81 0 140 -45l-24 -65q-24 19 -54 28t-59 9t-61 -9.5t-59 -32t-45.5 -59t-18.5 -84.5q0 -79 51.5 -131.5t130.5 -52.5t131.5 47.5
t52.5 123.5v264h81v-501h-78v91q-24 -44 -74.5 -70.5t-115.5 -26.5z" />
    <glyph glyph-name="aacute" unicode="&#xe1;" horiz-adv-x="647" 
d="M238 577l111 144h104l-150 -144h-65zM302 -6q-56 0 -104 19.5t-82.5 54.5t-53 82t-18.5 99q0 54 19 101.5t54 83t83.5 55t103.5 19.5q81 0 140 -45l-24 -65q-24 19 -54 28t-59 9t-61 -9.5t-59 -32t-45.5 -59t-18.5 -84.5q0 -79 51.5 -131.5t130.5 -52.5t131.5 47.5
t52.5 123.5v264h81v-501h-78v91q-24 -44 -74.5 -70.5t-115.5 -26.5z" />
    <glyph glyph-name="acircumflex" unicode="&#xe2;" horiz-adv-x="647" 
d="M172 581l108 132h82l107 -132h-71l-78 86l-77 -86h-71zM302 -6q-56 0 -104 19.5t-82.5 54.5t-53 82t-18.5 99q0 54 19 101.5t54 83t83.5 55t103.5 19.5q81 0 140 -45l-24 -65q-24 19 -54 28t-59 9t-61 -9.5t-59 -32t-45.5 -59t-18.5 -84.5q0 -79 51.5 -131.5t130.5 -52.5
t131.5 47.5t52.5 123.5v264h81v-501h-78v91q-24 -44 -74.5 -70.5t-115.5 -26.5z" />
    <glyph glyph-name="atilde" unicode="&#xe3;" horiz-adv-x="647" 
d="M162 605q0 23 9 47t31.5 38t49.5 14q33 0 73 -19.5t57 -19.5q18 0 29 10t11 29h56q0 -24 -9.5 -47.5t-32 -37.5t-46.5 -14q-20 0 -36.5 5t-45 19.5t-46.5 14.5q-22 0 -34.5 -12t-12.5 -27h-53zM302 -6q-56 0 -104 19.5t-82.5 54.5t-53 82t-18.5 99q0 54 19 101.5t54 83
t83.5 55t103.5 19.5q81 0 140 -45l-24 -65q-24 19 -54 28t-59 9t-61 -9.5t-59 -32t-45.5 -59t-18.5 -84.5q0 -79 51.5 -131.5t130.5 -52.5t131.5 47.5t52.5 123.5v264h81v-501h-78v91q-24 -44 -74.5 -70.5t-115.5 -26.5z" />
    <glyph glyph-name="adieresis" unicode="&#xe4;" horiz-adv-x="647" 
d="M199 611v74h79v-74h-79zM362 611v74h80v-74h-80zM302 -6q-56 0 -104 19.5t-82.5 54.5t-53 82t-18.5 99q0 54 19 101.5t54 83t83.5 55t103.5 19.5q81 0 140 -45l-24 -65q-24 19 -54 28t-59 9t-61 -9.5t-59 -32t-45.5 -59t-18.5 -84.5q0 -79 51.5 -131.5t130.5 -52.5
t131.5 47.5t52.5 123.5v264h81v-501h-78v91q-24 -44 -74.5 -70.5t-115.5 -26.5z" />
    <glyph glyph-name="aring" unicode="&#xe5;" horiz-adv-x="647" 
d="M319 557q-19 0 -43 9.5t-41 33.5t-17 55q0 19 10 42.5t35.5 40t55.5 16.5q19 0 42.5 -9.5t41 -34.5t17.5 -55t-17.5 -54.5t-41 -34t-42.5 -9.5zM319 607q20 0 33.5 13.5t13.5 34.5q0 20 -14 34t-33 14t-33 -14t-14 -34q0 -21 13.5 -34.5t33.5 -13.5zM302 -6
q-56 0 -104 19.5t-82.5 54.5t-53 82t-18.5 99q0 54 19 101.5t54 83t83.5 55t103.5 19.5q81 0 140 -45l-24 -65q-24 19 -54 28t-59 9t-61 -9.5t-59 -32t-45.5 -59t-18.5 -84.5q0 -79 51.5 -131.5t130.5 -52.5t131.5 47.5t52.5 123.5v264h81v-501h-78v91q-24 -44 -74.5 -70.5
t-115.5 -26.5z" />
    <glyph glyph-name="ae" unicode="&#xe6;" horiz-adv-x="977" 
d="M891 129l56 -49q-35 -40 -85.5 -63t-111.5 -23q-60 0 -112.5 25t-87.5 66v-85h-58v97q-11 -22 -35 -46.5t-65.5 -40.5t-89.5 -16q-56 0 -104.5 19.5t-82.5 54.5t-52.5 82t-18.5 99q0 54 19 101.5t54 83t83.5 55t103.5 19.5q82 0 140 -45l-24 -65q-26 20 -56 29t-59 9
t-64.5 -11t-63.5 -39.5t-41 -63t-13 -72.5q0 -78 51.5 -131t130.5 -53q82 0 132.5 49t50.5 135q0 54 19 102t54 83t83.5 54t104.5 19q53 0 101 -19.5t85 -55.5l-211 -270l-54 41l167 209q-17 11 -40.5 17.5t-46.5 6.5q-39 0 -69 -12.5t-53 -32.5t-41.5 -56.5t-18.5 -85.5
q0 -79 51.5 -132t130.5 -53q43 0 79.5 17t61.5 47z" />
    <glyph glyph-name="ccedilla" unicode="&#xe7;" horiz-adv-x="536" 
d="M501 85q-14 -18 -37.5 -37.5t-57 -33.5t-70.5 -18l-18 -37q45 -1 68.5 -22t23.5 -53q0 -19 -8 -35t-22.5 -27.5t-44.5 -20.5t-78 -9v45q81 0 81 44q0 19 -16 27.5t-52 8.5l-16 22l28 56q-51 4 -95 24.5t-76.5 54.5t-50 79.5t-17.5 95.5q0 55 20 103t55.5 83t84 54
t102.5 19q59 0 109.5 -24t85.5 -67l-62 -43q-25 30 -60 46t-74 16q-47 0 -91 -23.5t-67.5 -68t-23.5 -93.5q0 -40 12.5 -70.5t32.5 -54t56 -42t81 -18.5q83 0 135 61z" />
    <glyph glyph-name="egrave" unicode="&#xe8;" horiz-adv-x="532" 
d="M294 577l-149 144h102l110 -144h-63zM305 -6q-57 0 -105.5 19.5t-83 54t-53.5 82t-19 100.5t19 100.5t53.5 82.5t83 55t104.5 20q55 0 103 -19.5t83 -55.5l-211 -270l-54 41l168 209q-17 11 -41 17.5t-47 6.5q-38 0 -72 -14t-58.5 -39.5t-38 -60t-13.5 -73.5
q0 -79 51.5 -132t130.5 -53q43 0 79.5 17t61.5 47l56 -49q-35 -40 -85.5 -63t-111.5 -23z" />
    <glyph glyph-name="eacute" unicode="&#xe9;" horiz-adv-x="532" 
d="M209 577l111 144h104l-150 -144h-65zM305 -6q-57 0 -105.5 19.5t-83 54t-53.5 82t-19 100.5t19 100.5t53.5 82.5t83 55t104.5 20q55 0 103 -19.5t83 -55.5l-211 -270l-54 41l168 209q-17 11 -41 17.5t-47 6.5q-38 0 -72 -14t-58.5 -39.5t-38 -60t-13.5 -73.5
q0 -79 51.5 -132t130.5 -53q43 0 79.5 17t61.5 47l56 -49q-35 -40 -85.5 -63t-111.5 -23z" />
    <glyph glyph-name="ecircumflex" unicode="&#xea;" horiz-adv-x="532" 
d="M143 581l108 132h82l107 -132h-71l-78 86l-77 -86h-71zM305 -6q-57 0 -105.5 19.5t-83 54t-53.5 82t-19 100.5t19 100.5t53.5 82.5t83 55t104.5 20q55 0 103 -19.5t83 -55.5l-211 -270l-54 41l168 209q-17 11 -41 17.5t-47 6.5q-38 0 -72 -14t-58.5 -39.5t-38 -60
t-13.5 -73.5q0 -79 51.5 -132t130.5 -53q43 0 79.5 17t61.5 47l56 -49q-35 -40 -85.5 -63t-111.5 -23z" />
    <glyph glyph-name="edieresis" unicode="&#xeb;" horiz-adv-x="532" 
d="M170 611v74h79v-74h-79zM333 611v74h80v-74h-80zM305 -6q-57 0 -105.5 19.5t-83 54t-53.5 82t-19 100.5t19 100.5t53.5 82.5t83 55t104.5 20q55 0 103 -19.5t83 -55.5l-211 -270l-54 41l168 209q-17 11 -41 17.5t-47 6.5q-38 0 -72 -14t-58.5 -39.5t-38 -60t-13.5 -73.5
q0 -79 51.5 -132t130.5 -53q43 0 79.5 17t61.5 47l56 -49q-35 -40 -85.5 -63t-111.5 -23z" />
    <glyph glyph-name="igrave" unicode="&#xec;" horiz-adv-x="236" 
d="M121 578l-149 144h102l110 -144h-63zM77 0v501h82v-501h-82z" />
    <glyph glyph-name="iacute" unicode="&#xed;" horiz-adv-x="236" 
d="M46 578l111 144h104l-150 -144h-65zM77 0v501h82v-501h-82z" />
    <glyph glyph-name="icircumflex" unicode="&#xee;" horiz-adv-x="236" 
d="M-30 582l108 132h82l107 -132h-71l-78 86l-77 -86h-71zM77 0v501h82v-501h-82z" />
    <glyph glyph-name="idieresis" unicode="&#xef;" horiz-adv-x="236" 
d="M-3 612v74h79v-74h-79zM160 612v74h80v-74h-80zM77 0v501h82v-501h-82z" />
    <glyph glyph-name="eth" unicode="&#xf0;" horiz-adv-x="618" 
d="M455 646q55 -67 79.5 -171.5t24.5 -221.5q0 -54 -19 -102t-53.5 -83t-82 -54.5t-102.5 -19.5t-103 19t-82.5 53.5t-53.5 81t-19 98.5t18.5 98.5t52 81t80.5 54t101 19.5t102 -22t84 -59q-22 118 -72 180l-66 -70l-46 40l68 72q-52 37 -128 37v69q103 -1 174 -57l54 58
l46 -40zM303 66q78 0 128.5 51.5t50.5 129.5q0 28 -8.5 58.5t-30 57.5t-57 45.5t-83.5 18.5q-79 0 -129.5 -51t-50.5 -129q0 -28 8.5 -58.5t30 -57.5t57 -46t84.5 -19z" />
    <glyph glyph-name="ntilde" unicode="&#xf1;" horiz-adv-x="610" 
d="M154 606q0 23 9 47t31.5 38t49.5 14q33 0 73 -19.5t57 -19.5q18 0 29 10t11 29h56q0 -24 -9.5 -47.5t-32 -37.5t-46.5 -14q-20 0 -36.5 5t-45 19.5t-46.5 14.5q-22 0 -34.5 -12t-12.5 -27h-53zM77 0v501h80v-91q17 32 47.5 57t66.5 35t67 10q92 0 146.5 -57t54.5 -158
v-297h-81v290q0 68 -39 108.5t-101 40.5q-69 0 -114 -44t-45 -115v-280h-82z" />
    <glyph glyph-name="ograve" unicode="&#xf2;" horiz-adv-x="604" 
d="M305 577l-149 144h102l110 -144h-63zM302 -6q-55 0 -103 19.5t-82.5 54t-53.5 81.5t-19 100q0 39 12.5 83t48 87.5t89 66t108.5 22.5t103 -19.5t83 -55t54 -83t19 -100.5t-19 -100t-54 -82t-83 -54.5t-103 -19.5zM302 66q79 0 130.5 52.5t51.5 132.5t-51.5 132.5
t-130.5 52.5q-78 0 -130 -52.5t-52 -132.5t52 -132.5t130 -52.5z" />
    <glyph glyph-name="oacute" unicode="&#xf3;" horiz-adv-x="604" 
d="M220 577l111 144h104l-150 -144h-65zM302 -6q-55 0 -103 19.5t-82.5 54t-53.5 81.5t-19 100q0 39 12.5 83t48 87.5t89 66t108.5 22.5t103 -19.5t83 -55t54 -83t19 -100.5t-19 -100t-54 -82t-83 -54.5t-103 -19.5zM302 66q79 0 130.5 52.5t51.5 132.5t-51.5 132.5
t-130.5 52.5q-78 0 -130 -52.5t-52 -132.5t52 -132.5t130 -52.5z" />
    <glyph glyph-name="ocircumflex" unicode="&#xf4;" horiz-adv-x="604" 
d="M154 581l108 132h82l107 -132h-71l-78 86l-77 -86h-71zM302 -6q-55 0 -103 19.5t-82.5 54t-53.5 81.5t-19 100q0 39 12.5 83t48 87.5t89 66t108.5 22.5t103 -19.5t83 -55t54 -83t19 -100.5t-19 -100t-54 -82t-83 -54.5t-103 -19.5zM302 66q79 0 130.5 52.5t51.5 132.5
t-51.5 132.5t-130.5 52.5q-78 0 -130 -52.5t-52 -132.5t52 -132.5t130 -52.5z" />
    <glyph glyph-name="otilde" unicode="&#xf5;" horiz-adv-x="604" 
d="M144 605q0 23 9 47t31.5 38t49.5 14q33 0 73 -19.5t57 -19.5q18 0 29 10t11 29h56q0 -24 -9.5 -47.5t-32 -37.5t-46.5 -14q-20 0 -36.5 5t-45 19.5t-46.5 14.5q-22 0 -34.5 -12t-12.5 -27h-53zM302 -6q-55 0 -103 19.5t-82.5 54t-53.5 81.5t-19 100q0 39 12.5 83t48 87.5
t89 66t108.5 22.5t103 -19.5t83 -55t54 -83t19 -100.5t-19 -100t-54 -82t-83 -54.5t-103 -19.5zM302 66q79 0 130.5 52.5t51.5 132.5t-51.5 132.5t-130.5 52.5q-78 0 -130 -52.5t-52 -132.5t52 -132.5t130 -52.5z" />
    <glyph glyph-name="odieresis" unicode="&#xf6;" horiz-adv-x="604" 
d="M181 611v74h79v-74h-79zM344 611v74h80v-74h-80zM302 -6q-55 0 -103 19.5t-82.5 54t-53.5 81.5t-19 100q0 39 12.5 83t48 87.5t89 66t108.5 22.5t103 -19.5t83 -55t54 -83t19 -100.5t-19 -100t-54 -82t-83 -54.5t-103 -19.5zM302 66q79 0 130.5 52.5t51.5 132.5
t-51.5 132.5t-130.5 52.5q-78 0 -130 -52.5t-52 -132.5t52 -132.5t130 -52.5z" />
    <glyph glyph-name="divide" unicode="&#xf7;" horiz-adv-x="594" 
d="M530 294v-70h-197v-46h-72v46h-197v70h197v46h72v-46h197z" />
    <glyph glyph-name="oslash" unicode="&#xf8;" horiz-adv-x="604" 
d="M508 411q53 -69 53 -161q0 -53 -19 -100t-54 -82t-83 -54.5t-103 -19.5q-93 0 -162 52l-45 -45l-44 47l44 44q-24 31 -37.5 72t-13.5 85q0 39 12.5 83t48 87.5t89 66t108.5 22.5q93 0 161 -52l44 44l45 -46zM120 251q0 -28 8 -56t22 -49l260 257q-21 15 -50.5 24t-57.5 9
q-78 0 -130 -52.5t-52 -132.5zM302 66q79 0 130.5 52.5t51.5 132.5q0 28 -8 56.5t-22 49.5l-260 -258q21 -15 50.5 -24t57.5 -9z" />
    <glyph glyph-name="ugrave" unicode="&#xf9;" horiz-adv-x="598" 
d="M301 577l-149 144h102l110 -144h-63zM277 -8q-95 0 -150.5 55.5t-55.5 153.5v300h81v-289q0 -51 24 -86.5t57.5 -48t59.5 -12.5q61 0 103.5 43t42.5 103v290h82v-505h-80v89q-60 -93 -164 -93z" />
    <glyph glyph-name="uacute" unicode="&#xfa;" horiz-adv-x="598" 
d="M216 577l111 144h104l-150 -144h-65zM277 -8q-95 0 -150.5 55.5t-55.5 153.5v300h81v-289q0 -51 24 -86.5t57.5 -48t59.5 -12.5q61 0 103.5 43t42.5 103v290h82v-505h-80v89q-60 -93 -164 -93z" />
    <glyph glyph-name="ucircumflex" unicode="&#xfb;" horiz-adv-x="598" 
d="M150 581l108 132h82l107 -132h-71l-78 86l-77 -86h-71zM277 -8q-95 0 -150.5 55.5t-55.5 153.5v300h81v-289q0 -51 24 -86.5t57.5 -48t59.5 -12.5q61 0 103.5 43t42.5 103v290h82v-505h-80v89q-60 -93 -164 -93z" />
    <glyph glyph-name="udieresis" unicode="&#xfc;" horiz-adv-x="598" 
d="M177 611v74h79v-74h-79zM340 611v74h80v-74h-80zM277 -8q-95 0 -150.5 55.5t-55.5 153.5v300h81v-289q0 -51 24 -86.5t57.5 -48t59.5 -12.5q61 0 103.5 43t42.5 103v290h82v-505h-80v89q-60 -93 -164 -93z" />
    <glyph glyph-name="yacute" unicode="&#xfd;" horiz-adv-x="537" 
d="M190 577l111 144h104l-150 -144h-65zM205 150l-203 351h97l151 -263zM86 -209l361 710h90l-361 -710h-90z" />
    <glyph glyph-name="thorn" unicode="&#xfe;" horiz-adv-x="641" 
d="M77 -210v925h82v-304q29 45 77.5 71.5t110.5 26.5q51 0 97.5 -20t81 -55t53.5 -82.5t19 -99.5t-19 -99t-53.5 -83t-80.5 -56t-97 -20q-59 0 -108 24.5t-81 69.5v-298h-82zM337 67q47 0 90.5 23.5t67 68t23.5 93.5q0 27 -10.5 62t-38 64t-61 43.5t-71.5 14.5
q-27 0 -57 -9.5t-57 -32t-46.5 -59t-19.5 -83.5q0 -27 9 -58t33.5 -62.5t62 -48t75.5 -16.5z" />
    <glyph glyph-name="ydieresis" unicode="&#xff;" horiz-adv-x="537" 
d="M151 611v74h79v-74h-79zM314 611v74h80v-74h-80zM205 150l-203 351h97l151 -263zM86 -209l361 710h90l-361 -710h-90z" />
    <glyph glyph-name="Amacron" unicode="&#x100;" horiz-adv-x="690" 
d="M454 809h221v-52h-221v52zM-40 0l586 704h49v-704h-87v537l-274 -328h198v-72h-258l-114 -137h-100z" />
    <glyph glyph-name="amacron" unicode="&#x101;" horiz-adv-x="647" 
d="M205 631v55h230v-55h-230zM302 -6q-56 0 -104 19.5t-82.5 54.5t-53 82t-18.5 99q0 54 19 101.5t54 83t83.5 55t103.5 19.5q81 0 140 -45l-24 -65q-24 19 -54 28t-59 9t-61 -9.5t-59 -32t-45.5 -59t-18.5 -84.5q0 -79 51.5 -131.5t130.5 -52.5t131.5 47.5t52.5 123.5v264
h81v-501h-78v91q-24 -44 -74.5 -70.5t-115.5 -26.5z" />
    <glyph glyph-name="Abreve" unicode="&#x102;" horiz-adv-x="690" 
d="M650 850h56q0 -23 -13 -50t-48 -46.5t-80 -19.5q-30 0 -64 11t-56.5 39.5t-22.5 65.5h57q5 -30 27.5 -48t58.5 -18q35 0 58.5 17.5t26.5 48.5zM-40 0l586 704h49v-704h-87v537l-274 -328h198v-72h-258l-114 -137h-100z" />
    <glyph glyph-name="abreve" unicode="&#x103;" horiz-adv-x="647" 
d="M320 586q-24 0 -49 6.5t-47.5 23.5t-34 43.5t-11.5 51.5h60q4 -33 25.5 -52t56.5 -19q24 0 43.5 11t28 28t10.5 32h58q0 -24 -12.5 -53t-46 -50.5t-81.5 -21.5zM302 -6q-56 0 -104 19.5t-82.5 54.5t-53 82t-18.5 99q0 54 19 101.5t54 83t83.5 55t103.5 19.5q81 0 140 -45
l-24 -65q-24 19 -54 28t-59 9t-61 -9.5t-59 -32t-45.5 -59t-18.5 -84.5q0 -79 51.5 -131.5t130.5 -52.5t131.5 47.5t52.5 123.5v264h81v-501h-78v91q-24 -44 -74.5 -70.5t-115.5 -26.5z" />
    <glyph glyph-name="Aogonek" unicode="&#x104;" horiz-adv-x="690" 
d="M546 704h49v-704h-4q-22 -7 -44.5 -25t-32.5 -38t-10 -35q0 -23 12.5 -35.5t35.5 -12.5q20 0 38 10v-49q-23 -15 -60 -15q-42 0 -68.5 21.5t-26.5 59.5t26 70.5t63 48.5h-16v537l-274 -328h198v-72h-258l-114 -137h-100z" />
    <glyph glyph-name="aogonek" unicode="&#x105;" horiz-adv-x="647" 
d="M552 0q-21 -9 -41.5 -26.5t-29 -36t-8.5 -32.5q0 -23 12.5 -35.5t35.5 -12.5q20 0 38 10v-49q-23 -15 -60 -15q-42 0 -68.5 21.5t-26.5 59.5t25.5 71t62.5 48v88q-24 -44 -74.5 -70.5t-115.5 -26.5q-56 0 -104 19.5t-82.5 54.5t-53 82t-18.5 99q0 54 19 101.5t54 83
t83.5 55t103.5 19.5q81 0 140 -45l-24 -65q-24 19 -54 28t-59 9t-61 -9.5t-59 -32t-45.5 -59t-18.5 -84.5q0 -79 51.5 -131.5t130.5 -52.5t131.5 47.5t52.5 123.5v264h81v-501h-18z" />
    <glyph glyph-name="Cacute" unicode="&#x106;" horiz-adv-x="701" 
d="M326 734l131 119h109l-167 -119h-73zM407 -8q-77 0 -143.5 26.5t-115 74.5t-74.5 114t-26 140q0 77 26.5 144t74.5 115.5t115 75t143 26.5q85 0 148 -26.5t113 -77.5l-60 -56q-37 40 -89 62t-113 22q-58 0 -108.5 -20.5t-87 -58.5t-57 -90.5t-20.5 -113.5
q0 -60 20.5 -112.5t57.5 -89.5t88 -57.5t109 -20.5q59 0 111.5 21.5t90.5 60.5l53 -56q-47 -49 -113.5 -76t-142.5 -27z" />
    <glyph glyph-name="cacute" unicode="&#x107;" horiz-adv-x="536" 
d="M205 578l111 144h104l-150 -144h-65zM305 -6q-55 0 -103.5 19t-84 54t-55 82t-19.5 100q0 55 20 103t55.5 83t84 54t102.5 19q59 0 109.5 -24t85.5 -67l-62 -43q-25 30 -60 46t-74 16q-47 0 -91 -23.5t-67.5 -68t-23.5 -93.5q0 -40 12.5 -70.5t32.5 -54t56 -42t81 -18.5
q83 0 135 61l62 -42q-34 -43 -85.5 -67t-110.5 -24z" />
    <glyph glyph-name="Ccircumflex" unicode="&#x108;" horiz-adv-x="701" 
d="M251 731l114 124h77l113 -124h-69l-84 79l-84 -79h-67zM407 -8q-77 0 -143.5 26.5t-115 74.5t-74.5 114t-26 140q0 77 26.5 144t74.5 115.5t115 75t143 26.5q85 0 148 -26.5t113 -77.5l-60 -56q-37 40 -89 62t-113 22q-58 0 -108.5 -20.5t-87 -58.5t-57 -90.5
t-20.5 -113.5q0 -60 20.5 -112.5t57.5 -89.5t88 -57.5t109 -20.5q59 0 111.5 21.5t90.5 60.5l53 -56q-47 -49 -113.5 -76t-142.5 -27z" />
    <glyph glyph-name="ccircumflex" unicode="&#x109;" horiz-adv-x="536" 
d="M139 582l108 132h82l107 -132h-71l-78 86l-77 -86h-71zM305 -6q-55 0 -103.5 19t-84 54t-55 82t-19.5 100q0 55 20 103t55.5 83t84 54t102.5 19q59 0 109.5 -24t85.5 -67l-62 -43q-25 30 -60 46t-74 16q-47 0 -91 -23.5t-67.5 -68t-23.5 -93.5q0 -40 12.5 -70.5t32.5 -54
t56 -42t81 -18.5q83 0 135 61l62 -42q-34 -43 -85.5 -67t-110.5 -24z" />
    <glyph glyph-name="Cdotaccent" unicode="&#x10a;" horiz-adv-x="701" 
d="M361 760v75h82v-75h-82zM407 -8q-77 0 -143.5 26.5t-115 74.5t-74.5 114t-26 140q0 77 26.5 144t74.5 115.5t115 75t143 26.5q85 0 148 -26.5t113 -77.5l-60 -56q-37 40 -89 62t-113 22q-58 0 -108.5 -20.5t-87 -58.5t-57 -90.5t-20.5 -113.5q0 -60 20.5 -112.5
t57.5 -89.5t88 -57.5t109 -20.5q59 0 111.5 21.5t90.5 60.5l53 -56q-47 -49 -113.5 -76t-142.5 -27z" />
    <glyph glyph-name="cdotaccent" unicode="&#x10b;" horiz-adv-x="536" 
d="M239 608v87h96v-87h-96zM305 -6q-55 0 -103.5 19t-84 54t-55 82t-19.5 100q0 55 20 103t55.5 83t84 54t102.5 19q59 0 109.5 -24t85.5 -67l-62 -43q-25 30 -60 46t-74 16q-47 0 -91 -23.5t-67.5 -68t-23.5 -93.5q0 -40 12.5 -70.5t32.5 -54t56 -42t81 -18.5q83 0 135 61
l62 -42q-34 -43 -85.5 -67t-110.5 -24z" />
    <glyph glyph-name="Ccaron" unicode="&#x10c;" horiz-adv-x="701" 
d="M366 731l-114 124h69l83 -79l84 79h68l-114 -124h-76zM407 -8q-77 0 -143.5 26.5t-115 74.5t-74.5 114t-26 140q0 77 26.5 144t74.5 115.5t115 75t143 26.5q85 0 148 -26.5t113 -77.5l-60 -56q-37 40 -89 62t-113 22q-58 0 -108.5 -20.5t-87 -58.5t-57 -90.5
t-20.5 -113.5q0 -60 20.5 -112.5t57.5 -89.5t88 -57.5t109 -20.5q59 0 111.5 21.5t90.5 60.5l53 -56q-47 -49 -113.5 -76t-142.5 -27z" />
    <glyph glyph-name="ccaron" unicode="&#x10d;" horiz-adv-x="536" 
d="M245 581l-108 133h70l80 -82l82 82h69l-108 -133h-85zM305 -6q-55 0 -103.5 19t-84 54t-55 82t-19.5 100q0 55 20 103t55.5 83t84 54t102.5 19q59 0 109.5 -24t85.5 -67l-62 -43q-25 30 -60 46t-74 16q-47 0 -91 -23.5t-67.5 -68t-23.5 -93.5q0 -40 12.5 -70.5t32.5 -54
t56 -42t81 -18.5q83 0 135 61l62 -42q-34 -43 -85.5 -67t-110.5 -24z" />
    <glyph glyph-name="Dcaron" unicode="&#x10e;" horiz-adv-x="758" 
d="M336 731l-114 124h69l83 -79l84 79h68l-114 -124h-76zM96 0v549h85v-475h177q56 1 105.5 22.5t86.5 59.5t57 88.5t20 105.5q0 58 -21 109t-58.5 88.5t-86.5 58t-102 20.5h-263v74h263q74 0 139 -27t113 -75t74 -112.5t26 -135.5q0 -72 -27.5 -136.5t-76.5 -112.5
t-114 -74.5t-135 -26.5h-262z" />
    <glyph glyph-name="dcaron" unicode="&#x10f;" horiz-adv-x="647" 
d="M614 599l27 155h82l-52 -155h-57zM302 -6q-56 0 -104 19.5t-82.5 54.5t-53 82t-18.5 99q0 54 19 101.5t54 83t83.5 55t103.5 19.5q39 0 69 -8.5t59 -28.5l-23 -66q-15 13 -43 21.5t-60 8.5q-29 0 -60.5 -9.5t-58.5 -32t-45.5 -59t-18.5 -84.5q0 -79 51.5 -131.5
t130.5 -52.5q80 0 132 50t52 134v500h81v-750h-78v93q-18 -33 -51 -57t-70.5 -33t-68.5 -9z" />
    <glyph glyph-name="Dcroat" unicode="&#x110;" horiz-adv-x="758" 
d="M359 700q74 0 139 -27t113 -75t74 -112.5t26 -135.5q0 -72 -27.5 -136.5t-76.5 -112.5t-114 -74.5t-135 -26.5h-262v288h-84v68h84v193h85v-193h125v-68h-125v-214h177q56 1 105.5 22.5t86.5 59.5t57 88.5t20 105.5q0 58 -21 109t-58.5 88.5t-86.5 58t-102 20.5h-263v74
h263z" />
    <glyph glyph-name="dcroat" unicode="&#x111;" horiz-adv-x="647" 
d="M675 677v-68h-105v-609h-78v93q-18 -33 -51 -57t-70.5 -33t-68.5 -9q-56 0 -104 19.5t-82.5 54.5t-53 82t-18.5 99q0 54 19 101.5t54 83t83.5 55t103.5 19.5q39 0 69 -8.5t59 -28.5l-23 -66q-15 13 -43 21.5t-60 8.5q-29 0 -60.5 -9.5t-58.5 -32t-45.5 -59t-18.5 -84.5
q0 -79 51.5 -131.5t130.5 -52.5q80 0 132 50t52 134v359h-108v68h108v73h81v-73h105z" />
    <glyph glyph-name="Emacron" unicode="&#x112;" horiz-adv-x="616" 
d="M240 757v52h221v-52h-221zM96 0v700h475v-73h-389v-553h399v-74h-485zM260 330v73h213v-73h-213z" />
    <glyph glyph-name="emacron" unicode="&#x113;" horiz-adv-x="532" 
d="M176 631v55h230v-55h-230zM305 -6q-57 0 -105.5 19.5t-83 54t-53.5 82t-19 100.5t19 100.5t53.5 82.5t83 55t104.5 20q55 0 103 -19.5t83 -55.5l-211 -270l-54 41l168 209q-17 11 -41 17.5t-47 6.5q-38 0 -72 -14t-58.5 -39.5t-38 -60t-13.5 -73.5q0 -79 51.5 -132
t130.5 -53q43 0 79.5 17t61.5 47l56 -49q-35 -40 -85.5 -63t-111.5 -23z" />
    <glyph glyph-name="Ebreve" unicode="&#x114;" horiz-adv-x="616" 
d="M351 734q-30 0 -64 11t-56.5 39.5t-22.5 65.5h57q5 -30 27.5 -48t58.5 -18q35 0 58.5 17.5t26.5 48.5h56q0 -23 -13 -50t-48 -46.5t-80 -19.5zM96 0v700h475v-73h-389v-553h399v-74h-485zM260 330v73h213v-73h-213z" />
    <glyph glyph-name="ebreve" unicode="&#x115;" horiz-adv-x="532" 
d="M291 586q-24 0 -49 6.5t-47.5 23.5t-34 43.5t-11.5 51.5h60q4 -33 25.5 -52t56.5 -19q24 0 43.5 11t28 28t10.5 32h58q0 -24 -12.5 -53t-46 -50.5t-81.5 -21.5zM305 -6q-57 0 -105.5 19.5t-83 54t-53.5 82t-19 100.5t19 100.5t53.5 82.5t83 55t104.5 20q55 0 103 -19.5
t83 -55.5l-211 -270l-54 41l168 209q-17 11 -41 17.5t-47 6.5q-38 0 -72 -14t-58.5 -39.5t-38 -60t-13.5 -73.5q0 -79 51.5 -132t130.5 -53q43 0 79.5 17t61.5 47l56 -49q-35 -40 -85.5 -63t-111.5 -23z" />
    <glyph glyph-name="Edotaccent" unicode="&#x116;" horiz-adv-x="616" 
d="M309 760v75h82v-75h-82zM96 0v700h475v-73h-389v-553h399v-74h-485zM260 330v73h213v-73h-213z" />
    <glyph glyph-name="edotaccent" unicode="&#x117;" horiz-adv-x="532" 
d="M243 607v87h96v-87h-96zM305 -6q-57 0 -105.5 19.5t-83 54t-53.5 82t-19 100.5t19 100.5t53.5 82.5t83 55t104.5 20q55 0 103 -19.5t83 -55.5l-211 -270l-54 41l168 209q-17 11 -41 17.5t-47 6.5q-38 0 -72 -14t-58.5 -39.5t-38 -60t-13.5 -73.5q0 -79 51.5 -132
t130.5 -53q43 0 79.5 17t61.5 47l56 -49q-35 -40 -85.5 -63t-111.5 -23z" />
    <glyph glyph-name="Eogonek" unicode="&#x118;" horiz-adv-x="616" 
d="M581 0q-22 -7 -44.5 -25t-32.5 -38t-10 -35q0 -23 12.5 -35.5t35.5 -12.5q20 0 38 10v-49q-23 -15 -60 -15q-42 0 -68.5 21.5t-26.5 59.5t26 70.5t63 48.5h-418v700h475v-73h-389v-553h399v-74zM473 330h-213v73h213v-73z" />
    <glyph glyph-name="eogonek" unicode="&#x119;" horiz-adv-x="532" 
d="M492 69q-31 -31 -68 -49q-19 -24 -19 -49q0 -23 12.5 -35.5t35.5 -12.5q20 0 38 10v-49q-23 -15 -60 -15q-42 0 -68.5 21.5t-26.5 59.5q0 23 11 47q-21 -3 -42 -3q-57 0 -105.5 19.5t-83 54t-53.5 82t-19 100.5t19 100.5t53.5 82.5t83 55t104.5 20q55 0 103 -19.5
t83 -55.5l-211 -270l-54 41l168 209q-17 11 -41 17.5t-47 6.5q-38 0 -72 -14t-58.5 -39.5t-38 -60t-13.5 -73.5q0 -79 51.5 -132t130.5 -53q43 0 79.5 17t61.5 47l56 -49z" />
    <glyph glyph-name="Ecaron" unicode="&#x11a;" horiz-adv-x="616" 
d="M314 731l-114 124h69l83 -79l84 79h68l-114 -124h-76zM96 0v700h475v-73h-389v-553h399v-74h-485zM260 330v73h213v-73h-213z" />
    <glyph glyph-name="ecaron" unicode="&#x11b;" horiz-adv-x="532" 
d="M249 580l-108 133h70l80 -82l82 82h69l-108 -133h-85zM305 -6q-57 0 -105.5 19.5t-83 54t-53.5 82t-19 100.5t19 100.5t53.5 82.5t83 55t104.5 20q55 0 103 -19.5t83 -55.5l-211 -270l-54 41l168 209q-17 11 -41 17.5t-47 6.5q-38 0 -72 -14t-58.5 -39.5t-38 -60
t-13.5 -73.5q0 -79 51.5 -132t130.5 -53q43 0 79.5 17t61.5 47l56 -49q-35 -40 -85.5 -63t-111.5 -23z" />
    <glyph glyph-name="Gcircumflex" unicode="&#x11c;" horiz-adv-x="761" 
d="M238 731l114 124h77l113 -124h-69l-84 79l-84 -79h-67zM407 -8q-77 0 -143.5 25.5t-114.5 73t-74.5 113.5t-26.5 143t26.5 144t74.5 115.5t115 75t143 26.5q72 0 135 -23l-28 -73q-51 19 -106 19q-58 0 -108.5 -20.5t-87.5 -58.5t-57.5 -90.5t-20.5 -112.5t20.5 -112.5
t57.5 -89.5t88 -57.5t110 -20.5q60 0 116.5 24.5t87.5 68.5t33 90h-179v73h267q1 -28 -2 -59q-5 -59 -31.5 -110t-69.5 -87.5t-101 -56.5t-124 -20z" />
    <glyph glyph-name="gcircumflex" unicode="&#x11d;" horiz-adv-x="647" 
d="M163 581l108 132h82l107 -132h-71l-78 86l-77 -86h-71zM290 -222v73q41 0 78 14t64.5 40t42.5 60.5t15 73.5v53q-26 -45 -76 -71.5t-114 -26.5q-41 0 -85 13t-86.5 48.5t-63.5 88.5t-21 105q0 54 19 101.5t54 83t83 55t104 19.5q83 0 139 -46l-24 -65q-24 20 -54.5 29
t-58.5 9q-80 0 -131.5 -53t-51.5 -131q0 -28 8.5 -59.5t30 -59t57.5 -47t86 -19.5q48 0 92.5 20.5t68 58t23.5 76.5v280h81v-459q0 -52 -20 -100t-56.5 -84t-89 -57.5t-114.5 -22.5z" />
    <glyph glyph-name="Gbreve" unicode="&#x11e;" horiz-adv-x="761" 
d="M390 734q-30 0 -64 11t-56.5 39.5t-22.5 65.5h57q5 -30 27.5 -48t58.5 -18q35 0 58.5 17.5t26.5 48.5h56q0 -23 -13 -50t-48 -46.5t-80 -19.5zM407 -8q-77 0 -143.5 25.5t-114.5 73t-74.5 113.5t-26.5 143t26.5 144t74.5 115.5t115 75t143 26.5q72 0 135 -23l-28 -73
q-51 19 -106 19q-58 0 -108.5 -20.5t-87.5 -58.5t-57.5 -90.5t-20.5 -112.5t20.5 -112.5t57.5 -89.5t88 -57.5t110 -20.5q60 0 116.5 24.5t87.5 68.5t33 90h-179v73h267q1 -28 -2 -59q-5 -59 -31.5 -110t-69.5 -87.5t-101 -56.5t-124 -20z" />
    <glyph glyph-name="gbreve" unicode="&#x11f;" horiz-adv-x="647" 
d="M311 586q-24 0 -49 6.5t-47.5 23.5t-34 43.5t-11.5 51.5h60q4 -33 25.5 -52t56.5 -19q24 0 43.5 11t28 28t10.5 32h58q0 -24 -12.5 -53t-46 -50.5t-81.5 -21.5zM290 -222v73q41 0 78 14t64.5 40t42.5 60.5t15 73.5v53q-26 -45 -76 -71.5t-114 -26.5q-41 0 -85 13
t-86.5 48.5t-63.5 88.5t-21 105q0 54 19 101.5t54 83t83 55t104 19.5q83 0 139 -46l-24 -65q-24 20 -54.5 29t-58.5 9q-80 0 -131.5 -53t-51.5 -131q0 -28 8.5 -59.5t30 -59t57.5 -47t86 -19.5q48 0 92.5 20.5t68 58t23.5 76.5v280h81v-459q0 -52 -20 -100t-56.5 -84
t-89 -57.5t-114.5 -22.5z" />
    <glyph glyph-name="Gdotaccent" unicode="&#x120;" horiz-adv-x="761" 
d="M348 760v75h82v-75h-82zM407 -8q-77 0 -143.5 25.5t-114.5 73t-74.5 113.5t-26.5 143t26.5 144t74.5 115.5t115 75t143 26.5q72 0 135 -23l-28 -73q-51 19 -106 19q-58 0 -108.5 -20.5t-87.5 -58.5t-57.5 -90.5t-20.5 -112.5t20.5 -112.5t57.5 -89.5t88 -57.5t110 -20.5
q60 0 116.5 24.5t87.5 68.5t33 90h-179v73h267q1 -28 -2 -59q-5 -59 -31.5 -110t-69.5 -87.5t-101 -56.5t-124 -20z" />
    <glyph glyph-name="gdotaccent" unicode="&#x121;" horiz-adv-x="647" 
d="M263 607v87h96v-87h-96zM290 -222v73q41 0 78 14t64.5 40t42.5 60.5t15 73.5v53q-26 -45 -76 -71.5t-114 -26.5q-41 0 -85 13t-86.5 48.5t-63.5 88.5t-21 105q0 54 19 101.5t54 83t83 55t104 19.5q83 0 139 -46l-24 -65q-24 20 -54.5 29t-58.5 9q-80 0 -131.5 -53
t-51.5 -131q0 -28 8.5 -59.5t30 -59t57.5 -47t86 -19.5q48 0 92.5 20.5t68 58t23.5 76.5v280h81v-459q0 -52 -20 -100t-56.5 -84t-89 -57.5t-114.5 -22.5z" />
    <glyph glyph-name="Gcommaaccent" unicode="&#x122;" horiz-adv-x="761" 
d="M407 -8q-77 0 -143.5 25.5t-114.5 73t-74.5 113.5t-26.5 143t26.5 144t74.5 115.5t115 75t143 26.5q72 0 135 -23l-28 -73q-51 19 -106 19q-58 0 -108.5 -20.5t-87.5 -58.5t-57.5 -90.5t-20.5 -112.5t20.5 -112.5t57.5 -89.5t88 -57.5t110 -20.5q60 0 116.5 24.5
t87.5 68.5t33 90h-179v73h267q1 -28 -2 -59q-5 -59 -31.5 -110t-69.5 -87.5t-101 -56.5t-124 -20zM310 -197l32 158h79l-57 -158h-54z" />
    <glyph glyph-name="gcommaaccent" unicode="&#x123;" horiz-adv-x="647" 
d="M391 697l-32 -158h-79l57 158h54zM290 -222v73q41 0 78 14t64.5 40t42.5 60.5t15 73.5v53q-26 -45 -76 -71.5t-114 -26.5q-41 0 -85 13t-86.5 48.5t-63.5 88.5t-21 105q0 54 19 101.5t54 83t83 55t104 19.5q83 0 139 -46l-24 -65q-24 20 -54.5 29t-58.5 9
q-80 0 -131.5 -53t-51.5 -131q0 -28 8.5 -59.5t30 -59t57.5 -47t86 -19.5q48 0 92.5 20.5t68 58t23.5 76.5v280h81v-459q0 -52 -20 -100t-56.5 -84t-89 -57.5t-114.5 -22.5z" />
    <glyph glyph-name="Hcircumflex" unicode="&#x124;" horiz-adv-x="794" 
d="M245 731l114 124h77l113 -124h-69l-84 79l-84 -79h-67zM96 0v700h86v-473h352v-75h-352v-152h-86zM611 0v700h87v-700h-87z" />
    <glyph glyph-name="hcircumflex" unicode="&#x125;" horiz-adv-x="610" 
d="M-32 781l114 124h77l113 -124h-69l-84 79l-84 -79h-67zM77 0v750h80v-348q18 36 48 62.5t66 37t68 10.5q33 0 67.5 -9.5t67.5 -37.5t49 -73t16 -94v-298h-82v290q0 68 -38.5 108t-100.5 40q-67 0 -113 -47t-46 -113v-278h-82z" />
    <glyph glyph-name="Hbar" unicode="&#x126;" horiz-adv-x="794" 
d="M768 554v-68h-70v-486h-87v486h-429v-259h352v-75h-352v-152h-86v486h-71v68h71v146h86v-146h429v146h87v-146h70z" />
    <glyph glyph-name="hbar" unicode="&#x127;" horiz-adv-x="610" 
d="M339 512q33 0 67.5 -9.5t67.5 -37.5t49 -73t16 -94v-298h-82v290q0 68 -38.5 108t-100.5 40q-67 0 -113 -47t-46 -113v-278h-82v606h-90v68h90v76h80v-76h124v-68h-124v-204q18 36 48 62.5t66 37t68 10.5z" />
    <glyph glyph-name="Itilde" unicode="&#x128;" horiz-adv-x="278" 
d="M-23 735q0 36 16.5 60t38 31.5t38.5 7.5q20 0 38 -5.5t48.5 -20.5t47.5 -15q19 0 30.5 11t11.5 30h53q0 -24 -9 -48t-31 -37.5t-47 -13.5q-33 0 -68 18t-46.5 20.5t-17.5 2.5q-22 0 -36 -12.5t-14 -28.5h-53zM96 0v700h86v-700h-86z" />
    <glyph glyph-name="itilde" unicode="&#x129;" horiz-adv-x="236" 
d="M-18 606q0 23 8 47t27.5 38t42.5 14q17 0 32 -5.5t40 -19.5t39 -14q16 0 25.5 10t9.5 29h48q0 -24 -8.5 -47.5t-27.5 -37.5t-40 -14q-28 0 -61 19.5t-49 19.5q-18 0 -29 -12t-11 -27h-46zM77 0v501h82v-501h-82z" />
    <glyph glyph-name="Imacron" unicode="&#x12a;" horiz-adv-x="278" 
d="M28 757v52h221v-52h-221zM96 0v700h86v-700h-86z" />
    <glyph glyph-name="imacron" unicode="&#x12b;" horiz-adv-x="236" 
d="M19 632v55h198v-55h-198zM77 0v501h82v-501h-82z" />
    <glyph glyph-name="Iogonek" unicode="&#x12e;" horiz-adv-x="278" 
d="M131 -91q0 -23 12.5 -35.5t35.5 -12.5q20 0 38 10v-49q-23 -15 -60 -15q-42 0 -68.5 21.5t-26.5 59.5q0 34 21 64.5t53 47.5h-40v700h86v-690l36 -3q-22 -7 -44.5 -25t-32.5 -38t-10 -35z" />
    <glyph glyph-name="iogonek" unicode="&#x12f;" horiz-adv-x="236" 
d="M70 695h96v-87h-96v87zM77 0v501h82v-501h-1q-22 -7 -44.5 -25t-32.5 -38t-10 -35q0 -23 12.5 -35.5t35.5 -12.5q20 0 38 10v-49q-23 -15 -60 -15q-42 0 -68.5 21.5t-26.5 59.5t26 70.5t63 48.5h-14z" />
    <glyph glyph-name="Idotaccent" unicode="&#x130;" horiz-adv-x="278" 
d="M97 760v75h82v-75h-82zM96 0v700h86v-700h-86z" />
    <glyph glyph-name="dotlessi" unicode="&#x131;" horiz-adv-x="236" 
d="M77 0v501h82v-501h-82z" />
    <glyph glyph-name="IJ" unicode="&#x132;" horiz-adv-x="813" 
d="M96 0v700h86v-700h-86zM506 -5q-45 0 -84 14.5t-67 41.5t-43.5 66t-15.5 85h79q0 -29 12 -59t45.5 -51.5t75.5 -21.5q58 0 94.5 39t36.5 106v485h86v-479q0 -105 -61 -165.5t-158 -60.5z" />
    <glyph glyph-name="ij" unicode="&#x133;" horiz-adv-x="472" 
d="M70 608v87h96v-87h-96zM307 608v87h96v-87h-96zM77 0v501h82v-501h-82zM290 -222l-45 59q68 55 68 143v521h82v-521q0 -60 -27 -113.5t-78 -88.5z" />
    <glyph glyph-name="Jcircumflex" unicode="&#x134;" horiz-adv-x="535" 
d="M253 731l114 124h77l113 -124h-69l-84 79l-84 -79h-67zM228 -5q-45 0 -84 14.5t-67 41.5t-43.5 66t-15.5 85h79q0 -29 12 -59t45.5 -51.5t75.5 -21.5q58 0 94.5 39t36.5 106v485h86v-479q0 -105 -61 -165.5t-158 -60.5z" />
    <glyph glyph-name="jcircumflex" unicode="&#x135;" horiz-adv-x="236" 
d="M-29 582l108 132h82l107 -132h-71l-78 86l-77 -86h-71zM54 -222l-45 59q68 55 68 143v521h82v-521q0 -60 -27 -113.5t-78 -88.5z" />
    <glyph glyph-name="Kcommaaccent" unicode="&#x136;" horiz-adv-x="671" 
d="M96 0v700h86v-345l346 331h110l-456 -446v-240h-86zM569 0l-271 260l60 63l325 -323h-114zM276 -197l32 158h79l-57 -158h-54z" />
    <glyph glyph-name="kcommaaccent" unicode="&#x137;" horiz-adv-x="525" 
d="M484 501l-325 -328v-173h-82v750h82v-474l224 225h101zM314 250l224 -250h-107l-176 192zM203 -197l32 158h79l-57 -158h-54z" />
    <glyph glyph-name="kgreenlandic" unicode="&#x138;" horiz-adv-x="525" 
d="M484 501l-325 -328v-173h-82v501h82v-225l224 225h101zM314 250l224 -250h-107l-176 192z" />
    <glyph glyph-name="Lacute" unicode="&#x139;" horiz-adv-x="554" 
d="M103 734l131 119h109l-167 -119h-73zM96 0v700h86v-623h359v-77h-445z" />
    <glyph glyph-name="lacute" unicode="&#x13a;" horiz-adv-x="237" 
d="M47 784l131 119h109l-167 -119h-73zM77 0v750h83v-750h-83z" />
    <glyph glyph-name="Lcommaaccent" unicode="&#x13b;" horiz-adv-x="554" 
d="M96 0v700h86v-623h359v-77h-445zM234 -197l32 158h79l-57 -158h-54z" />
    <glyph glyph-name="lcommaaccent" unicode="&#x13c;" horiz-adv-x="237" 
d="M77 0v750h83v-750h-83zM45 -197l32 158h79l-57 -158h-54z" />
    <glyph glyph-name="Lcaron" unicode="&#x13d;" horiz-adv-x="554" 
d="M96 0v700h86v-623h359v-77h-445zM386 542l27 155h82l-52 -155h-57z" />
    <glyph glyph-name="lcaron" unicode="&#x13e;" horiz-adv-x="237" 
d="M188 599l27 155h82l-52 -155h-57zM77 0v750h83v-750h-83z" />
    <glyph glyph-name="Ldot" unicode="&#x13f;" horiz-adv-x="557" 
d="M96 0v700h86v-623h359v-77h-445zM375 336v85h87v-85h-87z" />
    <glyph glyph-name="ldot" unicode="&#x140;" horiz-adv-x="295" 
d="M77 0v750h83v-750h-83zM249 334v85h87v-85h-87z" />
    <glyph glyph-name="Lslash" unicode="&#x141;" horiz-adv-x="579" 
d="M207 77h359v-77h-445v291l-75 -51l-36 57l111 75v328h86v-270l119 81l36 -58l-155 -104v-272z" />
    <glyph glyph-name="lslash" unicode="&#x142;" horiz-adv-x="237" 
d="M256 439l-96 -67v-372h-83v315l-62 -43l-36 53l98 68v357h83v-300l61 42z" />
    <glyph glyph-name="Nacute" unicode="&#x143;" horiz-adv-x="751" 
d="M539 853l-167 -119h-73l131 119h109zM569 700h86v-700h-86v323l-387 251v-574h-86v704h39l434 -283v279z" />
    <glyph glyph-name="nacute" unicode="&#x144;" horiz-adv-x="610" 
d="M230 578l111 144h104l-150 -144h-65zM77 0v501h80v-91q17 32 47.5 57t66.5 35t67 10q92 0 146.5 -57t54.5 -158v-297h-81v290q0 68 -39 108.5t-101 40.5q-69 0 -114 -44t-45 -115v-280h-82z" />
    <glyph glyph-name="Ncommaaccent" unicode="&#x145;" horiz-adv-x="751" 
d="M569 700h86v-700h-86v323l-387 251v-574h-86v704h39l434 -283v279zM296 -197l32 158h79l-57 -158h-54z" />
    <glyph glyph-name="ncommaaccent" unicode="&#x146;" horiz-adv-x="610" 
d="M77 0v501h80v-91q17 32 47.5 57t66.5 35t67 10q92 0 146.5 -57t54.5 -158v-297h-81v290q0 68 -39 108.5t-101 40.5q-69 0 -114 -44t-45 -115v-280h-82zM218 -197l32 158h79l-57 -158h-54z" />
    <glyph glyph-name="Ncaron" unicode="&#x147;" horiz-adv-x="751" 
d="M415 731h-76l-114 124h69l83 -79l84 79h68zM569 700h86v-700h-86v323l-387 251v-574h-86v704h39l434 -283v279z" />
    <glyph glyph-name="ncaron" unicode="&#x148;" horiz-adv-x="610" 
d="M270 581l-108 133h70l80 -82l82 82h69l-108 -133h-85zM77 0v501h80v-91q17 32 47.5 57t66.5 35t67 10q92 0 146.5 -57t54.5 -158v-297h-81v290q0 68 -39 108.5t-101 40.5q-69 0 -114 -44t-45 -115v-280h-82z" />
    <glyph glyph-name="napostrophe" unicode="&#x149;" horiz-adv-x="610" 
d="M0 566l33 153h76l-58 -153h-51zM77 0v501h80v-91q17 32 47.5 57t66.5 35t67 10q92 0 146.5 -57t54.5 -158v-297h-81v290q0 68 -39 108.5t-101 40.5q-69 0 -114 -44t-45 -115v-280h-82z" />
    <glyph glyph-name="Eng" unicode="&#x14a;" horiz-adv-x="751" 
d="M485 -140v71q21 -2 41 4.5t31.5 25.5t11.5 42v320l-385 252l-2 -1v-574h-86v704h39l434 -283v279h86v-693q0 -73 -45.5 -113.5t-124.5 -33.5z" />
    <glyph glyph-name="eng" unicode="&#x14b;" horiz-adv-x="610" 
d="M338 512q92 0 146.5 -57t54.5 -158v-318q0 -59 -27 -112.5t-78 -88.5l-46 60q34 26 52 63t18 79v310q0 69 -38.5 109t-100.5 40q-69 0 -114.5 -45t-45.5 -114v-280h-82v501h80v-91q17 32 47.5 57t66.5 35t67 10z" />
    <glyph glyph-name="Omacron" unicode="&#x14c;" horiz-adv-x="805" 
d="M289 757v52h221v-52h-221zM402 -6q-74 0 -139.5 26.5t-113.5 74.5t-74.5 114t-26.5 141q0 76 26.5 142t74.5 114t113.5 74.5t139.5 26.5t139.5 -26.5t114 -74.5t75 -114t26.5 -142q0 -75 -26.5 -141t-75 -114t-114 -74.5t-139.5 -26.5zM402 71q57 0 106.5 20.5t85.5 58
t56 89t20 111.5t-20 112t-56 89.5t-85.5 58t-106.5 20.5q-56 0 -105.5 -20.5t-85.5 -58t-56 -89.5t-20 -112t20 -111.5t56 -89t85.5 -58t105.5 -20.5z" />
    <glyph glyph-name="omacron" unicode="&#x14d;" horiz-adv-x="604" 
d="M187 631v55h230v-55h-230zM302 -6q-55 0 -103 19.5t-82.5 54t-53.5 81.5t-19 100q0 39 12.5 83t48 87.5t89 66t108.5 22.5t103 -19.5t83 -55t54 -83t19 -100.5t-19 -100t-54 -82t-83 -54.5t-103 -19.5zM302 66q79 0 130.5 52.5t51.5 132.5t-51.5 132.5t-130.5 52.5
q-78 0 -130 -52.5t-52 -132.5t52 -132.5t130 -52.5z" />
    <glyph glyph-name="Obreve" unicode="&#x14e;" horiz-adv-x="805" 
d="M400 734q-30 0 -64 11t-56.5 39.5t-22.5 65.5h57q5 -30 27.5 -48t58.5 -18q35 0 58.5 17.5t26.5 48.5h56q0 -23 -13 -50t-48 -46.5t-80 -19.5zM402 -6q-74 0 -139.5 26.5t-113.5 74.5t-74.5 114t-26.5 141q0 76 26.5 142t74.5 114t113.5 74.5t139.5 26.5t139.5 -26.5
t114 -74.5t75 -114t26.5 -142q0 -75 -26.5 -141t-75 -114t-114 -74.5t-139.5 -26.5zM402 71q57 0 106.5 20.5t85.5 58t56 89t20 111.5t-20 112t-56 89.5t-85.5 58t-106.5 20.5q-56 0 -105.5 -20.5t-85.5 -58t-56 -89.5t-20 -112t20 -111.5t56 -89t85.5 -58t105.5 -20.5z" />
    <glyph glyph-name="obreve" unicode="&#x14f;" horiz-adv-x="604" 
d="M302 586q-24 0 -49 6.5t-47.5 23.5t-34 43.5t-11.5 51.5h60q4 -33 25.5 -52t56.5 -19q24 0 43.5 11t28 28t10.5 32h58q0 -24 -12.5 -53t-46 -50.5t-81.5 -21.5zM302 -6q-55 0 -103 19.5t-82.5 54t-53.5 81.5t-19 100q0 39 12.5 83t48 87.5t89 66t108.5 22.5t103 -19.5
t83 -55t54 -83t19 -100.5t-19 -100t-54 -82t-83 -54.5t-103 -19.5zM302 66q79 0 130.5 52.5t51.5 132.5t-51.5 132.5t-130.5 52.5q-78 0 -130 -52.5t-52 -132.5t52 -132.5t130 -52.5z" />
    <glyph glyph-name="Ohungarumlaut" unicode="&#x150;" horiz-adv-x="805" 
d="M303 724l64 138h79l-89 -138h-54zM432 724l67 138h79l-92 -138h-54zM402 -6q-74 0 -139.5 26.5t-113.5 74.5t-74.5 114t-26.5 141q0 76 26.5 142t74.5 114t113.5 74.5t139.5 26.5t139.5 -26.5t114 -74.5t75 -114t26.5 -142q0 -75 -26.5 -141t-75 -114t-114 -74.5
t-139.5 -26.5zM402 71q57 0 106.5 20.5t85.5 58t56 89t20 111.5t-20 112t-56 89.5t-85.5 58t-106.5 20.5q-56 0 -105.5 -20.5t-85.5 -58t-56 -89.5t-20 -112t20 -111.5t56 -89t85.5 -58t105.5 -20.5z" />
    <glyph glyph-name="ohungarumlaut" unicode="&#x151;" horiz-adv-x="604" 
d="M166 605l67 144h75l-91 -144h-51zM301 605l67 144h74l-90 -144h-51zM302 -6q-55 0 -103 19.5t-82.5 54t-53.5 81.5t-19 100q0 39 12.5 83t48 87.5t89 66t108.5 22.5t103 -19.5t83 -55t54 -83t19 -100.5t-19 -100t-54 -82t-83 -54.5t-103 -19.5zM302 66q79 0 130.5 52.5
t51.5 132.5t-51.5 132.5t-130.5 52.5q-78 0 -130 -52.5t-52 -132.5t52 -132.5t130 -52.5z" />
    <glyph glyph-name="OE" unicode="&#x152;" horiz-adv-x="1160" 
d="M403 -6q-76 0 -141.5 26t-113.5 73.5t-74 114t-26 142.5t26 142t74 114t114 74.5t141 26.5q69 0 130 -24t102 -67v84h483v-73h-396v-112q17 -34 27 -78t10 -87t-10 -87t-27 -78v-111h399v-74h-486v84q-42 -43 -102 -66.5t-130 -23.5zM403 70q58 0 108 20.5t86.5 58
t56.5 89.5t20 112t-20 112t-56.5 90t-87 58.5t-107.5 20.5q-43 0 -89 -13.5t-91 -52t-67.5 -97t-22.5 -118.5t20 -112t56.5 -89.5t86.5 -58t107 -20.5zM833 330v73h191v-73h-191z" />
    <glyph glyph-name="oe" unicode="&#x153;" horiz-adv-x="928" 
d="M301 -6q-26 0 -59.5 6.5t-66.5 23.5t-63 47.5t-49 77.5t-19 100t19 100.5t53.5 83t82 55.5t102.5 20q62 0 114.5 -24.5t86.5 -67.5q34 43 86 67.5t113 24.5q53 0 100.5 -19.5t84.5 -55.5l-211 -270l-55 41l168 209q-16 11 -40 17.5t-47 6.5q-51 0 -93 -24.5t-65 -65.5
q20 -45 20 -97q0 -51 -20 -96q22 -41 64.5 -65t93.5 -24q88 0 141 64l55 -49q-34 -40 -84.5 -63t-111.5 -23q-45 0 -86.5 13.5t-69.5 35t-44 41.5q-25 -31 -61 -53t-72.5 -29.5t-66.5 -7.5zM303 66q79 0 130 52.5t51 132.5q0 79 -51 132t-130 53t-130 -53t-51 -132
q0 -80 51 -132.5t130 -52.5z" />
    <glyph glyph-name="Racute" unicode="&#x154;" horiz-adv-x="729" 
d="M293 734l131 119h109l-167 -119h-73zM96 0v700h292q63 0 117 -20.5t93 -57t60 -87.5t21 -109q0 -35 -10.5 -74t-34.5 -75t-63 -65t-89 -42l176 -170h-118l-156 153v71h4q42 0 80 16t66 44.5t43.5 65t15.5 74.5q0 87 -58 143.5t-147 56.5h-207v-624h-85z" />
    <glyph glyph-name="racute" unicode="&#x155;" horiz-adv-x="339" 
d="M111 577l111 144h104l-150 -144h-65zM77 0v501h80v-95q12 23 35 48t60.5 41.5t77.5 16.5v-78q-28 0 -57.5 -9t-54.5 -30.5t-42 -54.5t-17 -76v-264h-82z" />
    <glyph glyph-name="Rcommaaccent" unicode="&#x156;" horiz-adv-x="729" 
d="M96 0v700h292q63 0 117 -20.5t93 -57t60 -87.5t21 -109q0 -35 -10.5 -74t-34.5 -75t-63 -65t-89 -42l176 -170h-118l-156 153v71h4q42 0 80 16t66 44.5t43.5 65t15.5 74.5q0 87 -58 143.5t-147 56.5h-207v-624h-85zM290 -197l32 158h79l-57 -158h-54z" />
    <glyph glyph-name="rcommaaccent" unicode="&#x157;" horiz-adv-x="339" 
d="M77 0v501h80v-95q12 23 35 48t60.5 41.5t77.5 16.5v-78q-28 0 -57.5 -9t-54.5 -30.5t-42 -54.5t-17 -76v-264h-82zM90 -197l32 158h79l-57 -158h-54z" />
    <glyph glyph-name="Rcaron" unicode="&#x158;" horiz-adv-x="729" 
d="M333 731l-114 124h69l83 -79l84 79h68l-114 -124h-76zM96 0v700h292q63 0 117 -20.5t93 -57t60 -87.5t21 -109q0 -35 -10.5 -74t-34.5 -75t-63 -65t-89 -42l176 -170h-118l-156 153v71h4q42 0 80 16t66 44.5t43.5 65t15.5 74.5q0 87 -58 143.5t-147 56.5h-207v-624h-85z
" />
    <glyph glyph-name="rcaron" unicode="&#x159;" horiz-adv-x="339" 
d="M151 580l-108 133h70l80 -82l82 82h69l-108 -133h-85zM77 0v501h80v-95q12 23 35 48t60.5 41.5t77.5 16.5v-78q-28 0 -57.5 -9t-54.5 -30.5t-42 -54.5t-17 -76v-264h-82z" />
    <glyph glyph-name="Sacute" unicode="&#x15a;" horiz-adv-x="591" 
d="M212 734l131 119h109l-167 -119h-73zM300 -5q-124 0 -197.5 72.5t-73.5 193.5h83q0 -87 51.5 -139t136.5 -52q82 0 129 41.5t47 115.5q0 27 -8 53.5t-27 47t-50 33.5t-78 16q-96 6 -145.5 49.5t-49.5 119.5q0 72 50 116.5t129 44.5q38 0 74.5 -11.5t62.5 -35.5l-53 -60
q-16 15 -35.5 23.5t-48.5 8.5q-42 0 -68.5 -22.5t-26.5 -63.5q0 -40 29.5 -65.5t90.5 -28.5q119 -7 177 -65t58 -155q0 -39 -10.5 -74t-30.5 -63.5t-48 -49t-70 -35.5t-98 -15z" />
    <glyph glyph-name="sacute" unicode="&#x15b;" horiz-adv-x="458" 
d="M145 577l111 144h104l-150 -144h-65zM228 -6q-41 0 -77 11.5t-64 34.5t-43.5 58.5t-15.5 79.5h72q0 -38 21.5 -66.5t51.5 -39.5t55 -11q57 0 91 28.5t34 78.5q0 48 -29.5 74t-86.5 34q-143 20 -143 120q0 50 35 81t83 31q43 0 71 -18l-36 -58q-12 9 -30 9
q-20 0 -32.5 -12t-12.5 -31q0 -21 17.5 -34.5t80.5 -23.5q74 -11 116 -52.5t42 -116.5q0 -30 -10 -61t-34.5 -57t-63.5 -42.5t-92 -16.5z" />
    <glyph glyph-name="Scircumflex" unicode="&#x15c;" horiz-adv-x="591" 
d="M137 731l114 124h77l113 -124h-69l-84 79l-84 -79h-67zM300 -5q-124 0 -197.5 72.5t-73.5 193.5h83q0 -87 51.5 -139t136.5 -52q82 0 129 41.5t47 115.5q0 27 -8 53.5t-27 47t-50 33.5t-78 16q-96 6 -145.5 49.5t-49.5 119.5q0 72 50 116.5t129 44.5q38 0 74.5 -11.5
t62.5 -35.5l-53 -60q-16 15 -35.5 23.5t-48.5 8.5q-42 0 -68.5 -22.5t-26.5 -63.5q0 -40 29.5 -65.5t90.5 -28.5q119 -7 177 -65t58 -155q0 -39 -10.5 -74t-30.5 -63.5t-48 -49t-70 -35.5t-98 -15z" />
    <glyph glyph-name="scircumflex" unicode="&#x15d;" horiz-adv-x="458" 
d="M79 581l108 132h82l107 -132h-71l-78 86l-77 -86h-71zM228 -6q-41 0 -77 11.5t-64 34.5t-43.5 58.5t-15.5 79.5h72q0 -38 21.5 -66.5t51.5 -39.5t55 -11q57 0 91 28.5t34 78.5q0 48 -29.5 74t-86.5 34q-143 20 -143 120q0 50 35 81t83 31q43 0 71 -18l-36 -58
q-12 9 -30 9q-20 0 -32.5 -12t-12.5 -31q0 -21 17.5 -34.5t80.5 -23.5q74 -11 116 -52.5t42 -116.5q0 -30 -10 -61t-34.5 -57t-63.5 -42.5t-92 -16.5z" />
    <glyph glyph-name="Scedilla" unicode="&#x15e;" horiz-adv-x="591" 
d="M557 232q0 -101 -64.5 -165t-169.5 -71l-18 -37q45 -1 68.5 -22t23.5 -53q0 -19 -8 -35t-22.5 -27.5t-44.5 -20.5t-78 -9v45q81 0 81 44q0 19 -16 27.5t-52 8.5l-16 22l29 57q-112 9 -176.5 80t-64.5 185h83q0 -87 51.5 -139t136.5 -52q82 0 129 41.5t47 115.5
q0 27 -8 53.5t-27 47t-50 33.5t-78 16q-96 6 -145.5 49.5t-49.5 119.5q0 72 50 116.5t129 44.5q38 0 74.5 -11.5t62.5 -35.5l-53 -60q-16 15 -35.5 23.5t-48.5 8.5q-42 0 -68.5 -22.5t-26.5 -63.5q0 -40 29.5 -65.5t90.5 -28.5q119 -7 177 -65t58 -155z" />
    <glyph glyph-name="scedilla" unicode="&#x15f;" horiz-adv-x="458" 
d="M428 171q0 -74 -48 -121t-124 -55l-17 -36q45 -1 68.5 -22t23.5 -53q0 -19 -8 -35t-22.5 -27.5t-44.5 -20.5t-78 -9v45q81 0 81 44q0 19 -16 27.5t-52 8.5l-16 22l28 56q-46 4 -88 26t-64.5 64t-22.5 93h72q0 -38 21.5 -66.5t51.5 -39.5t55 -11q57 0 91 28.5t34 78.5
q0 48 -29.5 74t-86.5 34q-143 20 -143 120q0 50 35 81t83 31q43 0 71 -18l-36 -58q-12 9 -30 9q-20 0 -32.5 -12t-12.5 -31q0 -21 17.5 -34.5t80.5 -23.5q74 -11 116 -52.5t42 -116.5z" />
    <glyph glyph-name="Scaron" unicode="&#x160;" horiz-adv-x="591" 
d="M252 731l-114 124h69l83 -79l84 79h68l-114 -124h-76zM300 -5q-124 0 -197.5 72.5t-73.5 193.5h83q0 -87 51.5 -139t136.5 -52q82 0 129 41.5t47 115.5q0 27 -8 53.5t-27 47t-50 33.5t-78 16q-96 6 -145.5 49.5t-49.5 119.5q0 72 50 116.5t129 44.5q38 0 74.5 -11.5
t62.5 -35.5l-53 -60q-16 15 -35.5 23.5t-48.5 8.5q-42 0 -68.5 -22.5t-26.5 -63.5q0 -40 29.5 -65.5t90.5 -28.5q119 -7 177 -65t58 -155q0 -39 -10.5 -74t-30.5 -63.5t-48 -49t-70 -35.5t-98 -15z" />
    <glyph glyph-name="scaron" unicode="&#x161;" horiz-adv-x="458" 
d="M185 580l-108 133h70l80 -82l82 82h69l-108 -133h-85zM228 -6q-41 0 -77 11.5t-64 34.5t-43.5 58.5t-15.5 79.5h72q0 -38 21.5 -66.5t51.5 -39.5t55 -11q57 0 91 28.5t34 78.5q0 48 -29.5 74t-86.5 34q-143 20 -143 120q0 50 35 81t83 31q43 0 71 -18l-36 -58
q-12 9 -30 9q-20 0 -32.5 -12t-12.5 -31q0 -21 17.5 -34.5t80.5 -23.5q74 -11 116 -52.5t42 -116.5q0 -30 -10 -61t-34.5 -57t-63.5 -42.5t-92 -16.5z" />
    <glyph glyph-name="Tcommaaccent" unicode="&#x162;" horiz-adv-x="643" 
d="M12 625v75h208v-75h-208zM366 0h-6l-20 -41q45 -1 68.5 -22t23.5 -53q0 -19 -8 -35t-22.5 -27.5t-44.5 -20.5t-78 -9v45q81 0 81 44q0 19 -16 27.5t-52 8.5l-16 22l31 61h-27v700h351v-75h-265v-625z" />
    <glyph glyph-name="tcommaaccent" unicode="&#x163;" horiz-adv-x="359" 
d="M330 -4q-35 0 -65 6l-17 -43q43 -1 66 -22t23 -53q0 -31 -20 -53.5t-56 -30.5t-74 -8v45q79 0 79 45q0 18 -16 26.5t-50 8.5l-16 22l35 77q-27 12 -55.5 36.5t-45.5 67.5t-17 96v192h-77v69h81v217h76v-217h127v-69h-127v-192q0 -147 149 -147h20v-73h-20z" />
    <glyph glyph-name="Tcaron" unicode="&#x164;" horiz-adv-x="643" 
d="M284 731l-114 124h69l83 -79l84 79h68l-114 -124h-76zM12 625v75h208v-75h-208zM280 0v700h351v-75h-265v-625h-86z" />
    <glyph glyph-name="tcaron" unicode="&#x165;" horiz-adv-x="358" 
d="M397 701l-52 -155h-57l27 155h82zM180 216q0 -147 149 -147h20v-73h-20q-111 0 -170 59t-59 161v192h-77v69h81v217h76v-217h127v-69h-127v-192z" />
    <glyph glyph-name="Tbar" unicode="&#x166;" horiz-adv-x="643" 
d="M220 700v-75h-208v75h208zM631 625h-265v-264h102v-68h-102v-293h-86v293h-106v68h106v339h351v-75z" />
    <glyph glyph-name="tbar" unicode="&#x167;" horiz-adv-x="358" 
d="M329 69h20v-73h-20q-111 0 -170 59t-59 161v8h-67v64h67v120h-77v69h81v217h76v-217h127v-69h-127v-120h106v-64h-106v-8q0 -147 149 -147z" />
    <glyph glyph-name="Utilde" unicode="&#x168;" horiz-adv-x="727" 
d="M202 735q0 36 16.5 60t38 31.5t38.5 7.5q20 0 38 -5.5t48.5 -20.5t47.5 -15q19 0 30.5 11t11.5 30h53q0 -24 -9 -48t-31 -37.5t-47 -13.5q-33 0 -68 18t-46.5 20.5t-17.5 2.5q-22 0 -36 -12.5t-14 -28.5h-53zM364 -6q-60 0 -111.5 20.5t-88.5 59t-57.5 93t-20.5 119.5
v414h87v-420q0 -35 10.5 -71.5t34.5 -67.5t62 -51t85 -20q27 0 58 9.5t64 37.5t50 72t17 91v420h87v-414q0 -65 -20 -119.5t-57.5 -93t-88.5 -59t-111 -20.5z" />
    <glyph glyph-name="utilde" unicode="&#x169;" horiz-adv-x="598" 
d="M140 605q0 23 9 47t31.5 38t49.5 14q33 0 73 -19.5t57 -19.5q18 0 29 10t11 29h56q0 -24 -9.5 -47.5t-32 -37.5t-46.5 -14q-20 0 -36.5 5t-45 19.5t-46.5 14.5q-22 0 -34.5 -12t-12.5 -27h-53zM277 -8q-95 0 -150.5 55.5t-55.5 153.5v300h81v-289q0 -51 24 -86.5
t57.5 -48t59.5 -12.5q61 0 103.5 43t42.5 103v290h82v-505h-80v89q-60 -93 -164 -93z" />
    <glyph glyph-name="Umacron" unicode="&#x16a;" horiz-adv-x="727" 
d="M253 757v52h221v-52h-221zM364 -6q-60 0 -111.5 20.5t-88.5 59t-57.5 93t-20.5 119.5v414h87v-420q0 -35 10.5 -71.5t34.5 -67.5t62 -51t85 -20q27 0 58 9.5t64 37.5t50 72t17 91v420h87v-414q0 -65 -20 -119.5t-57.5 -93t-88.5 -59t-111 -20.5z" />
    <glyph glyph-name="umacron" unicode="&#x16b;" horiz-adv-x="598" 
d="M183 631v55h230v-55h-230zM277 -8q-95 0 -150.5 55.5t-55.5 153.5v300h81v-289q0 -51 24 -86.5t57.5 -48t59.5 -12.5q61 0 103.5 43t42.5 103v290h82v-505h-80v89q-60 -93 -164 -93z" />
    <glyph glyph-name="Ubreve" unicode="&#x16c;" horiz-adv-x="727" 
d="M364 734q-30 0 -64 11t-56.5 39.5t-22.5 65.5h57q5 -30 27.5 -48t58.5 -18q35 0 58.5 17.5t26.5 48.5h56q0 -23 -13 -50t-48 -46.5t-80 -19.5zM364 -6q-60 0 -111.5 20.5t-88.5 59t-57.5 93t-20.5 119.5v414h87v-420q0 -35 10.5 -71.5t34.5 -67.5t62 -51t85 -20
q27 0 58 9.5t64 37.5t50 72t17 91v420h87v-414q0 -65 -20 -119.5t-57.5 -93t-88.5 -59t-111 -20.5z" />
    <glyph glyph-name="ubreve" unicode="&#x16d;" horiz-adv-x="598" 
d="M298 586q-24 0 -49 6.5t-47.5 23.5t-34 43.5t-11.5 51.5h60q4 -33 25.5 -52t56.5 -19q24 0 43.5 11t28 28t10.5 32h58q0 -24 -12.5 -53t-46 -50.5t-81.5 -21.5zM277 -8q-95 0 -150.5 55.5t-55.5 153.5v300h81v-289q0 -51 24 -86.5t57.5 -48t59.5 -12.5q61 0 103.5 43
t42.5 103v290h82v-505h-80v89q-60 -93 -164 -93z" />
    <glyph glyph-name="Uring" unicode="&#x16e;" horiz-adv-x="727" 
d="M363 710q-30 0 -55.5 16.5t-35.5 39.5t-10 42t10 42.5t35.5 40t55.5 16.5q19 0 43 -9.5t41.5 -34.5t17.5 -55t-17.5 -54.5t-41.5 -34t-43 -9.5zM363 761q20 0 34 13.5t14 33.5t-14 34t-34 14q-19 0 -33 -14t-14 -34t13.5 -33.5t33.5 -13.5zM364 -6q-60 0 -111.5 20.5
t-88.5 59t-57.5 93t-20.5 119.5v414h87v-420q0 -35 10.5 -71.5t34.5 -67.5t62 -51t85 -20q27 0 58 9.5t64 37.5t50 72t17 91v420h87v-414q0 -65 -20 -119.5t-57.5 -93t-88.5 -59t-111 -20.5z" />
    <glyph glyph-name="uring" unicode="&#x16f;" horiz-adv-x="598" 
d="M297 557q-19 0 -43 9.5t-41 33.5t-17 55q0 19 10 42.5t35.5 40t55.5 16.5q19 0 42.5 -9.5t41 -34.5t17.5 -55t-17.5 -54.5t-41 -34t-42.5 -9.5zM297 607q20 0 33.5 13.5t13.5 34.5q0 20 -14 34t-33 14t-33 -14t-14 -34q0 -21 13.5 -34.5t33.5 -13.5zM277 -8
q-95 0 -150.5 55.5t-55.5 153.5v300h81v-289q0 -51 24 -86.5t57.5 -48t59.5 -12.5q61 0 103.5 43t42.5 103v290h82v-505h-80v89q-60 -93 -164 -93z" />
    <glyph glyph-name="Uhungarumlaut" unicode="&#x170;" horiz-adv-x="727" 
d="M267 724l64 138h79l-89 -138h-54zM396 724l67 138h79l-92 -138h-54zM364 -6q-60 0 -111.5 20.5t-88.5 59t-57.5 93t-20.5 119.5v414h87v-420q0 -35 10.5 -71.5t34.5 -67.5t62 -51t85 -20q27 0 58 9.5t64 37.5t50 72t17 91v420h87v-414q0 -65 -20 -119.5t-57.5 -93
t-88.5 -59t-111 -20.5z" />
    <glyph glyph-name="uhungarumlaut" unicode="&#x171;" horiz-adv-x="598" 
d="M162 605l67 144h75l-91 -144h-51zM297 605l67 144h74l-90 -144h-51zM277 -8q-95 0 -150.5 55.5t-55.5 153.5v300h81v-289q0 -51 24 -86.5t57.5 -48t59.5 -12.5q61 0 103.5 43t42.5 103v290h82v-505h-80v89q-60 -93 -164 -93z" />
    <glyph glyph-name="Uogonek" unicode="&#x172;" horiz-adv-x="727" 
d="M364 -6q-60 0 -111.5 20.5t-88.5 59t-57.5 93t-20.5 119.5v414h87v-420q0 -35 10.5 -71.5t34.5 -67.5t62 -51t85 -20q27 0 58 9.5t64 37.5t50 72t17 91v420h87v-414q0 -65 -20 -119.5t-57.5 -93t-88.5 -59t-111 -20.5zM518 -190q-42 0 -68.5 21.5t-26.5 59.5
q0 21 10 45.5t35 46t55 31.5l56 -4q-22 -7 -44.5 -25t-32.5 -38t-10 -35q0 -23 12.5 -35.5t35.5 -12.5q20 0 38 10v-49q-23 -15 -60 -15z" />
    <glyph glyph-name="uogonek" unicode="&#x173;" horiz-adv-x="598" 
d="M496 -4q-26 -15 -44.5 -38.5t-18.5 -48.5q0 -23 12.5 -35.5t35.5 -12.5q20 0 38 10v-49q-23 -15 -60 -15q-42 0 -68.5 21.5t-26.5 59.5q0 35 22 66t55 47v84q-60 -93 -164 -93q-95 0 -150.5 55.5t-55.5 153.5v300h81v-289q0 -51 24 -86.5t57.5 -48t59.5 -12.5
q61 0 103.5 43t42.5 103v290h82v-505h-25z" />
    <glyph glyph-name="Wcircumflex" unicode="&#x174;" horiz-adv-x="1068" 
d="M599 810l-84 -79h-67l114 124h77l113 -124h-69zM633 700h102l-590 -711h-49v711h86v-509l-2 -48l32 51zM1008 700h100l-601 -711h-49v281l82 99l-1 -233l75 97z" />
    <glyph glyph-name="wcircumflex" unicode="&#x175;" horiz-adv-x="766" 
d="M373 667l-77 -86h-71l108 132h82l107 -132h-71zM428 501h85l-229 -501h-47l-233 501h89l170 -388l79 186l-92 202h88l47 -101zM673 501h88l-232 -501h-50l-72 154l41 95l55 -135z" />
    <glyph glyph-name="Ycircumflex" unicode="&#x176;" horiz-adv-x="625" 
d="M166 731l114 124h77l113 -124h-69l-84 79l-84 -79h-67zM255 374l-263 326h109l205 -248zM92 0l453 700h97l-453 -700h-97z" />
    <glyph glyph-name="ycircumflex" unicode="&#x177;" horiz-adv-x="537" 
d="M124 581l108 132h82l107 -132h-71l-78 86l-77 -86h-71zM205 150l-203 351h97l151 -263zM86 -209l361 710h90l-361 -710h-90z" />
    <glyph glyph-name="Ydieresis" unicode="&#x178;" horiz-adv-x="625" 
d="M191 755v73h80v-73h-80zM364 755v73h80v-73h-80zM255 374l-263 326h109l205 -248zM92 0l453 700h97l-453 -700h-97z" />
    <glyph glyph-name="Zacute" unicode="&#x179;" horiz-adv-x="651" 
d="M251 734l131 119h109l-167 -119h-73zM14 0l505 700h103l-506 -700h-102zM44 622v78h394l-54 -78h-340zM197 0l56 78h370v-78h-426z" />
    <glyph glyph-name="zacute" unicode="&#x17a;" horiz-adv-x="492" 
d="M162 577l111 144h104l-150 -144h-65zM22 0l346 501h94l-292 -425h291v-76h-439zM44 425v76h246l-52 -76h-194z" />
    <glyph glyph-name="Zdotaccent" unicode="&#x17b;" horiz-adv-x="651" 
d="M286 760v75h82v-75h-82zM14 0l505 700h103l-506 -700h-102zM44 622v78h394l-54 -78h-340zM197 0l56 78h370v-78h-426z" />
    <glyph glyph-name="zdotaccent" unicode="&#x17c;" horiz-adv-x="492" 
d="M196 607v87h96v-87h-96zM22 0l346 501h94l-292 -425h291v-76h-439zM44 425v76h246l-52 -76h-194z" />
    <glyph glyph-name="Zcaron" unicode="&#x17d;" horiz-adv-x="651" 
d="M291 731l-114 124h69l83 -79l84 79h68l-114 -124h-76zM14 0l505 700h103l-506 -700h-102zM44 622v78h394l-54 -78h-340zM197 0l56 78h370v-78h-426z" />
    <glyph glyph-name="zcaron" unicode="&#x17e;" horiz-adv-x="492" 
d="M202 580l-108 133h70l80 -82l82 82h69l-108 -133h-85zM22 0l346 501h94l-292 -425h291v-76h-439zM44 425v76h246l-52 -76h-194z" />
    <glyph glyph-name="uni01EA" unicode="&#x1ea;" horiz-adv-x="805" 
d="M757 350q0 -66 -21 -125.5t-59 -105.5t-91 -77t-114 -42h4q-22 -7 -44.5 -25t-32.5 -38t-10 -35q0 -23 12.5 -35.5t35.5 -12.5q20 0 38 10v-49q-23 -15 -60 -15q-42 0 -68.5 21.5t-26.5 59.5q0 35 21.5 65.5t54.5 47.5q-73 1 -137.5 28t-111.5 75t-73 113.5t-26 139.5
q0 76 26.5 142t74.5 114t113.5 74.5t139.5 26.5t139.5 -26.5t114 -74.5t75 -114t26.5 -142zM402 71q57 0 106.5 20.5t85.5 58t56 89t20 111.5t-20 112t-56 89.5t-85.5 58t-106.5 20.5q-56 0 -105.5 -20.5t-85.5 -58t-56 -89.5t-20 -112t20 -111.5t56 -89t85.5 -58
t105.5 -20.5z" />
    <glyph glyph-name="uni01EB" unicode="&#x1eb;" horiz-adv-x="604" 
d="M367 1q-27 -14 -47 -38.5t-20 -50.5q0 -23 12.5 -35.5t35.5 -12.5q20 0 38 10v-49q-23 -15 -60 -15q-42 0 -68.5 21.5t-26.5 59.5q0 23 13 51.5t47 51.5q-25 1 -57 8.5t-64 25t-61 48t-47 76.5t-18 97q0 39 12.5 83t48 87.5t89 66t108.5 22.5t103 -19.5t83 -55t54 -83
t19 -100.5q0 -92 -53.5 -160.5t-140.5 -88.5zM120 251q0 -80 52 -132.5t130 -52.5q79 0 130.5 52.5t51.5 132.5t-51.5 132.5t-130.5 52.5q-78 0 -130 -52.5t-52 -132.5z" />
    <glyph glyph-name="AEacute" unicode="&#x1fc;" horiz-adv-x="1064" 
d="M475 734l131 119h109l-167 -119h-73zM-40 0l585 700h477v-73h-396v-553h399v-74l-485 -1v572h-2l-301 -362h194v-72h-254l-117 -137h-100zM704 330v73h213v-73h-213z" />
    <glyph glyph-name="aeacute" unicode="&#x1fd;" horiz-adv-x="977" 
d="M671 722l-150 -144h-65l111 144h104zM891 129l56 -49q-35 -40 -85.5 -63t-111.5 -23q-60 0 -112.5 25t-87.5 66v-85h-58v97q-11 -22 -35 -46.5t-65.5 -40.5t-89.5 -16q-56 0 -104.5 19.5t-82.5 54.5t-52.5 82t-18.5 99q0 54 19 101.5t54 83t83.5 55t103.5 19.5
q82 0 140 -45l-24 -65q-26 20 -56 29t-59 9t-64.5 -11t-63.5 -39.5t-41 -63t-13 -72.5q0 -78 51.5 -131t130.5 -53q82 0 132.5 49t50.5 135q0 54 19 102t54 83t83.5 54t104.5 19q53 0 101 -19.5t85 -55.5l-211 -270l-54 41l167 209q-17 11 -40.5 17.5t-46.5 6.5
q-39 0 -69 -12.5t-53 -32.5t-41.5 -56.5t-18.5 -85.5q0 -79 51.5 -132t130.5 -53q43 0 79.5 17t61.5 47z" />
    <glyph glyph-name="Oslashacute" unicode="&#x1fe;" horiz-adv-x="807" 
d="M328 734l131 119h109l-167 -119h-73zM403 -7q-69 1 -129.5 22t-106.5 60l-32 -31l-45 47l32 31q-35 45 -54.5 103.5t-19.5 124.5q0 36 8.5 82t32.5 92t59.5 82t81 59.5t91.5 32.5t82 9q66 0 126 -21t106 -58l36 35l46 -47l-35 -34q37 -46 57 -105.5t20 -126.5
q0 -76 -26 -142t-74.5 -114.5t-114.5 -74.5t-141 -26zM185 183l391 388q-73 60 -173 60q-57 0 -107 -20.5t-86.5 -58.5t-56.5 -90t-20 -112q0 -96 52 -167zM403 70q58 0 108 20.5t86.5 58t56.5 89.5t20 112q0 99 -54 172l-394 -389q74 -63 177 -63z" />
    <glyph glyph-name="oslashacute" unicode="&#x1ff;" horiz-adv-x="604" 
d="M438 721l-150 -144h-65l111 144h104zM508 411q53 -69 53 -161q0 -53 -19 -100t-54 -82t-83 -54.5t-103 -19.5q-93 0 -162 52l-45 -45l-44 47l44 44q-24 31 -37.5 72t-13.5 85q0 39 12.5 83t48 87.5t89 66t108.5 22.5q93 0 161 -52l44 44l45 -46zM120 251q0 -28 8 -56
t22 -49l260 257q-21 15 -50.5 24t-57.5 9q-78 0 -130 -52.5t-52 -132.5zM302 66q79 0 130.5 52.5t51.5 132.5q0 28 -8 56.5t-22 49.5l-260 -258q21 -15 50.5 -24t57.5 -9z" />
    <glyph glyph-name="Scommaaccent" unicode="&#x218;" horiz-adv-x="591" 
d="M300 -5q-124 0 -197.5 72.5t-73.5 193.5h83q0 -87 51.5 -139t136.5 -52q82 0 129 41.5t47 115.5q0 27 -8 53.5t-27 47t-50 33.5t-78 16q-96 6 -145.5 49.5t-49.5 119.5q0 72 50 116.5t129 44.5q38 0 74.5 -11.5t62.5 -35.5l-53 -60q-16 15 -35.5 23.5t-48.5 8.5
q-42 0 -68.5 -22.5t-26.5 -63.5q0 -40 29.5 -65.5t90.5 -28.5q119 -7 177 -65t58 -155q0 -39 -10.5 -74t-30.5 -63.5t-48 -49t-70 -35.5t-98 -15zM222 -197l32 158h79l-57 -158h-54z" />
    <glyph glyph-name="scommaaccent" unicode="&#x219;" horiz-adv-x="458" 
d="M228 -6q-41 0 -77 11.5t-64 34.5t-43.5 58.5t-15.5 79.5h72q0 -38 21.5 -66.5t51.5 -39.5t55 -11q57 0 91 28.5t34 78.5q0 48 -29.5 74t-86.5 34q-143 20 -143 120q0 50 35 81t83 31q43 0 71 -18l-36 -58q-12 9 -30 9q-20 0 -32.5 -12t-12.5 -31q0 -21 17.5 -34.5
t80.5 -23.5q74 -11 116 -52.5t42 -116.5q0 -30 -10 -61t-34.5 -57t-63.5 -42.5t-92 -16.5zM156 -197l32 158h79l-57 -158h-54z" />
    <glyph glyph-name="uni021A" unicode="&#x21a;" horiz-adv-x="643" 
d="M12 625v75h208v-75h-208zM280 0v700h351v-75h-265v-625h-86zM257 -197l32 158h79l-57 -158h-54z" />
    <glyph glyph-name="uni021B" unicode="&#x21b;" horiz-adv-x="358" 
d="M329 69h20v-73h-20q-111 0 -170 59t-59 161v192h-77v69h81v217h76v-217h127v-69h-127v-192q0 -147 149 -147zM197 -197l32 158h79l-57 -158h-54z" />
    <glyph glyph-name="uni0237" unicode="&#x237;" horiz-adv-x="236" 
d="M54 -222l-45 59q68 55 68 143v521h82v-521q0 -60 -27 -113.5t-78 -88.5z" />
    <glyph glyph-name="circumflex" unicode="&#x2c6;" horiz-adv-x="350" 
d="M17 582l108 132h82l107 -132h-71l-78 86l-77 -86h-71z" />
    <glyph glyph-name="caron" unicode="&#x2c7;" horiz-adv-x="350" 
d="M125 580l-108 133h70l80 -82l82 82h69l-108 -133h-85z" />
    <glyph glyph-name="breve" unicode="&#x2d8;" horiz-adv-x="325" 
d="M167 586q-24 0 -49 6.5t-47.5 23.5t-34 43.5t-11.5 51.5h60q4 -33 25.5 -52t56.5 -19q24 0 43.5 11t28 28t10.5 32h58q0 -24 -12.5 -53t-46 -50.5t-81.5 -21.5z" />
    <glyph glyph-name="dotaccent" unicode="&#x2d9;" horiz-adv-x="167" 
d="M37 608v87h96v-87h-96z" />
    <glyph glyph-name="ring" unicode="&#x2da;" horiz-adv-x="229" 
d="M121 558q-19 0 -43 9.5t-41 33.5t-17 55q0 19 10 42.5t35.5 40t55.5 16.5q19 0 42.5 -9.5t41 -34.5t17.5 -55t-17.5 -54.5t-41 -34t-42.5 -9.5zM121 608q20 0 33.5 13.5t13.5 34.5q0 20 -14 34t-33 14t-33 -14t-14 -34q0 -21 13.5 -34.5t33.5 -13.5z" />
    <glyph glyph-name="ogonek" unicode="&#x2db;" horiz-adv-x="215" 
d="M110 -199q-42 0 -68.5 21.5t-26.5 59.5q0 21 10 45.5t35 46t55 31.5l56 -4q-22 -7 -44.5 -25t-32.5 -38t-10 -35q0 -23 12.5 -35.5t35.5 -12.5q20 0 38 10v-49q-23 -15 -60 -15z" />
    <glyph glyph-name="tilde" unicode="&#x2dc;" horiz-adv-x="354" 
d="M19 606q0 23 9 47t31.5 38t49.5 14q33 0 73 -19.5t57 -19.5q18 0 29 10t11 29h56q0 -24 -9.5 -47.5t-32 -37.5t-46.5 -14q-20 0 -36.5 5t-45 19.5t-46.5 14.5q-22 0 -34.5 -12t-12.5 -27h-53z" />
    <glyph glyph-name="hungarumlaut" unicode="&#x2dd;" horiz-adv-x="274" 
d="M15 606l67 144h75l-91 -144h-51zM150 606l67 144h74l-90 -144h-51z" />
    <glyph glyph-name="gravecomb" unicode="&#x300;" 
d="M-87 578l-149 144h102l110 -144h-63z" />
    <glyph glyph-name="acutecomb" unicode="&#x301;" 
d="M-244 578l111 144h104l-150 -144h-65z" />
    <glyph glyph-name="uni0302" unicode="&#x302;" 
d="M-314 582l108 132h82l107 -132h-71l-78 86l-77 -86h-71z" />
    <glyph glyph-name="tildecomb" unicode="&#x303;" 
d="M-335 606q0 23 9 47t31.5 38t49.5 14q33 0 73 -19.5t57 -19.5q18 0 29 10t11 29h56q0 -24 -9.5 -47.5t-32 -37.5t-46.5 -14q-20 0 -36.5 5t-45 19.5t-46.5 14.5q-22 0 -34.5 -12t-12.5 -27h-53z" />
    <glyph glyph-name="uni0304" unicode="&#x304;" 
d="M-271 632v55h230v-55h-230z" />
    <glyph glyph-name="uni0306" unicode="&#x306;" 
d="M-165 586q-24 0 -49 6.5t-47.5 23.5t-34 43.5t-11.5 51.5h60q4 -33 25.5 -52t56.5 -19q24 0 43.5 11t28 28t10.5 32h58q0 -24 -12.5 -53t-46 -50.5t-81.5 -21.5z" />
    <glyph glyph-name="uni0307" unicode="&#x307;" 
d="M-132 608v87h96v-87h-96z" />
    <glyph glyph-name="uni0308" unicode="&#x308;" 
d="M-286 612v74h79v-74h-79zM-123 612v74h80v-74h-80z" />
    <glyph glyph-name="uni030A" unicode="&#x30a;" 
d="M-121 558q-19 0 -43 9.5t-41 33.5t-17 55q0 19 10 42.5t35.5 40t55.5 16.5q19 0 42.5 -9.5t41 -34.5t17.5 -55t-17.5 -54.5t-41 -34t-42.5 -9.5zM-121 608q20 0 33.5 13.5t13.5 34.5q0 20 -14 34t-33 14t-33 -14t-14 -34q0 -21 13.5 -34.5t33.5 -13.5z" />
    <glyph glyph-name="uni030B" unicode="&#x30b;" 
d="M-295 606l67 144h75l-91 -144h-51zM-160 606l67 144h74l-90 -144h-51z" />
    <glyph glyph-name="uni030C" unicode="&#x30c;" 
d="M-210 580l-108 133h70l80 -82l82 82h69l-108 -133h-85z" />
    <glyph glyph-name="uni0326" unicode="&#x326;" 
d="M-119 -197l32 158h79l-57 -158h-54z" />
    <glyph glyph-name="uni0327" unicode="&#x327;" 
d="M-179 -208v45q81 0 81 44q0 19 -16 27.5t-52 8.5l-16 22l33 66h53l-22 -46q45 -1 68.5 -22t23.5 -53q0 -19 -8 -35t-22.5 -27.5t-44.5 -20.5t-78 -9z" />
    <glyph glyph-name="uni0328" unicode="&#x328;" 
d="M-79 -199q-42 0 -68.5 21.5t-26.5 59.5q0 21 10 45.5t35 46t55 31.5l56 -4q-22 -7 -44.5 -25t-32.5 -38t-10 -35q0 -23 12.5 -35.5t35.5 -12.5q20 0 38 10v-49q-23 -15 -60 -15z" />
    <glyph glyph-name="uni0335" unicode="&#x335;" 
d="M-307 274v68h294v-68h-294z" />
    <glyph glyph-name="uni0336" unicode="&#x336;" 
d="M-757 485v68h743v-68h-743z" />
    <glyph glyph-name="uni0337" unicode="&#x337;" 
d="M-285 141l-36 53l242 167l35 -53z" />
    <glyph glyph-name="uni0338" unicode="&#x338;" 
d="M-475 8l-44 47l456 452l45 -46z" />
    <glyph glyph-name="Wgrave" unicode="&#x1e80;" horiz-adv-x="1068" 
d="M681 734h-73l-167 119h103zM633 700h102l-590 -711h-49v711h86v-509l-2 -48l32 51zM1008 700h100l-601 -711h-49v281l82 99l-1 -233l75 97z" />
    <glyph glyph-name="wgrave" unicode="&#x1e81;" horiz-adv-x="766" 
d="M439 577h-63l-149 144h102zM428 501h85l-229 -501h-47l-233 501h89l170 -388l79 186l-92 202h88l47 -101zM673 501h88l-232 -501h-50l-72 154l41 95l55 -135z" />
    <glyph glyph-name="Wacute" unicode="&#x1e82;" horiz-adv-x="1068" 
d="M763 853l-167 -119h-73l131 119h109zM633 700h102l-590 -711h-49v711h86v-509l-2 -48l32 51zM1008 700h100l-601 -711h-49v281l82 99l-1 -233l75 97z" />
    <glyph glyph-name="wacute" unicode="&#x1e83;" horiz-adv-x="766" 
d="M506 721l-150 -144h-65l111 144h104zM428 501h85l-229 -501h-47l-233 501h89l170 -388l79 186l-92 202h88l47 -101zM673 501h88l-232 -501h-50l-72 154l41 95l55 -135z" />
    <glyph glyph-name="Wdieresis" unicode="&#x1e84;" horiz-adv-x="1068" 
d="M553 828v-73h-80v73h80zM726 828v-73h-80v73h80zM633 700h102l-590 -711h-49v711h86v-509l-2 -48l32 51zM1008 700h100l-601 -711h-49v281l82 99l-1 -233l75 97z" />
    <glyph glyph-name="wdieresis" unicode="&#x1e85;" horiz-adv-x="766" 
d="M331 685v-74h-79v74h79zM495 685v-74h-80v74h80zM428 501h85l-229 -501h-47l-233 501h89l170 -388l79 186l-92 202h88l47 -101zM673 501h88l-232 -501h-50l-72 154l41 95l55 -135z" />
    <glyph glyph-name="uni1E9E" unicode="&#x1e9e;" horiz-adv-x="689" 
d="M96 0v700h205q48 0 79.5 -17.5t47 -48t15.5 -66.5v-89q43 -2 81 -18.5t66 -47t44 -74t16 -97.5q0 -50 -16 -94.5t-47.5 -77.5t-78.5 -51.5t-107 -18.5q-43 0 -78.5 10.5t-69.5 35.5l40 68q44 -40 106 -40q82 0 126 47t44 121q0 79 -45.5 124t-118.5 45h-40v120
q0 94 -90 94h-93v-625h-86z" />
    <glyph glyph-name="Ygrave" unicode="&#x1ef2;" horiz-adv-x="625" 
d="M326 734l-167 119h103l137 -119h-73zM255 374l-263 326h109l205 -248zM92 0l453 700h97l-453 -700h-97z" />
    <glyph glyph-name="ygrave" unicode="&#x1ef3;" horiz-adv-x="537" 
d="M275 577l-149 144h102l110 -144h-63zM205 150l-203 351h97l151 -263zM86 -209l361 710h90l-361 -710h-90z" />
    <glyph glyph-name="uni1EF8" unicode="&#x1ef8;" horiz-adv-x="625" 
d="M156 735q0 36 16.5 60t38 31.5t38.5 7.5q20 0 38 -5.5t48.5 -20.5t47.5 -15q19 0 30.5 11t11.5 30h53q0 -24 -9 -48t-31 -37.5t-47 -13.5q-33 0 -68 18t-46.5 20.5t-17.5 2.5q-22 0 -36 -12.5t-14 -28.5h-53zM255 374l-263 326h109l205 -248zM92 0l453 700h97l-453 -700
h-97z" />
    <glyph glyph-name="uni1EF9" unicode="&#x1ef9;" horiz-adv-x="537" 
d="M114 605q0 23 9 47t31.5 38t49.5 14q33 0 73 -19.5t57 -19.5q18 0 29 10t11 29h56q0 -24 -9.5 -47.5t-32 -37.5t-46.5 -14q-20 0 -36.5 5t-45 19.5t-46.5 14.5q-22 0 -34.5 -12t-12.5 -27h-53zM205 150l-203 351h97l151 -263zM86 -209l361 710h90l-361 -710h-90z" />
    <glyph glyph-name="endash" unicode="&#x2013;" horiz-adv-x="599" 
d="M67 210v72h465v-72h-465z" />
    <glyph glyph-name="emdash" unicode="&#x2014;" horiz-adv-x="1069" 
d="M67 210v72h935v-72h-935z" />
    <glyph glyph-name="quoteleft" unicode="&#x2018;" horiz-adv-x="208" 
d="M45 575l70 176h51l-37 -176h-84z" />
    <glyph glyph-name="quoteright" unicode="&#x2019;" horiz-adv-x="202" 
d="M52 575l37 176h84l-69 -176h-52z" />
    <glyph glyph-name="quotesinglbase" unicode="&#x201a;" horiz-adv-x="178" 
d="M17 -123l33 176h84l-66 -176h-51z" />
    <glyph glyph-name="quotedblleft" unicode="&#x201c;" horiz-adv-x="323" 
d="M45 575l76 176h52l-45 -176h-83zM163 575l65 176h52l-34 -176h-83z" />
    <glyph glyph-name="quotedblright" unicode="&#x201d;" horiz-adv-x="314" 
d="M53 575l33 176h84l-66 -176h-51zM160 575l44 176h84l-76 -176h-52z" />
    <glyph glyph-name="quotedblbase" unicode="&#x201e;" horiz-adv-x="296" 
d="M17 -123l33 175h84l-66 -175h-51zM124 -123l44 175h84l-76 -175h-52z" />
    <glyph glyph-name="dagger" unicode="&#x2020;" horiz-adv-x="477" 
d="M199 -119v564h-154v73h154v232h79v-232h155v-73h-155v-564h-79z" />
    <glyph glyph-name="daggerdbl" unicode="&#x2021;" horiz-adv-x="477" 
d="M201 -119v250h-156v73h156v224h-156v73h156v249h75v-249h157v-73h-157v-224h157v-73h-157v-250h-75z" />
    <glyph glyph-name="bullet" unicode="&#x2022;" horiz-adv-x="324" 
d="M162 206q-31 0 -53 22.5t-22 53.5q0 30 22 52.5t53 22.5t53.5 -22.5t22.5 -52.5q0 -31 -22.5 -53.5t-53.5 -22.5z" />
    <glyph glyph-name="ellipsis" unicode="&#x2026;" horiz-adv-x="529" 
d="M67 0v86h87v-86h-87zM224 0v86h87v-86h-87zM375 0v86h87v-86h-87z" />
    <glyph glyph-name="perthousand" unicode="&#x2030;" horiz-adv-x="1253" 
d="M216 320q-78 0 -130 53t-52 130t52 130.5t130 53.5q28 0 59 -9.5t61.5 -35.5t46 -64t15.5 -75q0 -28 -9 -58.5t-34 -61.5t-63 -47t-76 -16zM272 0l246 685h68l-246 -685h-68zM216 385q36 0 65 20t40 48t11 51t-11 50.5t-40 47t-65 19.5q-24 0 -51.5 -11.5t-46.5 -41
t-19 -64.5q0 -50 33 -84.5t84 -34.5zM641 -5q-28 0 -59 9.5t-58 32t-46 58.5t-19 83q0 37 13.5 71t38.5 59.5t58.5 39.5t71.5 14q28 0 59 -9.5t61.5 -35.5t46 -64t15.5 -75q0 -28 -9 -58.5t-34 -61.5t-63 -47t-76 -16zM1038 -5q-78 0 -130 53t-52 130t52 130.5t130 53.5
q28 0 59 -9.5t61.5 -35.5t46 -64t15.5 -75q0 -28 -9 -58.5t-34 -61.5t-63 -47t-76 -16zM641 60q36 0 65 20t40 48t11 51q0 36 -19 65.5t-46.5 41t-50.5 11.5q-51 0 -83.5 -34t-32.5 -84t32.5 -84.5t83.5 -34.5zM1038 60q36 0 65 20t40 48t11 51q0 36 -19 65.5t-46.5 41
t-50.5 11.5q-50 0 -83.5 -34t-33.5 -84t33.5 -84.5t83.5 -34.5z" />
    <glyph glyph-name="guilsinglleft" unicode="&#x2039;" horiz-adv-x="335" 
d="M226 131l-186 188l191 194l49 -48l-146 -145l141 -141z" />
    <glyph glyph-name="guilsinglright" unicode="&#x203a;" horiz-adv-x="334" 
d="M109 513l186 -188l-191 -194l-49 48l146 145l-141 141z" />
    <glyph glyph-name="fraction" unicode="&#x2044;" horiz-adv-x="319" 
d="M28 -63l187 763h76l-187 -763h-76z" />
    <glyph glyph-name="Euro" unicode="&#x20ac;" horiz-adv-x="538" 
d="M488 -8q-134 1 -229 77t-120 199h-103v52h96l-1 27l1 30h-96v52h103q12 61 43 112.5t77 89t104.5 57.5t124.5 20v-76q-97 0 -168 -56t-93 -147h195v-52h-205l-1 -28l1 -29h205v-52h-195q23 -90 93.5 -144t167.5 -55v-77z" />
    <glyph glyph-name="trademark" unicode="&#x2122;" horiz-adv-x="825" 
d="M33 651v53h108v-53h-108zM177 326v378h192v-53h-130v-325h-62zM716 704h26v-381h-63v255l-112 -120l-110 120v-255h-64v381h26l148 -158z" />
    <glyph glyph-name="arrowleft" unicode="&#x2190;" horiz-adv-x="892" 
d="M343 -32l-314 315l314 314l58 -57l-216 -213h669v-86h-671l218 -216z" />
    <glyph glyph-name="arrowup" unicode="&#x2191;" horiz-adv-x="673" 
d="M295 -76v610l-216 -218l-57 57l315 315l314 -315l-57 -57l-213 216v-608h-86z" />
    <glyph glyph-name="arrowright" unicode="&#x2192;" horiz-adv-x="891" 
d="M548 -32l-57 57l216 214h-669v85h671l-218 216l57 57l314 -314z" />
    <glyph glyph-name="arrowdown" unicode="&#x2193;" horiz-adv-x="671" 
d="M335 -90l-314 315l57 57l213 -216v609h86v-611l216 218l57 -57z" />
    <glyph glyph-name="uni2196" unicode="&#x2196;" horiz-adv-x="702" 
d="M610 -32l-474 475l3 -303h-76v431l432 1v-76l-303 2l474 -474z" />
    <glyph glyph-name="uni2197" unicode="&#x2197;" horiz-adv-x="702" 
d="M91 -32l-55 56l474 474l-303 -2v76l432 -1v-431h-76l3 303z" />
    <glyph glyph-name="uni2198" unicode="&#x2198;" horiz-adv-x="697" 
d="M508 -30l-301 45l54 31l150 96l-343 408l121 -75l375 -321l43 249l32 -130z" />
    <glyph glyph-name="uni2199" unicode="&#x2199;" horiz-adv-x="697" 
d="M58 -30l1 432h76l-3 -304l474 474l56 -55l-474 -474l302 2l1 -75h-433z" />
    <glyph glyph-name="minus" unicode="&#x2212;" horiz-adv-x="656" 
d="M70 224v70h516v-70h-516z" />
    <glyph glyph-name="approxequal" unicode="&#x2248;" horiz-adv-x="662" 
d="M224 247q-43 0 -86.5 23t-71.5 55l29 69q70 -70 133 -70q39 0 106 29.5t93 34.5t42 5q36 0 73 -18t55 -36l-24 -69q-56 45 -106 45q-42 0 -108.5 -29t-92.5 -34t-42 -5zM221 81q-43 0 -86.5 23t-71.5 55l29 69q70 -70 133 -70q39 0 106 29.5t93 34.5t42 5q36 0 73 -18
t55 -36l-24 -69q-56 45 -106 45q-42 0 -108.5 -29t-92.5 -34t-42 -5z" />
    <glyph glyph-name="notequal" unicode="&#x2260;" horiz-adv-x="509" 
d="M145 0l42 144h-121v70h142l24 84h-166v70h187l40 141h59l-40 -141h123v-70h-143l-25 -84h168v-70h-189l-42 -144h-59z" />
    <glyph glyph-name="uniF8FF" unicode="&#xf8ff;" horiz-adv-x="1451" 
d="M691 583q0 26 18 44t43 18q26 0 44 -18t18 -44q0 -25 -18 -43t-44 -18q-25 0 -43 18t-18 43zM219 270h-119q0 134 9 314h100q0 -4 2 -34.5t3 -62t3 -88t2 -129.5zM694 270q0 92 3 147h-61l3 -65q4 -4 15 -4q13 0 18 5v-74q-14 -15 -68 -15q-40 0 -61 17t-21 49l4 87h-22
v79l119 30l1 -17h178q10 -64 10 -239h-118zM328 265q-43 0 -67.5 29t-24.5 85q0 65 33.5 100t100.5 35q64 0 94 -31.5t30 -85.5v-127h-83l-8 61q-6 -32 -23.5 -49t-51.5 -17zM1090 270h-114l2 93q0 6 -1.5 17.5t-13.5 11.5q-8 0 -13 -5.5t-5 -23.5q0 -7 1.5 -37t1.5 -56
h-114q0 175 10 239h80q6 -44 6 -76q4 37 26 59t54 22q21 0 39.5 -8.5t27.5 -32.5t10 -65zM1351 391q0 -61 -30.5 -93.5t-92.5 -32.5q-63 0 -92.5 33.5t-29.5 90.5q0 37 13 65.5t40.5 44t70.5 15.5q121 0 121 -123zM390 375q0 26 -24 26q-22 0 -22 -26q0 -14 6 -22t16 -8
q11 0 17.5 8.5t6.5 21.5zM1251 375q0 26 -23 26q-21 0 -21 -26q0 -14 5.5 -22t15.5 -8t16.5 8.5t6.5 21.5zM428 238h104q3 -18 6.5 -60t3.5 -78q0 -81 -34 -115.5t-118 -34.5q-61 0 -88 17v83q24 -16 70 -16q29 0 41.5 10t12.5 18q-16 -11 -49 -11q-90 0 -90 83v13h-55
l3 -65q6 -4 15 -4q13 0 18 5v-73q-19 -15 -68 -15q-44 0 -62.5 17.5t-18.5 53.5l3 81h-18v80l117 29l-1 -18h177v-119q0 -15 3.5 -21t11.5 -6q16 0 16 27v119zM733 243q37 0 58.5 -29.5t21.5 -83.5q0 -135 -137 -135l1 -39h-119q0 142 10 282h78q2 -11 4.5 -38t2.5 -38
q8 38 28.5 59.5t51.5 21.5zM1070 127q0 -21 -3 -35h-124q4 -6 16 -12t34 -6q34 0 55 12v-75q-23 -16 -78 -16q-70 0 -105.5 31t-35.5 91q0 27 10.5 56.5t39.5 49.5t75 20q54 0 85 -30.5t31 -85.5zM978 109q1 13 -3.5 20t-13.5 7q-10 0 -16.5 -7.5t-6.5 -19.5h40zM670 72
q15 0 26 11t11 26q0 11 -5.5 17t-14.5 6q-22 0 -22 -31q0 -14 5 -29zM1074 13q0 -10 7 -16.5t17 -6.5t17 6.5t7 16.5t-7 16.5t-17 6.5t-17 -6.5t-7 -16.5zM1080 13q0 8 5 13t13 5t13 -5t5 -13t-5 -13t-13 -5t-13 5t-5 13zM1108 2l-6 9q2 0 4.5 2t2.5 5q0 7 -10 7h-11v-23h5
v9h5l4 -9h6zM1100 15h-7v6h7q3 0 4 -3q-1 -3 -4 -3z" />
    <glyph glyph-name="A.salt" horiz-adv-x="689" 
d="M729 0h-101l-114 137h-257v72h197l-276 332v-541h-82v704h47z" />
    <glyph glyph-name="A.ss02" horiz-adv-x="645" 
d="M557 0l-236 552l-149 -349h211l29 -66h-268l-58 -137h-85l302 704h39l303 -704h-88z" />
    <glyph glyph-name="Aacute.salt" horiz-adv-x="689" 
d="M301 853l-167 -119h-73l131 119h109zM729 0h-101l-114 137h-257v72h197l-276 332v-541h-82v704h47z" />
    <glyph glyph-name="Aacute.ss02" horiz-adv-x="645" 
d="M488 853l-167 -119h-73l131 119h109zM557 0l-236 552l-149 -349h211l29 -66h-268l-58 -137h-85l302 704h39l303 -704h-88z" />
    <glyph glyph-name="Abreve.salt" horiz-adv-x="689" 
d="M279 850q0 -23 -13 -50t-48 -46.5t-80 -19.5q-30 0 -64 11t-56.5 39.5t-22.5 65.5h57q5 -30 27.5 -48t58.5 -18q35 0 58.5 17.5t26.5 48.5h56zM729 0h-101l-114 137h-257v72h197l-276 332v-541h-82v704h47z" />
    <glyph glyph-name="Abreve.ss02" horiz-adv-x="645" 
d="M325 734q-30 0 -64 11t-56.5 39.5t-22.5 65.5h57q5 -30 27.5 -48t58.5 -18q35 0 58.5 17.5t26.5 48.5h56q0 -23 -13 -50t-48 -46.5t-80 -19.5zM557 0l-236 552l-149 -349h211l29 -66h-268l-58 -137h-85l302 704h39l303 -704h-88z" />
    <glyph glyph-name="Acircumflex.salt" horiz-adv-x="689" 
d="M221 731l-84 79l-84 -79h-67l114 124h77l113 -124h-69zM729 0h-101l-114 137h-257v72h197l-276 332v-541h-82v704h47z" />
    <glyph glyph-name="Acircumflex.ss02" horiz-adv-x="645" 
d="M325 867l-77 -86h-71l108 132h82l107 -132h-71zM557 0l-236 552l-149 -349h211l29 -66h-268l-58 -137h-85l302 704h39l303 -704h-88z" />
    <glyph glyph-name="Adieresis.salt" horiz-adv-x="689" 
d="M11 755v73h80v-73h-80zM264 828v-73h-80v73h80zM729 0h-101l-114 137h-257v72h197l-276 332v-541h-82v704h47z" />
    <glyph glyph-name="Adieresis.ss02" horiz-adv-x="645" 
d="M283 885v-74h-79v74h79zM447 885v-74h-80v74h80zM557 0l-236 552l-149 -349h211l29 -66h-268l-58 -137h-85l302 704h39l303 -704h-88z" />
    <glyph glyph-name="Agrave.salt" horiz-adv-x="689" 
d="M219 734h-73l-167 119h103zM729 0h-101l-114 137h-257v72h197l-276 332v-541h-82v704h47z" />
    <glyph glyph-name="Agrave.ss02" horiz-adv-x="645" 
d="M391 777h-63l-149 144h102zM557 0l-236 552l-149 -349h211l29 -66h-268l-58 -137h-85l302 704h39l303 -704h-88z" />
    <glyph glyph-name="Amacron.salt" horiz-adv-x="689" 
d="M248 809v-52h-221v52h221zM729 0h-101l-114 137h-257v72h197l-276 332v-541h-82v704h47z" />
    <glyph glyph-name="Amacron.ss02" horiz-adv-x="645" 
d="M440 886v-55h-230v55h230zM557 0l-236 552l-149 -349h211l29 -66h-268l-58 -137h-85l302 704h39l303 -704h-88z" />
    <glyph glyph-name="Aogonek.salt" horiz-adv-x="689" 
d="M711 0q-22 -7 -44.5 -25t-32.5 -38t-10 -35q0 -23 12.5 -35.5t35.5 -12.5q20 0 38 10v-49q-23 -15 -60 -15q-42 0 -68.5 21.5t-26.5 59.5t26 70.5t63 48.5h-16l-114 137h-257v72h197l-276 332v-541h-82v704h47l586 -704h-18z" />
    <glyph glyph-name="Aogonek.ss02" horiz-adv-x="645" 
d="M514 -91q0 -23 12.5 -35.5t35.5 -12.5q20 0 38 10v-49q-23 -15 -60 -15q-42 0 -68.5 21.5t-26.5 59.5q0 21 10 45.5t35 46t55 31.5l8 -1l-232 542l-149 -349h211l29 -66h-268l-58 -137h-85l302 704h39l303 -704h-61q-27 -14 -48.5 -39.5t-21.5 -51.5z" />
    <glyph glyph-name="Aring.salt" horiz-adv-x="689" 
d="M239 808q0 -30 -17.5 -54.5t-41.5 -34t-43 -9.5q-30 0 -55.5 16.5t-35.5 39.5t-10 42t10 42.5t35.5 40t55.5 16.5q19 0 43 -9.5t41.5 -34.5t17.5 -55zM90 808q0 -20 13.5 -33.5t33.5 -13.5t34 13.5t14 33.5t-14 34t-34 14q-19 0 -33 -14t-14 -34zM729 0h-101l-114 137
h-257v72h197l-276 332v-541h-82v704h47z" />
    <glyph glyph-name="Aring.ss02" horiz-adv-x="645" 
d="M324 757q-19 0 -43 9.5t-41 33.5t-17 55q0 19 10 42.5t35.5 40t55.5 16.5q19 0 42.5 -9.5t41 -34.5t17.5 -55t-17.5 -54.5t-41 -34t-42.5 -9.5zM324 903q-19 0 -33 -14t-14 -34q0 -21 13.5 -34.5t33.5 -13.5t33.5 13.5t13.5 34.5q0 20 -14 34t-33 14zM557 0l-236 552
l-149 -349h211l29 -66h-268l-58 -137h-85l302 704h39l303 -704h-88z" />
    <glyph glyph-name="Atilde.salt" horiz-adv-x="689" 
d="M298 834q0 -24 -9 -48t-31 -37.5t-47 -13.5q-33 0 -68 18t-46.5 20.5t-17.5 2.5q-22 0 -36 -12.5t-14 -28.5h-53q0 36 16.5 60t38 31.5t38.5 7.5q20 0 38 -5.5t48.5 -20.5t47.5 -15q19 0 30.5 11t11.5 30h53zM729 0h-101l-114 137h-257v72h197l-276 332v-541h-82v704h47z
" />
    <glyph glyph-name="Atilde.ss02" horiz-adv-x="645" 
d="M266 776q-22 0 -36 -12.5t-14 -28.5h-53q0 36 16.5 60t38 31.5t38.5 7.5q20 0 38 -5.5t48.5 -20.5t47.5 -15q19 0 30.5 11t11.5 30h53q0 -24 -9 -48t-31 -37.5t-47 -13.5q-33 0 -68 18t-46.5 20.5t-17.5 2.5zM557 0l-236 552l-149 -349h211l29 -66h-268l-58 -137h-85
l302 704h39l303 -704h-88z" />
    <glyph glyph-name="E.aalt" horiz-adv-x="692" 
d="M402 -6q-76 0 -141.5 26.5t-113 74.5t-73.5 114t-26 141q0 76 26 142t74 114t113.5 74.5t140.5 26.5q85 0 143.5 -27.5t98.5 -77.5l-329 -389l-53 49l277 326q-45 43 -137 43q-57 0 -107 -21t-86 -58.5t-56 -89.5t-20 -111t20 -111t56.5 -89.5t86 -58.5t106.5 -21
q63 0 115 22.5t88 59.5l56 -55q-47 -49 -113.5 -76.5t-145.5 -27.5z" />
    <glyph glyph-name="Eacute.aalt" horiz-adv-x="692" 
d="M297 734l131 119h109l-167 -119h-73zM402 -6q-76 0 -141.5 26.5t-113 74.5t-73.5 114t-26 141q0 76 26 142t74 114t113.5 74.5t140.5 26.5q85 0 143.5 -27.5t98.5 -77.5l-329 -389l-53 49l277 326q-45 43 -137 43q-57 0 -107 -21t-86 -58.5t-56 -89.5t-20 -111t20 -111
t56.5 -89.5t86 -58.5t106.5 -21q63 0 115 22.5t88 59.5l56 -55q-47 -49 -113.5 -76.5t-145.5 -27.5z" />
    <glyph glyph-name="Ebreve.aalt" horiz-adv-x="692" 
d="M374 734q-30 0 -64 11t-56.5 39.5t-22.5 65.5h57q5 -30 27.5 -48t58.5 -18q35 0 58.5 17.5t26.5 48.5h56q0 -23 -13 -50t-48 -46.5t-80 -19.5zM402 -6q-76 0 -141.5 26.5t-113 74.5t-73.5 114t-26 141q0 76 26 142t74 114t113.5 74.5t140.5 26.5q85 0 143.5 -27.5
t98.5 -77.5l-329 -389l-53 49l277 326q-45 43 -137 43q-57 0 -107 -21t-86 -58.5t-56 -89.5t-20 -111t20 -111t56.5 -89.5t86 -58.5t106.5 -21q63 0 115 22.5t88 59.5l56 -55q-47 -49 -113.5 -76.5t-145.5 -27.5z" />
    <glyph glyph-name="Ecaron.aalt" horiz-adv-x="692" 
d="M332 780l-108 133h70l80 -82l82 82h69l-108 -133h-85zM402 -6q-76 0 -141.5 26.5t-113 74.5t-73.5 114t-26 141q0 76 26 142t74 114t113.5 74.5t140.5 26.5q85 0 143.5 -27.5t98.5 -77.5l-329 -389l-53 49l277 326q-45 43 -137 43q-57 0 -107 -21t-86 -58.5t-56 -89.5
t-20 -111t20 -111t56.5 -89.5t86 -58.5t106.5 -21q63 0 115 22.5t88 59.5l56 -55q-47 -49 -113.5 -76.5t-145.5 -27.5z" />
    <glyph glyph-name="Ecircumflex.aalt" horiz-adv-x="692" 
d="M226 781l108 132h82l107 -132h-71l-78 86l-77 -86h-71zM402 -6q-76 0 -141.5 26.5t-113 74.5t-73.5 114t-26 141q0 76 26 142t74 114t113.5 74.5t140.5 26.5q85 0 143.5 -27.5t98.5 -77.5l-329 -389l-53 49l277 326q-45 43 -137 43q-57 0 -107 -21t-86 -58.5t-56 -89.5
t-20 -111t20 -111t56.5 -89.5t86 -58.5t106.5 -21q63 0 115 22.5t88 59.5l56 -55q-47 -49 -113.5 -76.5t-145.5 -27.5z" />
    <glyph glyph-name="Edieresis.aalt" horiz-adv-x="692" 
d="M253 811v74h79v-74h-79zM416 811v74h80v-74h-80zM402 -6q-76 0 -141.5 26.5t-113 74.5t-73.5 114t-26 141q0 76 26 142t74 114t113.5 74.5t140.5 26.5q85 0 143.5 -27.5t98.5 -77.5l-329 -389l-53 49l277 326q-45 43 -137 43q-57 0 -107 -21t-86 -58.5t-56 -89.5
t-20 -111t20 -111t56.5 -89.5t86 -58.5t106.5 -21q63 0 115 22.5t88 59.5l56 -55q-47 -49 -113.5 -76.5t-145.5 -27.5z" />
    <glyph glyph-name="Edotaccent.aalt" horiz-adv-x="692" 
d="M326 807v87h96v-87h-96zM402 -6q-76 0 -141.5 26.5t-113 74.5t-73.5 114t-26 141q0 76 26 142t74 114t113.5 74.5t140.5 26.5q85 0 143.5 -27.5t98.5 -77.5l-329 -389l-53 49l277 326q-45 43 -137 43q-57 0 -107 -21t-86 -58.5t-56 -89.5t-20 -111t20 -111t56.5 -89.5
t86 -58.5t106.5 -21q63 0 115 22.5t88 59.5l56 -55q-47 -49 -113.5 -76.5t-145.5 -27.5z" />
    <glyph glyph-name="Egrave.aalt" horiz-adv-x="692" 
d="M377 777l-149 144h102l110 -144h-63zM402 -6q-76 0 -141.5 26.5t-113 74.5t-73.5 114t-26 141q0 76 26 142t74 114t113.5 74.5t140.5 26.5q85 0 143.5 -27.5t98.5 -77.5l-329 -389l-53 49l277 326q-45 43 -137 43q-57 0 -107 -21t-86 -58.5t-56 -89.5t-20 -111t20 -111
t56.5 -89.5t86 -58.5t106.5 -21q63 0 115 22.5t88 59.5l56 -55q-47 -49 -113.5 -76.5t-145.5 -27.5z" />
    <glyph glyph-name="Emacron.aalt" horiz-adv-x="692" 
d="M259 831v55h230v-55h-230zM402 -6q-76 0 -141.5 26.5t-113 74.5t-73.5 114t-26 141q0 76 26 142t74 114t113.5 74.5t140.5 26.5q85 0 143.5 -27.5t98.5 -77.5l-329 -389l-53 49l277 326q-45 43 -137 43q-57 0 -107 -21t-86 -58.5t-56 -89.5t-20 -111t20 -111t56.5 -89.5
t86 -58.5t106.5 -21q63 0 115 22.5t88 59.5l56 -55q-47 -49 -113.5 -76.5t-145.5 -27.5z" />
    <glyph glyph-name="Eogonek.aalt" horiz-adv-x="692" 
d="M402 -6q-76 0 -141.5 26.5t-113 74.5t-73.5 114t-26 141q0 76 26 142t74 114t113.5 74.5t140.5 26.5q85 0 143.5 -27.5t98.5 -77.5l-329 -389l-53 49l277 326q-45 43 -137 43q-57 0 -107 -21t-86 -58.5t-56 -89.5t-20 -111t20 -111t56.5 -89.5t86 -58.5t106.5 -21
q63 0 115 22.5t88 59.5l56 -55q-47 -49 -113.5 -76.5t-145.5 -27.5zM543 -190q-42 0 -68.5 21.5t-26.5 59.5q0 21 10 45.5t35 46t55 31.5l56 -4q-22 -7 -44.5 -25t-32.5 -38t-10 -35q0 -23 12.5 -35.5t35.5 -12.5q20 0 38 10v-49q-23 -15 -60 -15z" />
    <glyph glyph-name="P.aalt" horiz-adv-x="707" 
d="M96 0v700h294q54 0 104.5 -16t90.5 -49.5t63.5 -86.5t23.5 -121q0 -55 -20.5 -105.5t-58.5 -89t-90.5 -60.5t-111.5 -22h-131v75h122q54 0 103.5 26t75.5 74.5t26 99.5q0 52 -24 100t-73.5 74t-108.5 26h-199v-625h-86z" />
    <glyph glyph-name="V.aalt" horiz-adv-x="686" 
d="M509 700h81v-711h-48l-582 711h100l412 -504l38 -48l-1 44v508z" />
    <glyph glyph-name="W.aalt" horiz-adv-x="1084" 
d="M539 140l-1 228l82 -98v-281h-62l-598 711h108l311 -368zM902 700h86v-711h-57l-586 711h107l276 -333l176 -220l-2 232v321z" />
    <glyph glyph-name="e.aalt" horiz-adv-x="589" 
d="M305 -6q-57 0 -105.5 19t-83 54t-53.5 82t-19 100q0 25 6 58t23 66t47.5 64t78.5 51t104 20q54 0 101 -19.5t81.5 -54t53 -81.5t18.5 -99l-1 -32h-362v61h280q-5 38 -28.5 76.5t-60.5 58t-84 19.5q-29 0 -59.5 -9.5t-57 -32t-44.5 -59t-18 -85.5q0 -81 50.5 -133.5
t129.5 -52.5q39 0 73.5 14t59.5 38l53 -53q-35 -33 -82 -51.5t-101 -18.5z" />
    <glyph glyph-name="eacute.aalt" horiz-adv-x="589" 
d="M219 578l111 144h104l-150 -144h-65zM305 -6q-57 0 -105.5 19t-83 54t-53.5 82t-19 100q0 25 6 58t23 66t47.5 64t78.5 51t104 20q54 0 101 -19.5t81.5 -54t53 -81.5t18.5 -99l-1 -32h-362v61h280q-5 38 -28.5 76.5t-60.5 58t-84 19.5q-29 0 -59.5 -9.5t-57 -32
t-44.5 -59t-18 -85.5q0 -81 50.5 -133.5t129.5 -52.5q39 0 73.5 14t59.5 38l53 -53q-35 -33 -82 -51.5t-101 -18.5z" />
    <glyph glyph-name="ecaron.aalt" horiz-adv-x="589" 
d="M259 581l-108 133h70l80 -82l82 82h69l-108 -133h-85zM305 -6q-57 0 -105.5 19t-83 54t-53.5 82t-19 100q0 25 6 58t23 66t47.5 64t78.5 51t104 20q54 0 101 -19.5t81.5 -54t53 -81.5t18.5 -99l-1 -32h-362v61h280q-5 38 -28.5 76.5t-60.5 58t-84 19.5q-29 0 -59.5 -9.5
t-57 -32t-44.5 -59t-18 -85.5q0 -81 50.5 -133.5t129.5 -52.5q39 0 73.5 14t59.5 38l53 -53q-35 -33 -82 -51.5t-101 -18.5z" />
    <glyph glyph-name="ecircumflex.aalt" horiz-adv-x="589" 
d="M153 582l108 132h82l107 -132h-71l-78 86l-77 -86h-71zM305 -6q-57 0 -105.5 19t-83 54t-53.5 82t-19 100q0 25 6 58t23 66t47.5 64t78.5 51t104 20q54 0 101 -19.5t81.5 -54t53 -81.5t18.5 -99l-1 -32h-362v61h280q-5 38 -28.5 76.5t-60.5 58t-84 19.5q-29 0 -59.5 -9.5
t-57 -32t-44.5 -59t-18 -85.5q0 -81 50.5 -133.5t129.5 -52.5q39 0 73.5 14t59.5 38l53 -53q-35 -33 -82 -51.5t-101 -18.5z" />
    <glyph glyph-name="edieresis.aalt" horiz-adv-x="589" 
d="M180 612v74h79v-74h-79zM343 612v74h80v-74h-80zM305 -6q-57 0 -105.5 19t-83 54t-53.5 82t-19 100q0 25 6 58t23 66t47.5 64t78.5 51t104 20q54 0 101 -19.5t81.5 -54t53 -81.5t18.5 -99l-1 -32h-362v61h280q-5 38 -28.5 76.5t-60.5 58t-84 19.5q-29 0 -59.5 -9.5
t-57 -32t-44.5 -59t-18 -85.5q0 -81 50.5 -133.5t129.5 -52.5q39 0 73.5 14t59.5 38l53 -53q-35 -33 -82 -51.5t-101 -18.5z" />
    <glyph glyph-name="edotaccent.aalt" horiz-adv-x="589" 
d="M253 608v87h96v-87h-96zM305 -6q-57 0 -105.5 19t-83 54t-53.5 82t-19 100q0 25 6 58t23 66t47.5 64t78.5 51t104 20q54 0 101 -19.5t81.5 -54t53 -81.5t18.5 -99l-1 -32h-362v61h280q-5 38 -28.5 76.5t-60.5 58t-84 19.5q-29 0 -59.5 -9.5t-57 -32t-44.5 -59t-18 -85.5
q0 -81 50.5 -133.5t129.5 -52.5q39 0 73.5 14t59.5 38l53 -53q-35 -33 -82 -51.5t-101 -18.5z" />
    <glyph glyph-name="egrave.aalt" horiz-adv-x="589" 
d="M304 578l-149 144h102l110 -144h-63zM305 -6q-57 0 -105.5 19t-83 54t-53.5 82t-19 100q0 25 6 58t23 66t47.5 64t78.5 51t104 20q54 0 101 -19.5t81.5 -54t53 -81.5t18.5 -99l-1 -32h-362v61h280q-5 38 -28.5 76.5t-60.5 58t-84 19.5q-29 0 -59.5 -9.5t-57 -32
t-44.5 -59t-18 -85.5q0 -81 50.5 -133.5t129.5 -52.5q39 0 73.5 14t59.5 38l53 -53q-35 -33 -82 -51.5t-101 -18.5z" />
    <glyph glyph-name="emacron.aalt" horiz-adv-x="589" 
d="M186 632v55h230v-55h-230zM305 -6q-57 0 -105.5 19t-83 54t-53.5 82t-19 100q0 25 6 58t23 66t47.5 64t78.5 51t104 20q54 0 101 -19.5t81.5 -54t53 -81.5t18.5 -99l-1 -32h-362v61h280q-5 38 -28.5 76.5t-60.5 58t-84 19.5q-29 0 -59.5 -9.5t-57 -32t-44.5 -59
t-18 -85.5q0 -81 50.5 -133.5t129.5 -52.5q39 0 73.5 14t59.5 38l53 -53q-35 -33 -82 -51.5t-101 -18.5z" />
    <glyph glyph-name="eogonek.aalt" horiz-adv-x="589" 
d="M194 222v61h280q-5 38 -28.5 76.5t-60.5 58t-84 19.5q-29 0 -59.5 -9.5t-57 -32t-44.5 -59t-18 -85.5q0 -81 50.5 -133.5t129.5 -52.5q39 0 73.5 14t59.5 38l53 -53q-38 -36 -88 -54h1q-22 -7 -44.5 -25t-32.5 -38t-10 -35q0 -23 12.5 -35.5t35.5 -12.5q20 0 38 10v-49
q-23 -15 -60 -15q-42 0 -68.5 21.5t-26.5 59.5q0 30 16.5 57t42.5 46q-56 0 -104.5 19t-83 54t-53.5 82t-19 100q0 25 6 58t23 66t47.5 64t78.5 51t104 20q54 0 101 -19.5t81.5 -54t53 -81.5t18.5 -99l-1 -32h-362z" />
    <glyph glyph-name="f.aalt" horiz-adv-x="290" 
d="M96 0v430h-57v71h58q3 88 41 149q33 57 114 100l43 -65q-60 -33 -88 -76q-26 -43 -29 -108h86v-71h-88v-430h-80z" />
    <glyph glyph-name="g.aalt" horiz-adv-x="647" 
d="M309 -225q-53 0 -98 16t-78.5 44.5t-54 68.5t-26.5 86h80q4 -25 15.5 -51t36.5 -50t60 -34.5t65 -10.5q78 0 129.5 53.5t51.5 138.5v53q-26 -43 -76 -69t-114 -26q-55 0 -103 19.5t-82 54t-52.5 81t-18.5 98.5q0 40 12.5 84t44 83t70.5 60t72.5 27.5t60.5 6.5
q80 0 140 -45l-24 -65q-24 19 -54.5 28t-60.5 9q-79 0 -130.5 -53.5t-51.5 -132.5q0 -38 13 -71.5t37 -58.5t58 -39t74 -14q29 0 60 8t58.5 27t46.5 49t19 68v283h81v-462q0 -55 -18.5 -103.5t-53 -84.5t-83.5 -56t-106 -20z" />
    <glyph glyph-name="gbreve.aalt" horiz-adv-x="647" 
d="M315 587q-24 0 -49 6.5t-47.5 23.5t-34 43.5t-11.5 51.5h60q4 -33 25.5 -52t56.5 -19q24 0 43.5 11t28 28t10.5 32h58q0 -24 -12.5 -53t-46 -50.5t-81.5 -21.5zM309 -225q-53 0 -98 16t-78.5 44.5t-54 68.5t-26.5 86h80q4 -25 15.5 -51t36.5 -50t60 -34.5t65 -10.5
q78 0 129.5 53.5t51.5 138.5v53q-26 -43 -76 -69t-114 -26q-55 0 -103 19.5t-82 54t-52.5 81t-18.5 98.5q0 40 12.5 84t44 83t70.5 60t72.5 27.5t60.5 6.5q80 0 140 -45l-24 -65q-24 19 -54.5 28t-60.5 9q-79 0 -130.5 -53.5t-51.5 -132.5q0 -38 13 -71.5t37 -58.5t58 -39
t74 -14q29 0 60 8t58.5 27t46.5 49t19 68v283h81v-462q0 -55 -18.5 -103.5t-53 -84.5t-83.5 -56t-106 -20z" />
    <glyph glyph-name="gcircumflex.aalt" horiz-adv-x="647" 
d="M167 582l108 132h82l107 -132h-71l-78 86l-77 -86h-71zM309 -225q-53 0 -98 16t-78.5 44.5t-54 68.5t-26.5 86h80q4 -25 15.5 -51t36.5 -50t60 -34.5t65 -10.5q78 0 129.5 53.5t51.5 138.5v53q-26 -43 -76 -69t-114 -26q-55 0 -103 19.5t-82 54t-52.5 81t-18.5 98.5
q0 40 12.5 84t44 83t70.5 60t72.5 27.5t60.5 6.5q80 0 140 -45l-24 -65q-24 19 -54.5 28t-60.5 9q-79 0 -130.5 -53.5t-51.5 -132.5q0 -38 13 -71.5t37 -58.5t58 -39t74 -14q29 0 60 8t58.5 27t46.5 49t19 68v283h81v-462q0 -55 -18.5 -103.5t-53 -84.5t-83.5 -56t-106 -20z
" />
    <glyph glyph-name="gdotaccent.aalt" horiz-adv-x="647" 
d="M267 608v87h96v-87h-96zM309 -225q-53 0 -98 16t-78.5 44.5t-54 68.5t-26.5 86h80q4 -25 15.5 -51t36.5 -50t60 -34.5t65 -10.5q78 0 129.5 53.5t51.5 138.5v53q-26 -43 -76 -69t-114 -26q-55 0 -103 19.5t-82 54t-52.5 81t-18.5 98.5q0 40 12.5 84t44 83t70.5 60
t72.5 27.5t60.5 6.5q80 0 140 -45l-24 -65q-24 19 -54.5 28t-60.5 9q-79 0 -130.5 -53.5t-51.5 -132.5q0 -38 13 -71.5t37 -58.5t58 -39t74 -14q29 0 60 8t58.5 27t46.5 49t19 68v283h81v-462q0 -55 -18.5 -103.5t-53 -84.5t-83.5 -56t-106 -20z" />
    <glyph glyph-name="i.aalt" horiz-adv-x="236" 
d="M70 608v87h96v-87h-96zM77 0v501h82v-501h-82z" />
    <glyph glyph-name="l.aalt" horiz-adv-x="272" 
d="M260 -7q-84 0 -136 52t-52 134v571h79v-570q0 -46 31.5 -77.5t77.5 -31.5v-78z" />
    <glyph glyph-name="lacute.aalt" horiz-adv-x="272" 
d="M57 784l131 119h109l-167 -119h-73zM260 -7q-84 0 -136 52t-52 134v571h79v-570q0 -46 31.5 -77.5t77.5 -31.5v-78z" />
    <glyph glyph-name="lcaron.aalt" horiz-adv-x="272" 
d="M217 599l27 155h82l-52 -155h-57zM260 -7q-84 0 -136 52t-52 134v571h79v-570q0 -46 31.5 -77.5t77.5 -31.5v-78z" />
    <glyph glyph-name="lcommaaccent.aalt" horiz-adv-x="272" 
d="M260 -7q-84 0 -136 52t-52 134v571h79v-570q0 -46 31.5 -77.5t77.5 -31.5v-78zM98 -197l32 158h79l-57 -158h-54z" />
    <glyph glyph-name="ldot.aalt" horiz-adv-x="308" 
d="M260 -7q-84 0 -136 52t-52 134v571h79v-570q0 -46 31.5 -77.5t77.5 -31.5v-78zM228 366v85h87v-85h-87z" />
    <glyph glyph-name="lslash.aalt" horiz-adv-x="272" 
d="M151 180q0 -46 31.5 -77.5t77.5 -31.5v-78q-84 0 -136 52t-52 134v106l-62 -43l-36 53l98 68v387h79v-333l65 45l35 -53l-100 -69v-160z" />
    <glyph glyph-name="r.aalt" horiz-adv-x="574" 
d="M77 0v505h233q35 0 72 -10.5t73 -38.5t54 -69.5t18 -81.5q0 -70 -37 -120t-93 -69l124 -116h-106l-119 112v45q35 1 70.5 16t57 49t21.5 72q0 56 -40.5 95.5t-97.5 39.5h-148v-429h-82z" />
    <glyph glyph-name="racute.aalt" horiz-adv-x="574" 
d="M201 577l111 144h104l-150 -144h-65zM77 0v505h233q35 0 72 -10.5t73 -38.5t54 -69.5t18 -81.5q0 -70 -37 -120t-93 -69l124 -116h-106l-119 112v45q35 1 70.5 16t57 49t21.5 72q0 56 -40.5 95.5t-97.5 39.5h-148v-429h-82z" />
    <glyph glyph-name="rcaron.aalt" horiz-adv-x="574" 
d="M241 580l-108 133h70l80 -82l82 82h69l-108 -133h-85zM77 0v505h233q35 0 72 -10.5t73 -38.5t54 -69.5t18 -81.5q0 -70 -37 -120t-93 -69l124 -116h-106l-119 112v45q35 1 70.5 16t57 49t21.5 72q0 56 -40.5 95.5t-97.5 39.5h-148v-429h-82z" />
    <glyph glyph-name="t.aalt" horiz-adv-x="313" 
d="M103 0v407h-67v70h70v223h78v-223h107v-70h-107v-407h-81z" />
    <glyph glyph-name="tbar.aalt" horiz-adv-x="313" 
d="M306 272v-68h-122v-204h-81v204h-80v68h80v135h-67v70h70v223h78v-223h107v-70h-107v-135h122z" />
    <glyph glyph-name="tcaron.aalt" horiz-adv-x="313" 
d="M255 554l27 155h82l-52 -155h-57zM103 0v407h-67v70h70v223h78v-223h107v-70h-107v-407h-81z" />
    <glyph glyph-name="tcommaaccent.aalt" horiz-adv-x="313" 
d="M291 407h-107v-402h5l-22 -46q45 -1 68.5 -22t23.5 -53q0 -19 -8 -35t-22.5 -27.5t-44.5 -20.5t-78 -9v45q81 0 81 44q0 19 -16 27.5t-52 8.5l-16 22l31 61h-31v407h-67v70h70v223h78v-223h107v-70z" />
    <glyph glyph-name="uni021B.aalt" horiz-adv-x="313" 
d="M103 0v407h-67v70h70v223h78v-223h107v-70h-107v-407h-81zM84 -197l32 158h79l-57 -158h-54z" />
    <glyph glyph-name="v.salt" horiz-adv-x="530" 
d="M460 501h98l-418 -513h-63v513h82l-2 -378z" />
    <glyph glyph-name="v.ss02" horiz-adv-x="537" 
d="M379 501h80v-513h-68l-418 513h105l303 -379z" />
    <glyph glyph-name="w.salt" horiz-adv-x="848" 
d="M489 501h97l-446 -513h-63v513h82l-2 -380zM777 501h99l-484 -513h-63v134l80 97v-105z" />
    <glyph glyph-name="w.ss02" horiz-adv-x="849" 
d="M446 113l-1 95l80 -98v-122h-66l-487 513h104zM691 501h81v-513h-66l-450 513h102l335 -380z" />
    <glyph glyph-name="wacute.salt" horiz-adv-x="848" 
d="M594 722l-150 -144h-65l111 144h104zM489 501h97l-446 -513h-63v513h82l-2 -380zM777 501h99l-484 -513h-63v134l80 97v-105z" />
    <glyph glyph-name="wacute.ss02" horiz-adv-x="849" 
d="M531 721l-150 -144h-65l111 144h104zM446 113l-1 95l80 -98v-122h-66l-487 513h104zM691 501h81v-513h-66l-450 513h102l335 -380z" />
    <glyph glyph-name="wcircumflex.salt" horiz-adv-x="848" 
d="M461 668l-77 -86h-71l108 132h82l107 -132h-71zM489 501h97l-446 -513h-63v513h82l-2 -380zM777 501h99l-484 -513h-63v134l80 97v-105z" />
    <glyph glyph-name="wcircumflex.ss02" horiz-adv-x="849" 
d="M398 667l-77 -86h-71l108 132h82l107 -132h-71zM446 113l-1 95l80 -98v-122h-66l-487 513h104zM691 501h81v-513h-66l-450 513h102l335 -380z" />
    <glyph glyph-name="wdieresis.salt" horiz-adv-x="848" 
d="M419 686v-74h-79v74h79zM583 686v-74h-80v74h80zM489 501h97l-446 -513h-63v513h82l-2 -380zM777 501h99l-484 -513h-63v134l80 97v-105z" />
    <glyph glyph-name="wdieresis.ss02" horiz-adv-x="849" 
d="M356 685v-74h-79v74h79zM520 685v-74h-80v74h80zM446 113l-1 95l80 -98v-122h-66l-487 513h104zM691 501h81v-513h-66l-450 513h102l335 -380z" />
    <glyph glyph-name="wgrave.salt" horiz-adv-x="848" 
d="M527 578h-63l-149 144h102zM489 501h97l-446 -513h-63v513h82l-2 -380zM777 501h99l-484 -513h-63v134l80 97v-105z" />
    <glyph glyph-name="wgrave.ss02" horiz-adv-x="849" 
d="M464 577h-63l-149 144h102zM446 113l-1 95l80 -98v-122h-66l-487 513h104zM691 501h81v-513h-66l-450 513h102l335 -380z" />
    <glyph glyph-name="A_V.dlig" horiz-adv-x="1103" 
d="M-40 0l586 704h49v-509l-2 -47l39 51l410 501h101l-587 -711h-48v548h-1l-271 -328h196v-72h-255l-117 -137h-100z" />
    <glyph glyph-name="A_W.dlig" horiz-adv-x="1482" 
d="M-40 0l586 704h49v-490l-3 -70l52 72l402 484h101l-590 -711h-49v548h-1l-271 -328h196v-72h-255l-117 -137h-100zM871 -11v281l82 99l-1 -231l73 94l396 468h101l-603 -711h-48z" />
    <glyph glyph-name="D_C.dlig" horiz-adv-x="1183" 
d="M889 -8q-40 0 -90.5 10.5t-99.5 39t-84 69.5q-48 -52 -115.5 -81.5t-141.5 -29.5h-262v549h85v-475h177q56 1 105.5 22.5t86.5 59.5t57 88.5t20 105.5q0 58 -21 109t-58.5 88.5t-86.5 58t-102 20.5h-263v74h263q76 0 143 -29.5t115 -80.5q47 55 118.5 86.5t153.5 31.5
q78 0 145.5 -27.5t114.5 -76.5l-59 -56q-37 40 -89.5 62t-112.5 22q-69 0 -127 -29t-94 -80q44 -80 44 -173q0 -90 -45 -172q36 -51 95 -80t129 -29q59 0 111.5 21.5t90.5 60.5l53 -56q-48 -49 -114 -76t-142 -27z" />
    <glyph glyph-name="D_G.dlig" horiz-adv-x="1252" 
d="M889 -8q-84 0 -155.5 31.5t-119.5 86.5q-48 -51 -115.5 -80.5t-140.5 -29.5h-262v549h85v-475h177q56 1 105.5 22.5t86.5 59.5t57 88.5t20 105.5q0 58 -21 109t-58.5 88.5t-86.5 58t-102 20.5h-263v74h263q77 0 144 -29.5t114 -80.5q48 55 119 86.5t153 31.5
q73 0 134 -23l-27 -73q-49 20 -107 20q-68 0 -126.5 -29.5t-94.5 -80.5q43 -80 43 -172q0 -91 -45 -171q37 -51 96 -80.5t129 -29.5q92 0 160 50t91 133h-178v73h266q1 -16 0 -36q-10 -64 -38.5 -119t-73 -95t-103.5 -61.5t-126 -21.5z" />
    <glyph glyph-name="D_O.dlig" horiz-adv-x="1290" 
d="M886 -16q-85 0 -156.5 33t-117.5 93q-48 -51 -115 -80.5t-139 -29.5h-262v549h85v-475h177q56 1 105.5 22.5t86.5 59.5t57 88.5t20 105.5q0 58 -21 109t-58.5 88.5t-86.5 58t-102 20.5h-263v74h263q79 0 147 -31t116 -86q47 55 115.5 85t148.5 30q75 0 141 -26.5
t114 -74.5t74.5 -114.5t26.5 -142.5t-26.5 -142t-74.5 -114t-114 -74t-141 -26zM886 60q58 0 108 20.5t86.5 58t56.5 89.5t20 112t-20 112t-56.5 90t-87 58.5t-107.5 20.5q-67 0 -123.5 -27.5t-92.5 -76.5q41 -76 41 -167q0 -95 -48 -175q26 -40 65.5 -67.5t81.5 -37.5
t76 -10z" />
    <glyph glyph-name="D_Q.dlig" horiz-adv-x="1294" 
d="M1172 -49l-126 155v14q39 29 65 69t35.5 82.5t9.5 78.5q0 59 -20 111t-56.5 90t-86.5 59t-108 21q-68 0 -125.5 -29t-92.5 -79q44 -80 44 -173q0 -92 -46 -171q36 -51 94 -80t128 -29v-76q-84 0 -155 31t-118 86q-48 -52 -115.5 -81.5t-140.5 -29.5h-262v549h85v-475h177
q56 1 105.5 22.5t86.5 59.5t57 88.5t20 105.5q0 58 -21 109t-58.5 88.5t-86.5 58t-102 20.5h-263v74h263q76 0 143 -29.5t115 -80.5q48 55 118 86t152 31q75 0 140.5 -26t113.5 -74t74 -114.5t26 -142.5q0 -73 -24 -136.5t-67 -107.5l126 -155h-104z" />
    <glyph glyph-name="H_D.dlig" horiz-adv-x="1276" 
d="M96 0v700h86v-473h352v-75h-352v-152h-86zM611 0v549h87v-475h178q41 1 86.5 15.5t90.5 53.5t68 95.5t23 111.5q0 58 -21 109t-58.5 88.5t-86.5 58t-102 20.5h-265v74h265q74 0 139 -27t113 -75t74 -112.5t26 -135.5q0 -72 -27.5 -136.5t-76 -112.5t-113.5 -74.5
t-135 -26.5h-265z" />
    <glyph glyph-name="H_E.dlig" horiz-adv-x="1132" 
d="M96 0v700h86v-473h352v-75h-352v-152h-86zM611 0v700h476v-73h-389v-553h399v-74h-486zM775 330v73h214v-73h-214z" />
    <glyph glyph-name="H_F.dlig" horiz-adv-x="1092" 
d="M96 0v700h86v-473h352v-75h-352v-152h-86zM611 0v700h458v-75h-371v-625h-87zM775 299v74h217v-74h-217z" />
    <glyph glyph-name="H_K.dlig" horiz-adv-x="1187" 
d="M96 0v700h86v-473h352v-75h-352v-152h-86zM611 0v700h87v-345l346 331h109l-455 -446v-240h-87zM1085 0l-272 260l61 63l325 -323h-114z" />
    <glyph glyph-name="H_M.dlig" horiz-adv-x="1348" 
d="M1211 704h41v-704h-86v538l-235 -244l-233 240v-534h-87v704h44l277 -291zM182 700v-473h352v-75h-352v-152h-86v700h86z" />
    <glyph glyph-name="H_N.dlig" horiz-adv-x="1267" 
d="M611 0v704h40l434 -283v279h86v-700h-86v323l-386 252h-1v-575h-87zM96 0v700h86v-473h352v-75h-352v-152h-86z" />
    <glyph glyph-name="H_P.dlig" horiz-adv-x="1222" 
d="M96 0v700h86v-473h352v-75h-352v-152h-86zM611 0v700h295q60 0 112 -18.5t89.5 -54t58 -87t20.5 -113.5q0 -57 -22 -108.5t-61 -89t-90.5 -58.5t-106.5 -21h-208v-150h-87zM698 225h199q43 0 81.5 15.5t66.5 43t43.5 64.5t15.5 77q0 41 -14.5 77.5t-42 64t-66 42.5
t-84.5 15h-199v-399z" />
    <glyph glyph-name="H_R.dlig" horiz-adv-x="1246" 
d="M96 0v700h86v-473h352v-75h-352v-152h-86zM611 0v700h295q61 0 115 -21t93 -58.5t60.5 -88t21.5 -106.5q0 -35 -10 -74.5t-34 -75.5t-62.5 -65.5t-90.5 -43.5l176 -167h-118l-165 162v62h12q32 0 62 9.5t54.5 26t46.5 43.5t32 60t10 61q0 40 -13.5 72.5t-35.5 58.5
t-62 47.5t-92 21.5h-208v-624h-87z" />
    <glyph glyph-name="H_T.dlig" horiz-adv-x="986" 
d="M96 0v700h86v-473h364v-75h-364v-152h-86zM356 625v75h207v-75h-207zM623 0v700h351v-75h-264v-625h-87z" />
    <glyph glyph-name="M_D.dlig" horiz-adv-x="1314" 
d="M96 0v700h71l252 -287l248 287h247q74 0 139.5 -26.5t113 -74.5t74 -112.5t26.5 -136.5t-27.5 -136.5t-76.5 -112.5t-114 -74.5t-135 -26.5h-257v476l79 85v-487h178q41 1 86.5 15.5t90.5 53.5t68 95.5t23 111.5q0 58 -21 109t-59 88.5t-87.5 58t-103.5 20.5h-201
l-292 -334l-235 271h-1v-563h-86z" />
    <glyph glyph-name="M_E.dlig" horiz-adv-x="1173" 
d="M96 0v700h71l249 -287l249 287h466v-73h-394v-553h398v-74h-485v568h-1l-234 -274l-232 270h-1v-564h-86zM814 330v73h213v-73h-213z" />
    <glyph glyph-name="M_F.dlig" horiz-adv-x="1131" 
d="M96 0v700h71l249 -287l251 287h441v-75h-371v-625h-87v567h-1l-234 -273l-232 270l-1 -1v-563h-86zM814 303v74h217v-74h-217z" />
    <glyph glyph-name="M_K.dlig" horiz-adv-x="1226" 
d="M96 0v700h71l249 -287l251 287h70v-345l346 331h109l-455 -446v-240h-87v567l-1 1l-234 -274l-232 270h-1v-564h-86zM1123 0l-271 260l61 63l325 -323h-115z" />
    <glyph glyph-name="M_M.dlig" horiz-adv-x="1387" 
d="M96 0v700h71l249 -287l245 287h66l243 -287l252 287h69v-700h-87v567l-1 1l-234 -274l-231 273h-1v-567h-87v570l-1 1l-234 -277l-232 270h-1v-564h-86z" />
    <glyph glyph-name="M_N.dlig" horiz-adv-x="1305" 
d="M96 0v700h71l249 -287l246 287h63l398 -279v279h87v-700h-87v323l-385 267h-1v-590h-87v572h-1l-234 -278l-232 270h-1v-564h-86z" />
    <glyph glyph-name="M_P.dlig" horiz-adv-x="1260" 
d="M96 0v700h71l249 -287l251 287h278q60 0 112 -18.5t89.5 -54t58 -87t20.5 -113.5q0 -57 -22 -108.5t-61 -89t-90.5 -58.5t-106.5 -21h-208v-150h-87v567h-1l-234 -273l-232 270l-1 -1v-563h-86zM737 225h199q32 0 67 10.5t69.5 38.5t52 69.5t17.5 81.5q0 41 -14.5 77.5
t-41.5 64t-65.5 42.5t-84.5 15h-199v-399z" />
    <glyph glyph-name="M_R.dlig" horiz-adv-x="1285" 
d="M96 0v700h71l251 -287l249 287h278q45 0 94.5 -14t98 -52.5t73 -95t24.5 -112.5q0 -35 -10 -74.5t-34 -75.5t-63 -65.5t-91 -43.5l177 -167h-118l-166 162v62h13q33 0 68.5 11t69.5 39.5t51 69.5t17 80q0 40 -13.5 72.5t-35.5 58.5t-62.5 47.5t-92.5 21.5h-208v-624h-87
v566l-1 1l-234 -275l-232 275l-1 -1v-566h-86z" />
    <glyph glyph-name="M_U.dlig" horiz-adv-x="1290" 
d="M927 -6q-60 0 -111.5 20.5t-88.5 59t-57.5 93t-20.5 119.5v281h-1l-233 -273l-232 270l-1 -1v-563h-86v700h71l249 -287l251 287h70v-420q0 -35 12 -76.5t42 -73t65 -46t72 -14.5q27 0 58 9.5t64 37.5t50 72t17 91v420h87v-414q0 -65 -20 -119.5t-57.5 -93t-88.5 -59
t-111 -20.5z" />
    <glyph glyph-name="M_V.dlig" horiz-adv-x="1246" 
d="M96 0v700h71l249 -287l251 287h70v-470l-1 -82h1l68 87l380 465h101l-586 -711h-50l-1 578h-1l-233 -273l-232 270l-1 -1v-563h-86z" />
    <glyph glyph-name="M_W.dlig" horiz-adv-x="1624" 
d="M96 0v700h71l250 -287l250 287h70v-454l-1 -100l81 104l372 450h100l-590 -711h-50v578h-1l-233 -273l-232 270l-1 -1v-563h-86zM1012 -11v281l83 99l-1 -228l469 559h101l-603 -711h-49z" />
    <glyph glyph-name="O_C.dlig" horiz-adv-x="1231" 
d="M403 -6q-76 0 -141.5 26t-113.5 73.5t-74 114t-26 142.5t26 142t74 114t114 74.5t141 26.5q59 0 114 -17t93 -44.5t60 -53.5q47 55 116.5 85.5t150.5 30.5q78 0 145.5 -27.5t114.5 -76.5l-59 -56q-37 40 -89.5 62t-112.5 22q-67 0 -124.5 -28.5t-94.5 -78.5
q42 -78 42 -175t-42 -176q36 -49 94 -77t127 -28q59 0 111.5 21.5t90.5 60.5l53 -56q-48 -49 -114 -76t-142 -27q-82 0 -151.5 30.5t-116.5 85.5q-47 -54 -116.5 -84t-149.5 -30zM403 70q58 0 108 20.5t86.5 58t56.5 89.5t20 112t-20 112t-56.5 90t-87 58.5t-107.5 20.5
q-43 0 -89 -13.5t-91 -52t-67.5 -97t-22.5 -118.5t20 -112t56.5 -89.5t86.5 -58t107 -20.5z" />
    <glyph glyph-name="O_G.dlig" horiz-adv-x="1302" 
d="M403 -6q-76 0 -141.5 26t-113.5 73.5t-74 114t-26 142.5t26 142t74 114t114 74.5t141 26.5q81 0 150 -30.5t116 -85.5q47 56 116.5 86.5t151.5 30.5q72 0 135 -23l-28 -73q-49 20 -106 20q-68 0 -126 -28.5t-95 -78.5q42 -75 42 -175t-42 -175q37 -50 95.5 -78t127.5 -28
q91 0 159 50t92 133h-179v73h267l-1 -35q-6 -48 -24 -92.5t-50.5 -86t-85 -72t-101 -39t-80.5 -8.5q-82 0 -152.5 30.5t-117.5 84.5q-46 -53 -115 -83t-149 -30zM403 70q58 0 108 20.5t86.5 58t56.5 89.5t20 112t-20 112t-56.5 90t-87 58.5t-107.5 20.5q-43 0 -89 -13.5
t-91 -52t-67.5 -97t-22.5 -118.5t20 -112t56.5 -89.5t86.5 -58t107 -20.5z" />
    <glyph glyph-name="O_O.dlig" horiz-adv-x="1334" 
d="M402 -6q-75 0 -140.5 26t-113.5 73.5t-74 114t-26 142.5t26 142t74 114t113.5 74.5t140.5 26.5q80 0 149 -30.5t116 -86.5q47 56 116.5 86.5t150.5 30.5q74 0 139.5 -26t113 -74t73.5 -114.5t26 -142.5t-26 -142t-73.5 -114t-113 -74t-139.5 -26q-82 0 -152 30.5
t-116 85.5q-47 -55 -115.5 -85.5t-148.5 -30.5zM402 69q57 0 106.5 20.5t81 53.5t49.5 69t24.5 72.5t6.5 65.5q0 60 -20 112.5t-56 90.5t-85.5 58.5t-106.5 20.5q-42 0 -88 -14t-85.5 -47.5t-60.5 -76t-27.5 -79t-6.5 -65.5t6.5 -65.5t24.5 -72.5t49.5 -69t81 -53.5
t106.5 -20.5zM932 69q57 0 107 20.5t86 58.5t56 90t20 112t-20 112.5t-56.5 90.5t-86 58.5t-106.5 20.5q-32 0 -72.5 -9.5t-79 -35.5t-64.5 -62q42 -78 42 -175q0 -96 -42 -174q35 -50 92 -78.5t124 -28.5z" />
    <glyph glyph-name="O_Q.dlig" horiz-adv-x="1342" 
d="M1220 -49l-126 155v14q110 82 110 230q0 59 -20 111.5t-56.5 90t-86.5 58.5t-108 21q-67 0 -123.5 -28t-93.5 -78q43 -77 43 -175t-43 -175q37 -49 94 -77t126 -28v-76q-83 0 -152.5 30t-116.5 84q-47 -54 -115.5 -84t-148.5 -30q-76 0 -141.5 26t-113.5 73.5t-74 114
t-26 142.5t26 142t74 114t114 74.5t141 26.5q80 0 149.5 -30.5t116.5 -85.5q47 55 116.5 85.5t150.5 30.5q75 0 140.5 -26t113 -74t74 -114.5t26.5 -142.5q0 -73 -24.5 -136.5t-67.5 -107.5l126 -155h-104zM403 70q58 0 108 20.5t86.5 58t56.5 89.5t20 112t-20 112t-56.5 90
t-87 58.5t-107.5 20.5q-43 0 -89 -13.5t-91 -52t-67.5 -97t-22.5 -118.5t20 -112t56.5 -89.5t86.5 -58t107 -20.5z" />
    <glyph glyph-name="T_H.dlig" horiz-adv-x="1293" 
d="M12 625v75h208v-75h-208zM280 0v700h402v-473h352v-75h-352v-152h-87v625h-229v-625h-86zM1111 0v700h87v-700h-87z" />
    <glyph glyph-name="T_H_E.dlig" horiz-adv-x="1667" 
d="M12 625v75h208v-75h-208zM280 0v700h433v-473h353v-75h-353v-152h-86v625h-261v-625h-86zM1143 0v700h482v-73h-396v-553h399v-74h-485zM1307 330v73h213v-73h-213z" />
    <glyph glyph-name="T_T.dlig" horiz-adv-x="1053" 
d="M12 625v75h208v-75h-208zM280 0v700h351v-75h-265v-625h-86zM691 0v700h350v-75h-264v-625h-86z" />
    <glyph glyph-name="T_U.dlig" horiz-adv-x="919" 
d="M11 625v75h208v-75h-208zM557 -6q-60 0 -111.5 20.5t-88.5 59t-57.5 93t-20.5 119.5v414h294v-75h-207v-345q0 -35 12 -76.5t42 -73t65 -46t72 -14.5q27 0 58.5 9.5t64.5 37.5t50 72t17 91v420h86v-414q0 -65 -20 -119.5t-57 -93t-88.5 -59t-110.5 -20.5z" />
    <glyph glyph-name="T_Z.dlig" horiz-adv-x="1160" 
d="M12 625v75h208v-75h-208zM280 0v700h667l-55 -75h-526v-625h-86zM523 0l505 700h103l-506 -700h-102zM706 0l56 78h370v-78h-426z" />
    <glyph glyph-name="U_K.dlig" horiz-adv-x="1130" 
d="M364 -6q-60 0 -111.5 20.5t-88.5 59t-57.5 93t-20.5 119.5v414h87v-420q0 -35 10.5 -71.5t34.5 -67.5t62 -51t85 -20q27 0 58 9.5t64 37.5t50 72t17 91v420h87v-345l346 331h109l-462 -454q-7 -52 -29.5 -96.5t-58 -76t-82.5 -48.5t-100 -17zM1027 0l-271 260l61 63
l325 -323h-115z" />
    <glyph glyph-name="U_T.dlig" horiz-adv-x="916" 
d="M364 -6q-60 0 -111.5 20.5t-88.5 59t-57.5 93t-20.5 119.5v414h87v-420q0 -35 10.5 -71.5t34.5 -67.5t62 -51t85 -20q27 0 58 9.5t64 37.5t50 72t17 91v420h351v-75h-264v-339q0 -65 -20 -119.5t-57.5 -93t-88.5 -59t-111 -20.5zM300 625v75h194v-75h-194z" />
    <glyph glyph-name="V_A.dlig" horiz-adv-x="778" 
d="M96 -11v711h85v-472l-1 -80h1l65 84l386 472h50v-704h-86v540h-1l-269 -331h193v-72h-252l-121 -148h-50z" />
    <glyph glyph-name="W_A.dlig" horiz-adv-x="1147" 
d="M458 -11v281l82 99v-227l72 91l389 471h50v-704h-86v537h-1l-271 -328h195v-72h-257l-123 -148h-50zM96 -11v711h86v-456l-1 -99l75 100l377 455h102l-590 -711h-49z" />
    <glyph glyph-name="W_W_W.dlig" horiz-adv-x="2534" 
d="M96 -11v711h86v-432l-2 -124l87 114l370 442h101l-193 -231v-326l97 124l359 433h101l-592 -711h-49v377l-316 -377h-49zM823 -11v282l82 98l-1 -230l101 129l365 432h101l-199 -236v-321l110 140l346 417h101l-592 -711h-49v374l-316 -374h-49zM1550 -11v282l82 98v-230
l108 137l357 424h102l-198 -234l-1 -323l121 151l339 406h101l-596 -711h-49v376l-316 -376h-50zM2332 0v81h83v-81h-83z" />
    <glyph glyph-name="glyph381" horiz-adv-x="637" 
d="M92 0v399h-50v72h51l1 30q3 51 24.5 95.5t58.5 78.5t88.5 53.5t112.5 21.5h80v-279h128v-72h-128v-183q0 -66 41 -106.5t108 -40.5h21v-73h-21q-52 0 -95.5 17t-73 47t-45 70.5t-15.5 85.5v183h-206v-399h-80zM173 471h205v205q-30 0 -63 -9t-63 -30t-52 -56t-25 -81z
" />
    <glyph glyph-name="glyph382" horiz-adv-x="956" 
d="M-40 0l586 704h49v-412l-1 -155l293 366h98l-418 -514h-59v548h-1l-271 -328h196v-72h-255l-117 -137h-100z" />
    <glyph glyph-name="glyph383" horiz-adv-x="1279" 
d="M922 503h97l-447 -514h-64v550l-272 -330h196v-72h-256l-116 -137h-100l586 704h49v-425l-2 -148zM1210 503h99l-485 -514h-62v135l80 97v-107z" />
    <glyph glyph-name="glyph384" horiz-adv-x="1012" 
d="M302 -10q-56 0 -104 19.5t-82.5 54.5t-53 82.5t-18.5 99.5q0 54 19 101.5t54 82.5t83.5 54.5t103.5 19.5q88 0 149 -48l-39 -62q-24 20 -52.5 29t-56.5 9q-79 0 -130.5 -53.5t-51.5 -132.5t51.5 -131.5t130.5 -52.5q78 0 131 45.5t53 111.5v254h73v-36q29 32 73.5 49.5
t94.5 17.5q53 0 99.5 -19.5t80.5 -54t52.5 -81.5t18.5 -100l-2 -32h-362v62h280q-4 33 -22 68.5t-58.5 60.5t-92.5 25q-51 0 -91.5 -23.5t-62.5 -64.5v-195q22 -41 63.5 -65t91.5 -24q40 0 74.5 14t58.5 38l54 -53q-35 -32 -82.5 -51t-99.5 -19q-49 0 -93 16.5t-75 47.5v-58
h-70v91q-24 -43 -75 -70t-115 -27z" />
    <glyph glyph-name="f_i.dlig" horiz-adv-x="484" 
d="M96 0v430h-57v71h58q3 88 41 149q35 58 114 100l43 -65q-59 -32 -87 -76q-27 -42 -30 -108h229v-501h-81v430h-150v-430h-80z" />
    <glyph glyph-name="acute.aalt" horiz-adv-x="600" 
d="M28 734l131 119h109l-167 -119h-73z" />
    <glyph glyph-name="breve.aalt" horiz-adv-x="600" 
d="M167 734q-30 0 -64 11t-56.5 39.5t-22.5 65.5h57q5 -30 27.5 -48t58.5 -18q35 0 58.5 17.5t26.5 48.5h56q0 -23 -13 -50t-48 -46.5t-80 -19.5z" />
    <glyph glyph-name="glyph514" horiz-adv-x="600" 
d="M15 542l27 155h82l-52 -155h-57z" />
    <glyph glyph-name="caron.aalt" horiz-adv-x="600" 
d="M146 731l-114 124h69l83 -79l84 79h68l-114 -124h-76z" />
    <glyph glyph-name="circumflex.aalt" horiz-adv-x="600" 
d="M32 731l114 124h77l113 -124h-69l-84 79l-84 -79h-67z" />
    <glyph glyph-name="dieresis.aalt" horiz-adv-x="600" 
d="M40 755v73h80v-73h-80zM213 755v73h80v-73h-80z" />
    <glyph glyph-name="dotaccent.aalt" horiz-adv-x="600" 
d="M33 760v75h82v-75h-82z" />
    <glyph glyph-name="grave.aalt" horiz-adv-x="600" 
d="M195 734l-167 119h103l137 -119h-73z" />
    <glyph glyph-name="hungarumlaut.aalt" horiz-adv-x="600" 
d="M8 724l64 138h79l-89 -138h-54zM137 724l67 138h79l-92 -138h-54z" />
    <glyph glyph-name="macron.aalt" horiz-adv-x="600" 
d="M41 757v52h221v-52h-221z" />
    <glyph glyph-name="ring.aalt" horiz-adv-x="600" 
d="M114 710q-30 0 -55.5 16.5t-35.5 39.5t-10 42t10 42.5t35.5 40t55.5 16.5q19 0 43 -9.5t41.5 -34.5t17.5 -55t-17.5 -54.5t-41.5 -34t-43 -9.5zM114 761q20 0 34 13.5t14 33.5t-14 34t-34 14q-19 0 -33 -14t-14 -34t13.5 -33.5t33.5 -13.5z" />
    <glyph glyph-name="tilde.aalt" horiz-adv-x="600" 
d="M14 735q0 36 16.5 60t38 31.5t38.5 7.5q20 0 38 -5.5t48.5 -20.5t47.5 -15q19 0 30.5 11t11.5 30h53q0 -24 -9 -48t-31 -37.5t-47 -13.5q-33 0 -68 18t-46.5 20.5t-17.5 2.5q-22 0 -36 -12.5t-14 -28.5h-53z" />
    <glyph glyph-name="acutecomb.aalt" 
d="M-255 734l131 119h109l-167 -119h-73z" />
    <glyph glyph-name="glyph525" 
d="M-585 542l27 155h82l-52 -155h-57z" />
    <glyph glyph-name="gravecomb.aalt" 
d="M-88 734l-167 119h103l137 -119h-73z" />
    <glyph glyph-name="tildecomb.aalt" 
d="M-340 735q0 36 16.5 60t38 31.5t38.5 7.5q20 0 38 -5.5t48.5 -20.5t47.5 -15q19 0 30.5 11t11.5 30h53q0 -24 -9 -48t-31 -37.5t-47 -13.5q-33 0 -68 18t-46.5 20.5t-17.5 2.5q-22 0 -36 -12.5t-14 -28.5h-53z" />
    <glyph glyph-name="uni0302.aalt" 
d="M-333 731l114 124h77l113 -124h-69l-84 79l-84 -79h-67z" />
    <glyph glyph-name="uni0304.aalt" 
d="M-262 757v52h221v-52h-221z" />
    <glyph glyph-name="uni0306.aalt" 
d="M-165 734q-30 0 -64 11t-56.5 39.5t-22.5 65.5h57q5 -30 27.5 -48t58.5 -18q35 0 58.5 17.5t26.5 48.5h56q0 -23 -13 -50t-48 -46.5t-80 -19.5z" />
    <glyph glyph-name="uni0307.aalt" 
d="M-116 760v75h82v-75h-82z" />
    <glyph glyph-name="uni0308.aalt" 
d="M-293 755v73h80v-73h-80zM-120 755v73h80v-73h-80z" />
    <glyph glyph-name="uni030A.aalt" 
d="M-115 710q-30 0 -55.5 16.5t-35.5 39.5t-10 42t10 42.5t35.5 40t55.5 16.5q19 0 43 -9.5t41.5 -34.5t17.5 -55t-17.5 -54.5t-41.5 -34t-43 -9.5zM-115 761q20 0 34 13.5t14 33.5t-14 34t-34 14q-19 0 -33 -14t-14 -34t13.5 -33.5t33.5 -13.5z" />
    <glyph glyph-name="uni030B.aalt" 
d="M-266 724l64 138h79l-89 -138h-54zM-137 724l67 138h79l-92 -138h-54z" />
    <glyph glyph-name="uni030C.aalt" 
d="M-221 731l-114 124h69l83 -79l84 79h68l-114 -124h-76z" />
    <glyph glyph-name="uni0336.aalt" 
d="M-757 433v68h743v-68h-743z" />
    <glyph glyph-name="uni0337.aalt" 
d="M-329 240l-36 57l316 214l36 -58z" />
    <glyph glyph-name="uni0338.aalt" 
d="M-658 44l-45 47l581 572l46 -47z" />
    <glyph glyph-name="glyph541" horiz-adv-x="813" 
d="M62 734l131 119h109l-167 -119h-73zM606 734l131 119h109l-167 -119h-73zM96 0v700h86v-700h-86zM506 -5q-45 0 -84 14.5t-67 41.5t-43.5 66t-15.5 85h79q0 -29 12 -59t45.5 -51.5t75.5 -21.5q58 0 94.5 39t36.5 106v485h86v-479q0 -105 -61 -165.5t-158 -60.5z" />
    <glyph glyph-name="glyph542" horiz-adv-x="1002" 
d="M330 -36l-306 307l306 304l53 -53l-216 -212h669l-217 212l54 53l305 -304l-305 -307l-54 54l216 214h-668l217 -214z" />
    <glyph glyph-name="glyph543" horiz-adv-x="669" 
d="M336 -227l-307 305l54 54l213 -216v625l-213 -215l-54 53l306 306l305 -306l-54 -53l-211 216v-626l211 216l54 -54z" />
    <glyph glyph-name="glyph544" horiz-adv-x="472" 
d="M46 578l111 144h104l-150 -144h-65zM273 578l111 144h104l-150 -144h-65zM77 0v501h82v-501h-82zM290 -222l-45 59q68 55 68 143v521h82v-521q0 -60 -27 -113.5t-78 -88.5z" />
    </font>
</defs>
</svg>
